<svg width="19" height="20" viewBox="0 0 19 20" fill="none" xmlns="http://www.w3.org/2000/svg">
<path d="M3.23044 0H17.194C18.1875 0 19 0.694375 19 1.54312V18.4569C19 19.3056 18.1875 20 17.194 20H3.23044C2.23691 20 1.42409 19.3056 1.42409 18.4569V18.0628H2.71429C3.10826 18.0628 3.42871 17.7891 3.42871 17.4525V16.435C3.42871 16.0984 3.10826 15.8244 2.71429 15.8244H1.42409V14.665H2.71429C3.10826 14.665 3.42871 14.3912 3.42871 14.0547V13.0372C3.42871 12.7006 3.10826 12.4269 2.71429 12.4269H1.42409V11.2675H2.71429C3.10826 11.2675 3.42871 10.9938 3.42871 10.6572V9.63969C3.42871 9.30313 3.10826 9.02938 2.71429 9.02938H1.42409V7.87H2.71429C3.10826 7.87 3.42871 7.59625 3.42871 7.25969V6.24219C3.42871 5.90563 3.10826 5.63188 2.71429 5.63188H1.42409V4.47219H2.71429C3.10826 4.47219 3.42871 4.19844 3.42871 3.86188V2.84437C3.42871 2.50781 3.10826 2.23406 2.71429 2.23406H1.42409V1.54312C1.42409 0.694375 2.23691 0 3.23044 0ZM0.23814 2.64094H2.71429C2.84561 2.64094 2.95243 2.7325 2.95243 2.84437V3.86188C2.95243 3.97375 2.84561 4.06531 2.71429 4.06531H0.23814C0.106816 4.06531 0 3.97375 0 3.86188V2.84437C0 2.7325 0.106816 2.64094 0.23814 2.64094ZM0.23814 16.2316H2.71429C2.84561 16.2316 2.95243 16.3228 2.95243 16.435V17.4525C2.95243 17.5644 2.84561 17.6556 2.71429 17.6556H0.23814C0.106816 17.6556 0 17.5644 0 17.4525V16.435C0 16.3228 0.106816 16.2316 0.23814 16.2316ZM0.23814 12.8337H2.71429C2.84561 12.8337 2.95243 12.9253 2.95243 13.0372V14.0547C2.95243 14.1669 2.84561 14.2581 2.71429 14.2581H0.23814C0.106816 14.2581 0 14.1669 0 14.0547V13.0372C0 12.9253 0.106816 12.8337 0.23814 12.8337ZM0.23814 9.43625H2.71429C2.84561 9.43625 2.95243 9.52781 2.95243 9.63969V10.6572C2.95243 10.7691 2.84561 10.8606 2.71429 10.8606H0.23814C0.106816 10.8606 0 10.7691 0 10.6572V9.63969C0 9.52781 0.106816 9.43625 0.23814 9.43625ZM0.23814 6.03875H2.71429C2.84561 6.03875 2.95243 6.13 2.95243 6.24219V7.25969C2.95243 7.37156 2.84561 7.46313 2.71429 7.46313H0.23814C0.106816 7.46313 0 7.37156 0 7.25969V6.24219C0 6.13 0.106816 6.03875 0.23814 6.03875ZM6.53623 11.7428C6.42356 12.0994 6.34382 12.6344 6.27176 13.1725C6.23554 13.4425 6.45649 13.6884 6.77108 13.7288C7.8707 13.8691 9.30283 13.9869 10.2795 13.9869L10.4438 11.4056C10.326 11.1263 10.2587 11.2631 10.0663 11.0028C9.97591 11.0703 9.88519 11.1378 9.80252 11.2388C9.72021 11.34 9.64596 11.4747 9.5717 11.6097C9.55524 11.3825 9.53877 11.1556 9.49341 10.8841C9.44805 10.6125 9.37416 10.2969 9.2999 9.98094C9.11846 10.1194 8.93702 10.2578 8.63011 10.3925C8.32283 10.5275 7.51916 10.6587 7.202 10.8469C6.88448 11.0347 6.68256 11.2797 6.53623 11.7428ZM9.08481 7.60687C9.06762 7.61062 9.0475 7.60438 9.00909 7.61469C8.97068 7.625 8.91581 7.66469 8.89496 7.71469C8.87447 7.76438 8.87301 7.82844 8.87959 7.90344C8.88618 7.97844 8.90081 8.06437 8.92532 8.16187C8.94946 8.25937 8.98311 8.36813 9.01348 8.44094C9.04347 8.51375 9.06981 8.55031 9.10968 8.57844C9.14956 8.60594 9.20223 8.625 9.26552 8.64156L9.26991 8.64281L9.29076 8.91594C9.30283 9.07656 9.3716 9.21156 9.5011 9.32781L9.57133 9.39094V9.87813C9.57133 9.96469 9.61413 10.0394 9.69388 10.0919L10.5857 10.6812L11.4779 10.0919C11.5577 10.0394 11.6005 9.96469 11.6005 9.87813V9.40219L11.6828 9.32719C11.8104 9.21094 11.8781 9.07719 11.8902 8.91781L11.9103 8.65406C11.9227 8.65156 11.9348 8.64844 11.9469 8.64531C12.0102 8.62906 12.0628 8.61 12.1027 8.58219C12.1422 8.55406 12.1689 8.5175 12.1989 8.45562C12.2289 8.39344 12.2626 8.30625 12.2867 8.21937C12.3109 8.13281 12.3259 8.04656 12.3346 7.96031C12.3434 7.87375 12.3463 7.78719 12.3226 7.72812C12.2992 7.66875 12.2494 7.63719 12.1945 7.61938C12.1686 7.61125 12.1419 7.60594 12.113 7.60437L12.1144 7.59594C12.1247 7.5875 12.1349 7.57812 12.1448 7.56781C12.2578 7.45312 12.3698 7.23313 12.3939 6.97688C12.4184 6.72062 12.3548 6.42844 12.2512 6.28375C12.1477 6.13937 12.0039 6.1425 11.8602 6.14563C11.8156 5.97688 11.7706 5.80813 11.5858 5.6725C11.4011 5.53688 11.0766 5.43406 10.7613 5.42125C10.446 5.40844 10.1402 5.48563 9.86764 5.62344C9.65474 5.73156 9.46232 5.87687 9.31015 5.97094C8.90593 6.22156 8.72266 6.62687 8.82472 7.04437C8.8752 7.25187 8.96043 7.44875 9.06359 7.56562C9.06725 7.56969 9.07091 7.57375 9.07493 7.5775L9.0753 7.5875C9.07603 7.59469 9.10164 7.60312 9.08481 7.60687ZM10.8732 11.4013L11.0927 13.9869C12.08 13.9869 13.4566 13.92 14.5741 13.7475C14.8806 13.7 15.091 13.4584 15.0555 13.1938C14.9827 12.6484 14.9026 12.1041 14.7881 11.7428C14.6418 11.2797 14.4399 11.0347 14.1227 10.8469C13.8052 10.6587 13.0015 10.5275 12.6946 10.3925C12.3873 10.2578 12.2062 10.1194 12.0248 9.98094C11.9505 10.2969 11.8763 10.6125 11.8309 10.8841C11.7856 11.1556 11.7691 11.3825 11.7526 11.6097C11.6784 11.4747 11.6045 11.34 11.5218 11.2388C11.4395 11.1378 11.3488 11.0703 11.2581 11.0028C11.0737 11.2522 11.0064 11.1378 10.8732 11.4013Z" fill="#505050"/>
</svg>
