<svg width="19" height="21" viewBox="0 0 19 21" fill="none" xmlns="http://www.w3.org/2000/svg">
<path d="M3.23044 0.640381H17.194C18.1875 0.640381 19 1.33476 19 2.18351V19.0973C19 19.946 18.1875 20.6404 17.194 20.6404H3.23044C2.23691 20.6404 1.42409 19.946 1.42409 19.0973V18.7032H2.71429C3.10826 18.7032 3.42871 18.4294 3.42871 18.0929V17.0754C3.42871 16.7388 3.10826 16.4648 2.71429 16.4648H1.42409V15.3054H2.71429C3.10826 15.3054 3.42871 15.0316 3.42871 14.6951V13.6776C3.42871 13.341 3.10826 13.0673 2.71429 13.0673H1.42409V11.9079H2.71429C3.10826 11.9079 3.42871 11.6341 3.42871 11.2976V10.2801C3.42871 9.94351 3.10826 9.66976 2.71429 9.66976H1.42409V8.51038H2.71429C3.10826 8.51038 3.42871 8.23663 3.42871 7.90007V6.88257C3.42871 6.54601 3.10826 6.27226 2.71429 6.27226H1.42409V5.11257H2.71429C3.10826 5.11257 3.42871 4.83882 3.42871 4.50226V3.48476C3.42871 3.14819 3.10826 2.87444 2.71429 2.87444H1.42409V2.18351C1.42409 1.33476 2.23691 0.640381 3.23044 0.640381ZM0.23814 3.28132H2.71429C2.84561 3.28132 2.95243 3.37288 2.95243 3.48476V4.50226C2.95243 4.61413 2.84561 4.70569 2.71429 4.70569H0.23814C0.106816 4.70569 0 4.61413 0 4.50226V3.48476C0 3.37288 0.106816 3.28132 0.23814 3.28132ZM0.23814 16.8719H2.71429C2.84561 16.8719 2.95243 16.9632 2.95243 17.0754V18.0929C2.95243 18.2048 2.84561 18.296 2.71429 18.296H0.23814C0.106816 18.296 0 18.2048 0 18.0929V17.0754C0 16.9632 0.106816 16.8719 0.23814 16.8719ZM0.23814 13.4741H2.71429C2.84561 13.4741 2.95243 13.5657 2.95243 13.6776V14.6951C2.95243 14.8073 2.84561 14.8985 2.71429 14.8985H0.23814C0.106816 14.8985 0 14.8073 0 14.6951V13.6776C0 13.5657 0.106816 13.4741 0.23814 13.4741ZM0.23814 10.0766H2.71429C2.84561 10.0766 2.95243 10.1682 2.95243 10.2801V11.2976C2.95243 11.4094 2.84561 11.501 2.71429 11.501H0.23814C0.106816 11.501 0 11.4094 0 11.2976V10.2801C0 10.1682 0.106816 10.0766 0.23814 10.0766ZM0.23814 6.67913H2.71429C2.84561 6.67913 2.95243 6.77038 2.95243 6.88257V7.90007C2.95243 8.01194 2.84561 8.10351 2.71429 8.10351H0.23814C0.106816 8.10351 0 8.01194 0 7.90007V6.88257C0 6.77038 0.106816 6.67913 0.23814 6.67913ZM6.53623 12.3832C6.42356 12.7398 6.34382 13.2748 6.27176 13.8129C6.23554 14.0829 6.45649 14.3288 6.77108 14.3691C7.8707 14.5094 9.30283 14.6273 10.2795 14.6273L10.4438 12.046C10.326 11.7666 10.2587 11.9035 10.0663 11.6432C9.97591 11.7107 9.88519 11.7782 9.80252 11.8791C9.72021 11.9804 9.64596 12.1151 9.5717 12.2501C9.55524 12.0229 9.53877 11.796 9.49341 11.5244C9.44805 11.2529 9.37416 10.9373 9.2999 10.6213C9.11846 10.7598 8.93702 10.8982 8.63011 11.0329C8.32283 11.1679 7.51916 11.2991 7.202 11.4873C6.88448 11.6751 6.68256 11.9201 6.53623 12.3832ZM9.08481 8.24726C9.06762 8.25101 9.0475 8.24476 9.00909 8.25507C8.97068 8.26538 8.91581 8.30507 8.89496 8.35507C8.87447 8.40476 8.87301 8.46882 8.87959 8.54382C8.88618 8.61882 8.90081 8.70476 8.92532 8.80226C8.94946 8.89976 8.98311 9.00851 9.01348 9.08132C9.04347 9.15413 9.06981 9.19069 9.10968 9.21882C9.14956 9.24632 9.20223 9.26538 9.26552 9.28194L9.26991 9.28319L9.29076 9.55632C9.30283 9.71694 9.3716 9.85194 9.5011 9.96819L9.57133 10.0313V10.5185C9.57133 10.6051 9.61413 10.6798 9.69388 10.7323L10.5857 11.3216L11.4779 10.7323C11.5577 10.6798 11.6005 10.6051 11.6005 10.5185V10.0426L11.6828 9.96757C11.8104 9.85132 11.8781 9.71757 11.8902 9.55819L11.9103 9.29444C11.9227 9.29194 11.9348 9.28882 11.9469 9.28569C12.0102 9.26944 12.0628 9.25038 12.1027 9.22257C12.1422 9.19444 12.1689 9.15788 12.1989 9.09601C12.2289 9.03382 12.2626 8.94663 12.2867 8.85976C12.3109 8.77319 12.3259 8.68694 12.3346 8.60069C12.3434 8.51413 12.3463 8.42757 12.3226 8.36851C12.2992 8.30913 12.2494 8.27757 12.1945 8.25976C12.1686 8.25163 12.1419 8.24632 12.113 8.24476L12.1144 8.23632C12.1247 8.22788 12.1349 8.21851 12.1448 8.20819C12.2578 8.09351 12.3698 7.87351 12.3939 7.61726C12.4184 7.36101 12.3548 7.06882 12.2512 6.92413C12.1477 6.77976 12.0039 6.78288 11.8602 6.78601C11.8156 6.61726 11.7706 6.44851 11.5858 6.31288C11.4011 6.17726 11.0766 6.07444 10.7613 6.06163C10.446 6.04882 10.1402 6.12601 9.86764 6.26382C9.65474 6.37194 9.46232 6.51726 9.31015 6.61132C8.90593 6.86194 8.72266 7.26726 8.82472 7.68476C8.8752 7.89226 8.96043 8.08913 9.06359 8.20601C9.06725 8.21007 9.07091 8.21413 9.07493 8.21788L9.0753 8.22788C9.07603 8.23507 9.10164 8.24351 9.08481 8.24726ZM10.8732 12.0416L11.0927 14.6273C12.08 14.6273 13.4566 14.5604 14.5741 14.3879C14.8806 14.3404 15.091 14.0988 15.0555 13.8341C14.9827 13.2888 14.9026 12.7444 14.7881 12.3832C14.6418 11.9201 14.4399 11.6751 14.1227 11.4873C13.8052 11.2991 13.0015 11.1679 12.6946 11.0329C12.3873 10.8982 12.2062 10.7598 12.0248 10.6213C11.9505 10.9373 11.8763 11.2529 11.8309 11.5244C11.7856 11.796 11.7691 12.0229 11.7526 12.2501C11.6784 12.1151 11.6045 11.9804 11.5218 11.8791C11.4395 11.7782 11.3488 11.7107 11.2581 11.6432C11.0737 11.8926 11.0064 11.7782 10.8732 12.0416Z" fill="#0C2172"/>
</svg>
