<svg width="360" height="150" viewBox="0 0 360 150" fill="none" xmlns="http://www.w3.org/2000/svg">
<rect width="360" height="150" rx="10" fill="#0C2172"/>
<path d="M116.017 135H113.381L117.398 123.364H120.568L124.58 135H121.943L119.028 126.023H118.938L116.017 135ZM115.852 130.426H122.08V132.347H115.852V130.426ZM128.355 123.364V135H125.935V123.364H128.355ZM134.936 126.273V128.091H129.68V126.273H134.936ZM130.874 124.182H133.294V132.318C133.294 132.542 133.328 132.716 133.396 132.841C133.464 132.962 133.559 133.047 133.68 133.097C133.805 133.146 133.949 133.17 134.112 133.17C134.226 133.17 134.339 133.161 134.453 133.142C134.567 133.119 134.654 133.102 134.714 133.091L135.095 134.892C134.974 134.93 134.804 134.973 134.584 135.023C134.364 135.076 134.097 135.108 133.783 135.119C133.199 135.142 132.688 135.064 132.249 134.886C131.813 134.708 131.474 134.432 131.232 134.057C130.989 133.682 130.87 133.208 130.874 132.636V124.182ZM140.396 135.17C139.499 135.17 138.726 134.989 138.078 134.625C137.434 134.258 136.938 133.739 136.589 133.068C136.241 132.394 136.067 131.597 136.067 130.676C136.067 129.778 136.241 128.991 136.589 128.312C136.938 127.634 137.429 127.106 138.061 126.727C138.697 126.348 139.444 126.159 140.3 126.159C140.875 126.159 141.411 126.252 141.908 126.438C142.408 126.619 142.843 126.894 143.214 127.261C143.589 127.629 143.881 128.091 144.089 128.648C144.298 129.201 144.402 129.848 144.402 130.591V131.256H137.033V129.756H142.124C142.124 129.407 142.048 129.098 141.896 128.83C141.745 128.561 141.535 128.35 141.266 128.199C141 128.044 140.692 127.966 140.339 127.966C139.972 127.966 139.646 128.051 139.362 128.222C139.082 128.388 138.862 128.614 138.703 128.898C138.544 129.178 138.463 129.491 138.459 129.835V131.261C138.459 131.693 138.538 132.066 138.697 132.381C138.86 132.695 139.089 132.938 139.385 133.108C139.68 133.278 140.031 133.364 140.436 133.364C140.705 133.364 140.951 133.326 141.175 133.25C141.398 133.174 141.589 133.061 141.749 132.909C141.908 132.758 142.029 132.572 142.112 132.352L144.351 132.5C144.237 133.038 144.004 133.508 143.652 133.909C143.304 134.307 142.853 134.617 142.3 134.841C141.75 135.061 141.116 135.17 140.396 135.17ZM145.982 135V126.273H148.328V127.795H148.419C148.578 127.254 148.845 126.845 149.22 126.568C149.595 126.288 150.027 126.148 150.516 126.148C150.637 126.148 150.768 126.155 150.908 126.17C151.048 126.186 151.171 126.206 151.277 126.233V128.381C151.163 128.347 151.006 128.316 150.805 128.29C150.605 128.263 150.421 128.25 150.254 128.25C149.898 128.25 149.58 128.328 149.3 128.483C149.023 128.634 148.804 128.847 148.641 129.119C148.482 129.392 148.402 129.706 148.402 130.062V135H145.982ZM154.767 135.165C154.21 135.165 153.714 135.068 153.278 134.875C152.843 134.678 152.498 134.388 152.244 134.006C151.994 133.619 151.869 133.138 151.869 132.562C151.869 132.078 151.958 131.67 152.136 131.341C152.314 131.011 152.557 130.746 152.864 130.545C153.17 130.345 153.519 130.193 153.909 130.091C154.303 129.989 154.716 129.917 155.148 129.875C155.655 129.822 156.064 129.773 156.375 129.727C156.686 129.678 156.911 129.606 157.051 129.511C157.191 129.417 157.261 129.277 157.261 129.091V129.057C157.261 128.697 157.148 128.419 156.92 128.222C156.697 128.025 156.379 127.926 155.966 127.926C155.53 127.926 155.184 128.023 154.926 128.216C154.669 128.405 154.498 128.644 154.415 128.932L152.176 128.75C152.29 128.22 152.513 127.761 152.847 127.375C153.18 126.985 153.61 126.686 154.136 126.477C154.667 126.265 155.28 126.159 155.977 126.159C156.462 126.159 156.926 126.216 157.369 126.33C157.816 126.443 158.212 126.619 158.557 126.858C158.905 127.097 159.18 127.403 159.381 127.778C159.581 128.15 159.682 128.595 159.682 129.114V135H157.386V133.79H157.318C157.178 134.062 156.991 134.303 156.756 134.511C156.521 134.716 156.239 134.877 155.909 134.994C155.58 135.108 155.199 135.165 154.767 135.165ZM155.46 133.494C155.816 133.494 156.131 133.424 156.403 133.284C156.676 133.14 156.89 132.947 157.045 132.705C157.201 132.462 157.278 132.187 157.278 131.881V130.955C157.203 131.004 157.098 131.049 156.966 131.091C156.837 131.129 156.691 131.165 156.528 131.199C156.366 131.229 156.203 131.258 156.04 131.284C155.877 131.307 155.729 131.328 155.597 131.347C155.313 131.388 155.064 131.455 154.852 131.545C154.64 131.636 154.475 131.759 154.358 131.915C154.241 132.066 154.182 132.256 154.182 132.483C154.182 132.812 154.301 133.064 154.54 133.239C154.782 133.409 155.089 133.494 155.46 133.494ZM161.56 135V126.273H163.906V127.795H163.997C164.156 127.254 164.423 126.845 164.798 126.568C165.173 126.288 165.605 126.148 166.094 126.148C166.215 126.148 166.346 126.155 166.486 126.17C166.626 126.186 166.749 126.206 166.855 126.233V128.381C166.741 128.347 166.584 128.316 166.384 128.29C166.183 128.263 165.999 128.25 165.832 128.25C165.476 128.25 165.158 128.328 164.878 128.483C164.601 128.634 164.382 128.847 164.219 129.119C164.06 129.392 163.98 129.706 163.98 130.062V135H161.56ZM171.855 135V123.364H176.446C177.325 123.364 178.075 123.521 178.696 123.835C179.321 124.146 179.796 124.587 180.122 125.159C180.452 125.727 180.616 126.396 180.616 127.165C180.616 127.937 180.45 128.602 180.116 129.159C179.783 129.712 179.3 130.136 178.668 130.432C178.039 130.727 177.277 130.875 176.384 130.875H173.31V128.898H175.986C176.455 128.898 176.846 128.833 177.156 128.705C177.467 128.576 177.698 128.383 177.849 128.125C178.005 127.867 178.082 127.547 178.082 127.165C178.082 126.778 178.005 126.453 177.849 126.188C177.698 125.922 177.465 125.722 177.151 125.585C176.84 125.445 176.448 125.375 175.974 125.375H174.315V135H171.855ZM178.139 129.705L181.031 135H178.315L175.486 129.705H178.139ZM186.146 135.17C185.249 135.17 184.476 134.989 183.828 134.625C183.184 134.258 182.688 133.739 182.339 133.068C181.991 132.394 181.817 131.597 181.817 130.676C181.817 129.778 181.991 128.991 182.339 128.312C182.688 127.634 183.179 127.106 183.811 126.727C184.447 126.348 185.194 126.159 186.05 126.159C186.625 126.159 187.161 126.252 187.658 126.438C188.158 126.619 188.593 126.894 188.964 127.261C189.339 127.629 189.631 128.091 189.839 128.648C190.048 129.201 190.152 129.848 190.152 130.591V131.256H182.783V129.756H187.874C187.874 129.407 187.798 129.098 187.646 128.83C187.495 128.561 187.285 128.35 187.016 128.199C186.75 128.044 186.442 127.966 186.089 127.966C185.722 127.966 185.396 128.051 185.112 128.222C184.832 128.388 184.612 128.614 184.453 128.898C184.294 129.178 184.213 129.491 184.209 129.835V131.261C184.209 131.693 184.288 132.066 184.447 132.381C184.61 132.695 184.839 132.938 185.135 133.108C185.43 133.278 185.781 133.364 186.186 133.364C186.455 133.364 186.701 133.326 186.925 133.25C187.148 133.174 187.339 133.061 187.499 132.909C187.658 132.758 187.779 132.572 187.862 132.352L190.101 132.5C189.987 133.038 189.754 133.508 189.402 133.909C189.054 134.307 188.603 134.617 188.05 134.841C187.5 135.061 186.866 135.17 186.146 135.17ZM195.663 138.455C194.879 138.455 194.207 138.347 193.646 138.131C193.089 137.919 192.646 137.629 192.317 137.261C191.987 136.894 191.773 136.481 191.675 136.023L193.913 135.722C193.982 135.896 194.089 136.059 194.237 136.21C194.385 136.362 194.58 136.483 194.822 136.574C195.069 136.669 195.368 136.716 195.72 136.716C196.247 136.716 196.68 136.587 197.021 136.33C197.366 136.076 197.538 135.65 197.538 135.051V133.455H197.436C197.33 133.697 197.171 133.926 196.959 134.142C196.747 134.358 196.474 134.534 196.141 134.67C195.807 134.807 195.41 134.875 194.947 134.875C194.292 134.875 193.696 134.723 193.158 134.42C192.624 134.114 192.197 133.646 191.879 133.017C191.565 132.384 191.408 131.585 191.408 130.619C191.408 129.631 191.569 128.805 191.891 128.142C192.213 127.479 192.641 126.983 193.175 126.653C193.713 126.324 194.302 126.159 194.942 126.159C195.43 126.159 195.839 126.242 196.169 126.409C196.499 126.572 196.764 126.777 196.964 127.023C197.169 127.265 197.326 127.504 197.436 127.739H197.527V126.273H199.93V135.085C199.93 135.828 199.749 136.449 199.385 136.949C199.021 137.449 198.518 137.824 197.874 138.074C197.233 138.328 196.497 138.455 195.663 138.455ZM195.714 133.057C196.105 133.057 196.434 132.96 196.703 132.767C196.976 132.57 197.184 132.29 197.328 131.926C197.476 131.559 197.55 131.119 197.55 130.608C197.55 130.097 197.478 129.653 197.334 129.278C197.19 128.9 196.982 128.606 196.709 128.398C196.436 128.189 196.105 128.085 195.714 128.085C195.317 128.085 194.982 128.193 194.709 128.409C194.436 128.621 194.23 128.917 194.089 129.295C193.949 129.674 193.879 130.112 193.879 130.608C193.879 131.112 193.949 131.547 194.089 131.915C194.233 132.278 194.44 132.561 194.709 132.761C194.982 132.958 195.317 133.057 195.714 133.057ZM201.857 135V126.273H204.277V135H201.857ZM203.072 125.148C202.713 125.148 202.404 125.028 202.146 124.79C201.893 124.547 201.766 124.258 201.766 123.92C201.766 123.587 201.893 123.301 202.146 123.062C202.404 122.82 202.713 122.699 203.072 122.699C203.432 122.699 203.739 122.82 203.993 123.062C204.25 123.301 204.379 123.587 204.379 123.92C204.379 124.258 204.25 124.547 203.993 124.79C203.739 125.028 203.432 125.148 203.072 125.148ZM213.477 128.761L211.261 128.898C211.223 128.708 211.142 128.538 211.017 128.386C210.892 128.231 210.727 128.108 210.523 128.017C210.322 127.922 210.081 127.875 209.801 127.875C209.426 127.875 209.11 127.955 208.852 128.114C208.595 128.269 208.466 128.477 208.466 128.739C208.466 128.947 208.549 129.123 208.716 129.267C208.883 129.411 209.169 129.527 209.574 129.614L211.153 129.932C212.002 130.106 212.634 130.386 213.051 130.773C213.468 131.159 213.676 131.667 213.676 132.295C213.676 132.867 213.508 133.369 213.17 133.801C212.837 134.233 212.379 134.57 211.795 134.812C211.216 135.051 210.547 135.17 209.79 135.17C208.634 135.17 207.714 134.93 207.028 134.449C206.347 133.964 205.947 133.305 205.83 132.472L208.21 132.347C208.282 132.699 208.456 132.968 208.733 133.153C209.009 133.335 209.364 133.426 209.795 133.426C210.22 133.426 210.561 133.345 210.818 133.182C211.08 133.015 211.212 132.801 211.216 132.54C211.212 132.32 211.119 132.14 210.938 132C210.756 131.856 210.475 131.746 210.097 131.67L208.585 131.369C207.733 131.199 207.098 130.903 206.682 130.483C206.269 130.062 206.062 129.527 206.062 128.875C206.062 128.314 206.214 127.831 206.517 127.426C206.824 127.021 207.254 126.708 207.807 126.489C208.364 126.269 209.015 126.159 209.761 126.159C210.864 126.159 211.731 126.392 212.364 126.858C213 127.324 213.371 127.958 213.477 128.761ZM219.842 126.273V128.091H214.587V126.273H219.842ZM215.78 124.182H218.2V132.318C218.2 132.542 218.234 132.716 218.303 132.841C218.371 132.962 218.465 133.047 218.587 133.097C218.712 133.146 218.856 133.17 219.018 133.17C219.132 133.17 219.246 133.161 219.359 133.142C219.473 133.119 219.56 133.102 219.621 133.091L220.001 134.892C219.88 134.93 219.71 134.973 219.49 135.023C219.27 135.076 219.003 135.108 218.689 135.119C218.106 135.142 217.594 135.064 217.155 134.886C216.719 134.708 216.38 134.432 216.138 134.057C215.895 133.682 215.776 133.208 215.78 132.636V124.182ZM221.419 135V126.273H223.766V127.795H223.857C224.016 127.254 224.283 126.845 224.658 126.568C225.033 126.288 225.464 126.148 225.953 126.148C226.074 126.148 226.205 126.155 226.345 126.17C226.485 126.186 226.608 126.206 226.714 126.233V128.381C226.601 128.347 226.444 128.316 226.243 128.29C226.042 128.263 225.858 128.25 225.692 128.25C225.336 128.25 225.018 128.328 224.737 128.483C224.461 128.634 224.241 128.847 224.078 129.119C223.919 129.392 223.839 129.706 223.839 130.062V135H221.419ZM231.503 135.17C230.62 135.17 229.857 134.983 229.213 134.608C228.573 134.229 228.079 133.703 227.73 133.028C227.382 132.35 227.207 131.564 227.207 130.67C227.207 129.769 227.382 128.981 227.73 128.307C228.079 127.629 228.573 127.102 229.213 126.727C229.857 126.348 230.62 126.159 231.503 126.159C232.385 126.159 233.147 126.348 233.787 126.727C234.431 127.102 234.927 127.629 235.276 128.307C235.624 128.981 235.798 129.769 235.798 130.67C235.798 131.564 235.624 132.35 235.276 133.028C234.927 133.703 234.431 134.229 233.787 134.608C233.147 134.983 232.385 135.17 231.503 135.17ZM231.514 133.295C231.916 133.295 232.251 133.182 232.52 132.955C232.789 132.723 232.991 132.409 233.128 132.011C233.268 131.614 233.338 131.161 233.338 130.653C233.338 130.146 233.268 129.693 233.128 129.295C232.991 128.898 232.789 128.583 232.52 128.352C232.251 128.121 231.916 128.006 231.514 128.006C231.109 128.006 230.768 128.121 230.491 128.352C230.219 128.583 230.012 128.898 229.872 129.295C229.736 129.693 229.668 130.146 229.668 130.653C229.668 131.161 229.736 131.614 229.872 132.011C230.012 132.409 230.219 132.723 230.491 132.955C230.768 133.182 231.109 133.295 231.514 133.295ZM244.634 128.761L242.418 128.898C242.38 128.708 242.298 128.538 242.173 128.386C242.048 128.231 241.884 128.108 241.679 128.017C241.478 127.922 241.238 127.875 240.957 127.875C240.582 127.875 240.266 127.955 240.009 128.114C239.751 128.269 239.622 128.477 239.622 128.739C239.622 128.947 239.705 129.123 239.872 129.267C240.039 129.411 240.325 129.527 240.73 129.614L242.31 129.932C243.158 130.106 243.791 130.386 244.207 130.773C244.624 131.159 244.832 131.667 244.832 132.295C244.832 132.867 244.664 133.369 244.327 133.801C243.993 134.233 243.535 134.57 242.952 134.812C242.372 135.051 241.704 135.17 240.946 135.17C239.791 135.17 238.87 134.93 238.185 134.449C237.503 133.964 237.103 133.305 236.986 132.472L239.366 132.347C239.438 132.699 239.613 132.968 239.889 133.153C240.166 133.335 240.52 133.426 240.952 133.426C241.376 133.426 241.717 133.345 241.974 133.182C242.236 133.015 242.368 132.801 242.372 132.54C242.368 132.32 242.276 132.14 242.094 132C241.912 131.856 241.632 131.746 241.253 131.67L239.741 131.369C238.889 131.199 238.255 130.903 237.838 130.483C237.425 130.062 237.219 129.527 237.219 128.875C237.219 128.314 237.37 127.831 237.673 127.426C237.98 127.021 238.41 126.708 238.963 126.489C239.52 126.269 240.171 126.159 240.918 126.159C242.02 126.159 242.887 126.392 243.52 126.858C244.156 127.324 244.527 127.958 244.634 128.761Z" fill="#FDD105"/>
<path d="M149.489 15H216.441C221.204 15 225.1 18.3293 225.1 22.3989V103.496C225.1 107.565 221.204 110.895 216.441 110.895H149.489C144.725 110.895 140.828 107.565 140.828 103.496V101.606H147.014C148.903 101.606 150.44 100.294 150.44 98.6801V93.8015C150.44 92.1878 148.903 90.8737 147.014 90.8737H140.828V85.3148H147.014C148.903 85.3148 150.44 84.0023 150.44 82.3885V77.5099C150.44 75.8962 148.903 74.5836 147.014 74.5836H140.828V69.0247H147.014C148.903 69.0247 150.44 67.7121 150.44 66.0984V61.2198C150.44 59.606 148.903 58.2935 147.014 58.2935H140.828V52.7346H147.014C148.903 52.7346 150.44 51.422 150.44 49.8083V44.9296C150.44 43.3159 148.903 42.0034 147.014 42.0034H140.828V36.443H147.014C148.903 36.443 150.44 35.1304 150.44 33.5167V28.638C150.44 27.0243 148.903 25.7117 147.014 25.7117H140.828V22.3989C140.828 18.3293 144.725 15 149.489 15ZM135.142 27.6626H147.014C147.644 27.6626 148.156 28.1016 148.156 28.638V33.5167C148.156 34.0531 147.644 34.4921 147.014 34.4921H135.142C134.512 34.4921 134 34.0531 134 33.5167V28.638C134 28.1016 134.512 27.6626 135.142 27.6626ZM135.142 92.8261H147.014C147.644 92.8261 148.156 93.2636 148.156 93.8015V98.6801C148.156 99.2166 147.644 99.6541 147.014 99.6541H135.142C134.512 99.6541 134 99.2166 134 98.6801V93.8015C134 93.2636 134.512 92.8261 135.142 92.8261ZM135.142 76.5345H147.014C147.644 76.5345 148.156 76.9735 148.156 77.5099V82.3885C148.156 82.9264 147.644 83.364 147.014 83.364H135.142C134.512 83.364 134 82.9264 134 82.3885V77.5099C134 76.9735 134.512 76.5345 135.142 76.5345ZM135.142 60.2443H147.014C147.644 60.2443 148.156 60.6834 148.156 61.2198V66.0984C148.156 66.6348 147.644 67.0738 147.014 67.0738H135.142C134.512 67.0738 134 66.6348 134 66.0984V61.2198C134 60.6834 134.512 60.2443 135.142 60.2443ZM135.142 43.9542H147.014C147.644 43.9542 148.156 44.3917 148.156 44.9296V49.8083C148.156 50.3447 147.644 50.7837 147.014 50.7837H135.142C134.512 50.7837 134 50.3447 134 49.8083V44.9296C134 44.3917 134.512 43.9542 135.142 43.9542ZM165.34 71.3037C164.799 73.0133 164.417 75.5785 164.071 78.1587C163.898 79.4533 164.957 80.6325 166.466 80.8257C171.738 81.4985 178.605 82.0634 183.288 82.0634L184.075 69.687C183.51 68.3474 183.188 69.0037 182.265 67.7556C181.832 68.0792 181.397 68.4029 181.001 68.8868C180.606 69.3723 180.25 70.0181 179.894 70.6654C179.815 69.5761 179.736 68.4883 179.518 67.1862C179.301 65.8841 178.947 64.3708 178.591 62.856C177.721 63.5197 176.851 64.1835 175.379 64.8293C173.906 65.4766 170.052 66.1059 168.532 67.0079C167.009 67.9084 166.041 69.0831 165.34 71.3037ZM177.559 51.473C177.477 51.4909 177.38 51.461 177.196 51.5104C177.012 51.5599 176.749 51.7502 176.649 51.9899C176.551 52.2281 176.544 52.5353 176.575 52.8949C176.607 53.2545 176.677 53.6666 176.795 54.134C176.91 54.6015 177.072 55.123 177.217 55.4721C177.361 55.8212 177.487 55.9965 177.679 56.1314C177.87 56.2632 178.122 56.3546 178.426 56.434L178.447 56.44L178.547 57.7496C178.605 58.5197 178.934 59.167 179.555 59.7244L179.892 60.0271V62.363C179.892 62.7781 180.097 63.1362 180.48 63.3879L184.756 66.2138L189.034 63.3879C189.416 63.1362 189.621 62.7781 189.621 62.363V60.081L190.016 59.7214C190.628 59.164 190.952 58.5227 191.01 57.7586L191.107 56.494C191.166 56.482 191.224 56.467 191.282 56.452C191.586 56.3741 191.838 56.2827 192.029 56.1493C192.219 56.0145 192.347 55.8392 192.491 55.5425C192.634 55.2443 192.796 54.8263 192.912 54.4097C193.027 53.9947 193.099 53.5811 193.141 53.1676C193.183 52.7526 193.197 52.3375 193.083 52.0543C192.971 51.7696 192.733 51.6183 192.47 51.5329C192.345 51.4939 192.217 51.4685 192.078 51.461L192.085 51.4205C192.135 51.3801 192.184 51.3351 192.231 51.2857C192.773 50.7358 193.31 49.6809 193.425 48.4523C193.543 47.2236 193.238 45.8227 192.741 45.1289C192.245 44.4367 191.556 44.4517 190.866 44.4667C190.652 43.6575 190.437 42.8484 189.551 42.1981C188.665 41.5479 187.11 41.0549 185.598 40.9935C184.086 40.932 182.619 41.3021 181.313 41.9629C180.292 42.4813 179.369 43.1781 178.64 43.6291C176.702 44.8308 175.823 46.7741 176.312 48.7759C176.554 49.7708 176.963 50.7148 177.458 51.2752C177.475 51.2947 177.493 51.3141 177.512 51.3321L177.514 51.3801C177.517 51.4145 177.64 51.455 177.559 51.473ZM186.134 69.666L187.187 82.0634C191.921 82.0634 198.521 81.7427 203.879 80.9156C205.349 80.6879 206.357 79.5297 206.187 78.2606C205.838 75.6459 205.454 73.0358 204.905 71.3037C204.203 69.0831 203.235 67.9084 201.715 67.0079C200.192 66.1059 196.339 65.4766 194.867 64.8293C193.394 64.1835 192.526 63.5197 191.656 62.856C191.3 64.3708 190.944 65.8841 190.726 67.1862C190.509 68.4883 190.43 69.5761 190.351 70.6654C189.995 70.0181 189.64 69.3723 189.244 68.8868C188.849 68.4029 188.414 68.0792 187.979 67.7556C187.095 68.9513 186.773 68.4029 186.134 69.666Z" fill="#FDD105"/>
</svg>
