<svg width="50" height="50" viewBox="0 0 50 50" fill="none" xmlns="http://www.w3.org/2000/svg">
<path d="M28.3655 45.6977C28.6887 45.6474 28.9933 45.8674 29.0437 46.1907C29.0947 46.5139 28.8746 46.8185 28.5507 46.8689C27.9583 46.9646 27.369 47.0373 26.7866 47.0833C26.1886 47.1306 25.5924 47.1554 25 47.1554C18.8819 47.1554 13.3426 44.6745 9.33374 40.6663C5.32548 36.6574 2.84457 31.1181 2.84457 25C2.84457 18.8819 5.32548 13.3426 9.33374 9.33374C13.3426 5.32548 18.8819 2.84457 25 2.84457C31.1181 2.84457 36.6574 5.32548 40.6663 9.33374C44.6745 13.3426 47.1554 18.8819 47.1554 25C47.1554 25.9449 47.0933 26.8891 46.9739 27.8259C46.8539 28.7708 46.6737 29.697 46.4387 30.5965C46.3566 30.9142 46.0328 31.1044 45.7157 31.0223C45.3981 30.9397 45.2079 30.6158 45.2899 30.2988C45.5131 29.444 45.6828 28.5681 45.7972 27.6773C45.9072 26.8133 45.9644 25.9188 45.9644 25C45.9644 19.212 43.6171 13.9692 39.824 10.176C36.0308 6.38287 30.788 4.03561 25 4.03561C19.212 4.03561 13.9692 6.38287 10.176 10.176C6.38287 13.9692 4.03561 19.212 4.03561 25C4.03561 30.788 6.38287 36.0308 10.176 39.824C13.9692 43.6171 19.212 45.9644 25 45.9644C25.5781 45.9644 26.1432 45.942 26.6933 45.8985C27.2689 45.8525 27.8272 45.7841 28.3655 45.6977ZM7.32215 42.6778C11.8464 47.2008 18.0968 50 25 50C31.9032 50 38.1536 47.2008 42.6778 42.6778C47.2008 38.1536 50 31.9032 50 25C50 18.0968 47.2008 11.8464 42.6778 7.32215C38.1536 2.79919 31.9032 0 25 0C18.0968 0 11.8464 2.79919 7.32215 7.32215C2.79919 11.8464 0 18.0968 0 25C0 31.9032 2.79919 38.1536 7.32215 42.6778ZM17.6977 26.3551C17.8003 26.0456 18.1366 25.8765 18.4462 25.9791C18.7564 26.0823 18.9248 26.4179 18.8223 26.7281L18.177 28.6626L25.1125 24.6587V12.1186L23.8276 13.5683C23.6107 13.8132 23.2352 13.8362 22.9903 13.6192C22.7447 13.4029 22.7224 13.0275 22.9387 12.7819L25.2312 10.1966C25.34 10.0517 25.5135 9.95723 25.708 9.95723C25.9026 9.95723 26.0754 10.0517 26.1848 10.1966L28.4768 12.7819C28.6931 13.0275 28.6707 13.4029 28.4252 13.6192C28.1796 13.8362 27.8042 13.8132 27.5878 13.5683L26.3036 12.1193V25C26.2998 25.2051 26.1935 25.4047 26.0033 25.5141L18.8956 29.6168L20.7033 29.9867C21.0234 30.052 21.2311 30.3665 21.1658 30.6866C21.1005 31.0074 20.786 31.215 20.4652 31.1491L16.9661 30.4281C16.6559 30.3255 16.4868 29.9892 16.5894 29.6796L17.6977 26.3551ZM44.1399 33.5698C44.2754 33.2726 44.6285 33.1421 44.9257 33.2776C45.2234 33.4131 45.354 33.7662 45.2184 34.0633L45.086 34.3518C44.9505 34.6489 44.5974 34.7801 44.3003 34.6439C44.0032 34.5084 43.872 34.1553 44.0075 33.8582L44.1399 33.5698ZM42.0512 37.2001C42.2433 36.9353 42.6157 36.8762 42.8811 37.0683C43.1459 37.2604 43.205 37.6327 43.0129 37.8975L42.8264 38.1543C42.635 38.4197 42.262 38.4788 41.9972 38.2867C41.7324 38.0946 41.6733 37.7222 41.8648 37.4568L42.0512 37.2001ZM39.1756 40.4474C39.4187 40.228 39.7929 40.2473 40.0123 40.4897C40.2317 40.7322 40.2131 41.107 39.97 41.3264L39.7351 41.5396C39.492 41.7591 39.1178 41.7398 38.8983 41.4974C38.6789 41.2549 38.6976 40.8801 38.9406 40.6607L39.1756 40.4474ZM35.812 42.9657C36.0936 42.7991 36.4585 42.8929 36.6251 43.1745C36.7917 43.4567 36.6984 43.8216 36.4162 43.9882L36.1445 44.1499C35.8623 44.3165 35.4974 44.2232 35.3308 43.941C35.1642 43.6588 35.2581 43.2945 35.5397 43.1273L35.812 42.9657ZM32.0461 44.7522C32.3557 44.6447 32.6945 44.8075 32.8021 45.1171C32.9096 45.4267 32.7467 45.7655 32.4372 45.873L32.1388 45.9768C31.8292 46.0844 31.4904 45.9215 31.3829 45.6119C31.2753 45.303 31.4382 44.9642 31.7478 44.856L32.0461 44.7522Z" fill="#0C2172"/>
</svg>
