<svg width="360" height="172" viewBox="0 0 360 172" fill="none" xmlns="http://www.w3.org/2000/svg">
<path d="M20.957 168.887H19.1465V163.93C19.1465 163.793 19.1484 163.625 19.1523 163.426C19.1562 163.223 19.1621 163.016 19.1699 162.805C19.1777 162.59 19.1855 162.396 19.1934 162.225C19.1504 162.275 19.0625 162.363 18.9297 162.488C18.8008 162.609 18.6797 162.719 18.5664 162.816L17.582 163.607L16.709 162.518L19.4688 160.32H20.957V168.887Z" fill="#505050"/>
<path d="M75.4688 168.887H69.4805V167.627L71.6309 165.453C72.0645 165.008 72.4121 164.637 72.6738 164.34C72.9395 164.039 73.1309 163.766 73.248 163.52C73.3691 163.273 73.4297 163.01 73.4297 162.729C73.4297 162.389 73.334 162.135 73.1426 161.967C72.9551 161.795 72.7031 161.709 72.3867 161.709C72.0547 161.709 71.7324 161.785 71.4199 161.938C71.1074 162.09 70.7812 162.307 70.4414 162.588L69.457 161.422C69.7031 161.211 69.9629 161.012 70.2363 160.824C70.5137 160.637 70.834 160.486 71.1973 160.373C71.5645 160.256 72.0039 160.197 72.5156 160.197C73.0781 160.197 73.5605 160.299 73.9629 160.502C74.3691 160.705 74.6816 160.982 74.9004 161.334C75.1191 161.682 75.2285 162.076 75.2285 162.518C75.2285 162.99 75.1348 163.422 74.9473 163.812C74.7598 164.203 74.4863 164.59 74.127 164.973C73.7715 165.355 73.3418 165.779 72.8379 166.244L71.7363 167.281V167.363H75.4688V168.887Z" fill="#505050"/>
<path d="M129.135 162.236C129.135 162.631 129.053 162.973 128.889 163.262C128.725 163.551 128.502 163.787 128.221 163.971C127.943 164.154 127.631 164.289 127.283 164.375V164.41C127.971 164.496 128.492 164.707 128.848 165.043C129.207 165.379 129.387 165.828 129.387 166.391C129.387 166.891 129.264 167.338 129.018 167.732C128.775 168.127 128.4 168.438 127.893 168.664C127.385 168.891 126.73 169.004 125.93 169.004C125.457 169.004 125.016 168.965 124.605 168.887C124.199 168.812 123.816 168.697 123.457 168.541V167C123.824 167.188 124.209 167.33 124.611 167.428C125.014 167.521 125.389 167.568 125.736 167.568C126.385 167.568 126.838 167.457 127.096 167.234C127.357 167.008 127.488 166.691 127.488 166.285C127.488 166.047 127.428 165.846 127.307 165.682C127.186 165.518 126.975 165.393 126.674 165.307C126.377 165.221 125.961 165.178 125.426 165.178H124.775V163.789H125.438C125.965 163.789 126.365 163.74 126.639 163.643C126.916 163.541 127.104 163.404 127.201 163.232C127.303 163.057 127.354 162.857 127.354 162.635C127.354 162.33 127.26 162.092 127.072 161.92C126.885 161.748 126.572 161.662 126.135 161.662C125.861 161.662 125.611 161.697 125.385 161.768C125.162 161.834 124.961 161.916 124.781 162.014C124.602 162.107 124.443 162.199 124.307 162.289L123.469 161.041C123.805 160.799 124.197 160.598 124.646 160.438C125.1 160.277 125.639 160.197 126.264 160.197C127.146 160.197 127.846 160.375 128.361 160.73C128.877 161.086 129.135 161.588 129.135 162.236Z" fill="#505050"/>
<path d="M183.662 167.111H182.631V168.887H180.861V167.111H177.205V165.852L180.961 160.32H182.631V165.705H183.662V167.111ZM180.861 165.705V164.252C180.861 164.115 180.863 163.953 180.867 163.766C180.875 163.578 180.883 163.391 180.891 163.203C180.898 163.016 180.906 162.85 180.914 162.705C180.926 162.557 180.934 162.453 180.938 162.395H180.891C180.816 162.555 180.738 162.711 180.656 162.863C180.574 163.012 180.479 163.168 180.369 163.332L178.799 165.705H180.861Z" fill="#505050"/>
<path d="M234.598 163.414C235.121 163.414 235.586 163.514 235.992 163.713C236.402 163.912 236.725 164.205 236.959 164.592C237.193 164.979 237.311 165.455 237.311 166.021C237.311 166.639 237.182 167.172 236.924 167.621C236.67 168.066 236.289 168.408 235.781 168.646C235.277 168.885 234.648 169.004 233.895 169.004C233.445 169.004 233.021 168.965 232.623 168.887C232.229 168.812 231.883 168.697 231.586 168.541V166.977C231.883 167.133 232.238 167.266 232.652 167.375C233.07 167.48 233.463 167.533 233.83 167.533C234.189 167.533 234.492 167.486 234.738 167.393C234.984 167.295 235.17 167.146 235.295 166.947C235.424 166.744 235.488 166.486 235.488 166.174C235.488 165.756 235.348 165.436 235.066 165.213C234.785 164.99 234.354 164.879 233.771 164.879C233.549 164.879 233.316 164.9 233.074 164.943C232.836 164.986 232.637 165.029 232.477 165.072L231.756 164.686L232.078 160.32H236.725V161.855H233.666L233.508 163.537C233.641 163.51 233.785 163.482 233.941 163.455C234.098 163.428 234.316 163.414 234.598 163.414Z" fill="#505050"/>
<path d="M286.422 165.248C286.422 164.756 286.457 164.27 286.527 163.789C286.602 163.305 286.729 162.85 286.908 162.424C287.088 161.994 287.34 161.615 287.664 161.287C287.988 160.955 288.4 160.695 288.9 160.508C289.4 160.316 290.006 160.221 290.717 160.221C290.885 160.221 291.08 160.229 291.303 160.244C291.529 160.256 291.717 160.277 291.865 160.309V161.756C291.709 161.721 291.541 161.693 291.361 161.674C291.186 161.65 291.01 161.639 290.834 161.639C290.123 161.639 289.572 161.752 289.182 161.979C288.795 162.205 288.521 162.52 288.361 162.922C288.205 163.32 288.113 163.785 288.086 164.316H288.162C288.271 164.125 288.408 163.955 288.572 163.807C288.74 163.658 288.943 163.541 289.182 163.455C289.42 163.365 289.699 163.32 290.02 163.32C290.52 163.32 290.953 163.428 291.32 163.643C291.688 163.854 291.971 164.16 292.17 164.562C292.369 164.965 292.469 165.455 292.469 166.033C292.469 166.65 292.35 167.182 292.111 167.627C291.873 168.072 291.535 168.414 291.098 168.652C290.664 168.887 290.148 169.004 289.551 169.004C289.113 169.004 288.705 168.93 288.326 168.781C287.947 168.629 287.615 168.398 287.33 168.09C287.045 167.781 286.822 167.393 286.662 166.924C286.502 166.451 286.422 165.893 286.422 165.248ZM289.516 167.557C289.871 167.557 290.16 167.436 290.383 167.193C290.605 166.951 290.717 166.572 290.717 166.057C290.717 165.639 290.619 165.311 290.424 165.072C290.232 164.83 289.941 164.709 289.551 164.709C289.285 164.709 289.051 164.77 288.848 164.891C288.648 165.008 288.494 165.158 288.385 165.342C288.275 165.521 288.221 165.707 288.221 165.898C288.221 166.098 288.248 166.295 288.303 166.49C288.357 166.686 288.439 166.863 288.549 167.023C288.658 167.184 288.793 167.312 288.953 167.41C289.117 167.508 289.305 167.557 289.516 167.557Z" fill="#505050"/>
<path d="M341.33 168.887L344.547 161.844H340.322V160.32H346.469V161.457L343.229 168.887H341.33Z" fill="#505050"/>
<rect y="34.8867" width="40" height="116" rx="10" fill="#0C2172"/>
<rect x="53" y="70.8867" width="40" height="80" rx="10" fill="#FDD105"/>
<rect x="107" y="0.886719" width="40" height="150" rx="10" fill="#0F2F7A"/>
<rect x="160" y="34.8867" width="40" height="116" rx="10" fill="#FDD105"/>
<rect x="213" y="70.8867" width="40" height="80" rx="10" fill="#0C2172"/>
<rect x="267" y="110.887" width="40" height="40" rx="10" fill="#FDD105"/>
<rect x="320" y="34.8867" width="40" height="116" rx="10" fill="#0C2172"/>
</svg>
