<svg width="320" height="286" viewBox="0 0 320 286" fill="none" xmlns="http://www.w3.org/2000/svg">
<path d="M309.239 151.313C310.842 130.014 305.888 107.777 299.251 87.9852C289.431 58.5178 270.257 28.321 238.034 21.347C219.453 17.3389 200.543 21.6356 184.608 31.7038C169.289 41.3873 157.354 53.9005 138.509 56.3214C119.455 58.7743 99.9041 57.7884 80.7541 57.7884C31.5126 57.7884 -8.4465 109.517 1.54128 163.401C11.5291 217.286 58.6303 254.649 98.5895 254.649C134.501 254.649 164.047 233.109 198.155 227.322C215.068 224.452 232.054 227.851 248.791 223.554C268.245 218.552 286.538 206.632 297.319 189.373C304.662 177.606 308.237 164.644 309.239 151.313Z" fill="#0C2172"/>
<path opacity="0.7" d="M309.239 151.313C310.842 130.014 305.888 107.777 299.251 87.9852C289.431 58.5178 270.257 28.321 238.034 21.347C219.453 17.3389 200.543 21.6356 184.608 31.7038C169.289 41.3873 157.354 53.9005 138.509 56.3214C119.455 58.7743 99.9041 57.7884 80.7541 57.7884C31.5126 57.7884 -8.4465 109.517 1.54128 163.401C11.5291 217.286 58.6303 254.649 98.5895 254.649C134.501 254.649 164.047 233.109 198.155 227.322C215.068 224.452 232.054 227.851 248.791 223.554C268.245 218.552 286.538 206.632 297.319 189.373C304.662 177.606 308.237 164.644 309.239 151.313Z" fill="white"/>
<path d="M303.475 143.833C303.475 143.833 303.475 139.825 297.864 134.27C292.253 128.715 288.694 125.493 288.694 125.493C288.694 125.493 285.904 134.663 291.099 140.25C294.912 144.174 299.046 147.772 303.459 151.007L303.475 143.833Z" fill="#FDD105"/>
<path d="M295.379 168.731C295.379 168.731 295.379 164.723 289.768 159.168C284.157 153.613 280.614 150.391 280.614 150.391C280.614 150.391 277.816 159.561 283.019 165.148C286.832 169.072 290.966 172.67 295.379 175.905V168.731Z" fill="#FDD105"/>
<path d="M303.123 150.623C303.123 150.623 303.547 146.663 309.688 141.701C315.828 136.739 319.731 133.95 319.731 133.95C319.731 133.95 321.535 143.36 315.796 148.378C311.59 151.878 307.098 155.021 302.369 157.773L303.123 150.623Z" fill="#FDD105"/>
<path d="M293.343 180.026C293.343 180.026 294.145 176.13 300.806 171.842C307.467 167.553 311.603 165.189 311.603 165.189C311.603 165.189 312.405 174.744 306.177 179.112C301.626 182.152 296.829 184.806 291.836 187.048L293.343 180.026Z" fill="#FDD105"/>
<path d="M295.179 212.09C295.179 212.09 295.179 208.083 300.79 202.52C306.401 196.957 309.952 193.75 309.952 193.75C309.952 193.75 312.75 202.92 307.547 208.499C303.736 212.427 299.601 216.028 295.187 219.265L295.179 212.09Z" fill="#FDD105"/>
<path d="M295.09 219.914C295.09 219.914 295.652 215.97 290.922 209.654C286.193 203.337 283.091 199.666 283.091 199.666C283.091 199.666 279.027 208.347 283.363 214.608C286.578 219.035 290.157 223.186 294.064 227.016L295.09 219.914Z" fill="#FDD105"/>
<path d="M289.583 243.105C289.583 243.105 289.583 239.097 295.195 233.542C300.806 227.987 304.365 224.765 304.365 224.765C304.365 224.765 307.154 233.935 301.96 239.522C298.146 243.447 294.011 247.048 289.6 250.287L289.583 243.105Z" fill="#FDD105"/>
<path d="M293.311 264.131C293.311 264.131 292.301 260.276 296.285 253.462C300.269 246.649 302.938 242.657 302.938 242.657C302.938 242.657 307.956 250.817 304.357 257.534C301.664 262.296 298.578 266.825 295.13 271.073L293.311 264.131Z" fill="#FDD105"/>
<path d="M303.98 142.816C303.699 146.966 303.191 151.098 302.457 155.193C300.245 166.591 294.73 173.95 292.525 184.243C290.321 194.536 296.654 207.802 294.93 221.029C293.207 234.256 288.093 241.607 289.559 250.432C291.026 259.258 298.754 283.162 298.754 283.162" stroke="#263238" stroke-linecap="round" stroke-linejoin="round"/>
<path d="M303.074 153.277L309.086 148.659" stroke="#263238" stroke-linecap="round" stroke-linejoin="round"/>
<path d="M303.355 147.962L300.83 143.481" stroke="#263238" stroke-linecap="round" stroke-linejoin="round"/>
<path d="M292.862 183.77C292.862 183.77 297.896 179.994 303.074 176.219" stroke="#263238" stroke-linecap="round" stroke-linejoin="round"/>
<path d="M295.379 175.906C295.379 175.906 291.179 167.681 286.425 162.231" stroke="#263238" stroke-linecap="round" stroke-linejoin="round"/>
<path d="M295.379 217.766C298.251 212.459 301.88 207.599 306.152 203.338" stroke="#263238" stroke-linecap="round" stroke-linejoin="round"/>
<path d="M294.401 223.361C292.874 219.763 291.048 216.299 288.942 213.005C286.009 208.668 285.584 208.107 285.584 208.107" stroke="#263238" stroke-linecap="round" stroke-linejoin="round"/>
<path d="M289.583 250.432C290.862 247.272 292.378 244.215 294.12 241.286C295.864 238.563 297.829 235.989 299.996 233.59" stroke="#263238" stroke-linecap="round" stroke-linejoin="round"/>
<path d="M295.131 271.073C294.838 268.052 295.359 265.008 296.638 262.256C298.738 258.2 301.11 252.885 302.088 250.785" stroke="#263238" stroke-linecap="round" stroke-linejoin="round"/>
<path d="M257.929 197.101C257.929 197.101 257.496 194.6 260.39 190.487C263.284 186.375 265.199 183.995 265.199 183.995C265.199 183.995 267.941 189.445 265.296 193.501C263.331 196.378 261.13 199.087 258.715 201.597L257.929 197.101Z" fill="#FDD105"/>
<path d="M265.712 211.834C265.712 211.834 265.28 209.333 268.173 205.221C271.067 201.109 272.983 198.728 272.983 198.728C272.983 198.728 275.724 204.179 273.079 208.243C271.113 211.117 268.912 213.822 266.498 216.331L265.712 211.834Z" fill="#FDD105"/>
<path d="M258.883 201.317C258.883 201.317 258.193 198.912 253.801 196.436C249.408 193.959 246.667 192.66 246.667 192.66C246.667 192.66 246.554 198.76 250.674 201.277C253.691 203.014 256.847 204.496 260.109 205.71L258.883 201.317Z" fill="#FDD105"/>
<path d="M268.213 218.696C268.213 218.696 267.267 216.339 262.65 214.368C258.033 212.396 255.147 211.37 255.147 211.37C255.147 211.37 255.676 217.446 260.069 219.514C263.252 220.924 266.548 222.066 269.921 222.929L268.213 218.696Z" fill="#FDD105"/>
<path d="M270.538 239.001C270.538 239.001 270.113 236.5 266.001 233.606C261.889 230.713 259.3 229.101 259.3 229.101C259.3 229.101 258.546 235.153 262.402 238.087C265.218 240.138 268.203 241.948 271.324 243.498L270.538 239.001Z" fill="#FDD105"/>
<path d="M271.452 243.899C271.452 243.899 270.65 241.494 272.951 237.005C275.251 232.516 276.774 229.895 276.774 229.895C276.774 229.895 280.261 234.897 278.225 239.298C276.691 242.422 274.897 245.412 272.863 248.235L271.452 243.899Z" fill="#FDD105"/>
<path d="M278.458 264.059C278.458 264.059 278.746 261.542 282.682 258.448C286.618 255.354 289.095 253.567 289.095 253.567C289.095 253.567 290.193 259.57 286.514 262.721C283.819 264.926 280.944 266.902 277.921 268.628L278.458 264.059Z" fill="#FDD105"/>
<path d="M277.407 257.839C277.407 257.839 276.975 255.338 272.87 252.444C268.766 249.551 266.185 247.939 266.185 247.939C266.185 247.939 265.432 253.991 269.287 256.933C272.106 258.981 275.09 260.791 278.209 262.344L277.407 257.839Z" fill="#FDD105"/>
<path d="M277.407 271.434C277.407 271.434 277.616 268.901 274.377 265.062C271.139 261.222 269.039 259.01 269.039 259.01C269.039 259.01 266.77 264.669 269.76 268.492C271.952 271.185 274.365 273.689 276.975 275.979L277.407 271.434Z" fill="#FDD105"/>
<path d="M257.504 196.508C258.131 199.081 258.899 201.618 259.805 204.107C262.426 211.017 266.682 215.033 269.183 221.245C271.684 227.458 269.183 236.476 271.652 244.58C274.121 252.685 278.209 256.741 278.209 262.432C278.209 268.124 275.997 283.956 275.997 283.956" stroke="#263238" stroke-linecap="round" stroke-linejoin="round"/>
<path d="M259.211 202.969L254.939 200.732" stroke="#263238" stroke-linecap="round" stroke-linejoin="round"/>
<path d="M258.458 199.666L259.548 196.588" stroke="#263238" stroke-linecap="round" stroke-linejoin="round"/>
<path d="M268.919 220.989C268.919 220.989 265.352 219.169 261.705 217.358" stroke="#263238" stroke-linecap="round" stroke-linejoin="round"/>
<path d="M266.49 216.331C267.541 213.029 268.925 209.841 270.618 206.816" stroke="#263238" stroke-linecap="round" stroke-linejoin="round"/>
<path d="M271.035 242.576C268.656 239.566 265.854 236.918 262.714 234.713" stroke="#263238" stroke-linecap="round" stroke-linejoin="round"/>
<path d="M272.253 245.975C272.824 243.556 273.593 241.189 274.554 238.897C275.925 235.859 276.157 235.458 276.157 235.458" stroke="#263238" stroke-linecap="round" stroke-linejoin="round"/>
<path d="M278.017 266.753C279.407 265.031 280.947 263.435 282.618 261.984C283.681 261.201 284.678 260.332 285.6 259.386" stroke="#263238" stroke-linecap="round" stroke-linejoin="round"/>
<path d="M278.209 262.432C277.064 260.585 275.78 258.827 274.37 257.174C272.98 255.657 271.468 254.258 269.849 252.99" stroke="#263238" stroke-linecap="round" stroke-linejoin="round"/>
<path d="M276.975 275.979C276.831 274.052 276.175 272.198 275.075 270.609C273.319 268.292 271.251 265.214 270.41 264.004" stroke="#263238" stroke-linecap="round" stroke-linejoin="round"/>
<path d="M30.2541 162.183L26.7432 152.154L30.2541 156.411L27.4967 141.365L31.7611 152.154L33.2681 131.08L35.7771 151.144L38.5345 147.136V152.154L41.797 145.381L40.0415 157.165L43.0475 155.16L38.2861 161.678L30.2541 162.183Z" fill="#FDD105"/>
<path d="M41.2918 159.674H28.25L30.5987 186.006H38.9432L41.2918 159.674Z" fill="#263238" stroke="#263238" stroke-linecap="round" stroke-linejoin="round"/>
<path d="M65.7565 185.71H21.3245V279.82H65.7565V185.71Z" fill="white" stroke="#263238" stroke-linecap="round" stroke-linejoin="round"/>
<path d="M68.1852 185.71H43.5364V279.82H68.1852V185.71Z" fill="white" stroke="#263238" stroke-linecap="round" stroke-linejoin="round"/>
<path d="M65.4117 185.71H43.5364V279.82H65.4117V185.71Z" fill="#263238" stroke="#263238" stroke-linecap="round" stroke-linejoin="round"/>
<path d="M62.9508 257.935H43.5364V277.206H62.9508V257.935Z" fill="#FDD105" stroke="#263238" stroke-linecap="round" stroke-linejoin="round"/>
<path d="M62.9508 258.978H43.5364V261.447H62.9508V258.978Z" fill="white" stroke="#263238" stroke-linecap="round" stroke-linejoin="round"/>
<path d="M62.9508 273.166H43.5364V275.635H62.9508V273.166Z" fill="white" stroke="#263238" stroke-linecap="round" stroke-linejoin="round"/>
<path d="M47.2158 258.336V282.705" stroke="#263238" stroke-linecap="round" stroke-linejoin="round"/>
<path d="M53.9893 258.336V282.705" stroke="#263238" stroke-linecap="round" stroke-linejoin="round"/>
<path d="M59.9368 258.336V282.705" stroke="#263238" stroke-linecap="round" stroke-linejoin="round"/>
<path d="M62.9508 189.205H43.5364V217.541H62.9508V189.205Z" fill="#FDD105" stroke="#263238" stroke-linecap="round" stroke-linejoin="round"/>
<path d="M62.9508 190.391H43.5364V193.197H62.9508V190.391Z" fill="white" stroke="#263238" stroke-linecap="round" stroke-linejoin="round"/>
<path d="M62.9508 208.556H43.5364V211.362H62.9508V208.556Z" fill="white" stroke="#263238" stroke-linecap="round" stroke-linejoin="round"/>
<path d="M47.2158 189.654V217.349" stroke="#263238" stroke-linecap="round" stroke-linejoin="round"/>
<path d="M53.9893 189.654V217.349" stroke="#263238" stroke-linecap="round" stroke-linejoin="round"/>
<path d="M59.9368 189.654V217.349" stroke="#263238" stroke-linecap="round" stroke-linejoin="round"/>
<path d="M62.9508 223.354H43.5364V251.69H62.9508V223.354Z" fill="#FDD105" stroke="#263238" stroke-linecap="round" stroke-linejoin="round"/>
<path d="M62.9508 224.54H43.5364V227.346H62.9508V224.54Z" fill="white" stroke="#263238" stroke-linecap="round" stroke-linejoin="round"/>
<path d="M62.9508 242.705H43.5364V245.51H62.9508V242.705Z" fill="white" stroke="#263238" stroke-linecap="round" stroke-linejoin="round"/>
<path d="M47.2158 223.811V251.498" stroke="#263238" stroke-linecap="round" stroke-linejoin="round"/>
<path d="M53.9893 223.811V251.498" stroke="#263238" stroke-linecap="round" stroke-linejoin="round"/>
<path d="M59.9368 223.811V251.498" stroke="#263238" stroke-linecap="round" stroke-linejoin="round"/>
<path d="M65.7484 217.149H43.5364V220.372H65.7484V217.149Z" fill="white" stroke="#263238" stroke-linecap="round" stroke-linejoin="round"/>
<path d="M65.7484 251.515H43.5364V254.737H65.7484V251.515Z" fill="white" stroke="#263238" stroke-linecap="round" stroke-linejoin="round"/>
<path d="M65.7483 185.71V279.812" stroke="#263238" stroke-linecap="round" stroke-linejoin="round"/>
<path d="M40.4023 185.71V279.812H43.5365V189.205H65.3638V185.67L40.4023 185.71Z" fill="white" stroke="#263238" stroke-linecap="round" stroke-linejoin="round"/>
<path d="M43.5364 189.205V185.71" stroke="#263238" stroke-linecap="round" stroke-linejoin="round"/>
<path d="M65.5802 142.478C63.2475 137.981 62.2696 134.759 62.2696 134.013C62.2696 132.538 65.4759 131.657 65.4759 131.657C70.4778 129.011 94.0044 132.835 104.593 134.598C110.521 135.632 116.518 136.221 122.533 136.362C122.533 136.362 124 135.192 125.739 133.717C127.479 132.242 135.735 122.543 138.973 121.693C142.212 120.843 145.146 122.871 145.146 122.871C145.146 122.871 150.444 126.078 149.554 126.695C148.665 127.312 135.735 138.454 132.497 140.514C129.258 142.574 122.501 141.692 116.617 142.871C111.551 143.881 91.0305 145.131 86.3252 145.516C82.7915 146.354 79.0827 146.045 75.7363 144.634" fill="white"/>
<mask id="mask0_1_133" style="mask-type:luminance" maskUnits="userSpaceOnUse" x="62" y="121" width="88" height="25">
<path d="M65.5802 142.478C63.2475 137.981 62.2696 134.759 62.2696 134.013C62.2696 132.538 65.4759 131.657 65.4759 131.657C70.4778 129.011 94.0044 132.835 104.593 134.598C110.521 135.632 116.518 136.221 122.533 136.362C122.533 136.362 124 135.192 125.739 133.717C127.479 132.242 135.735 122.543 138.973 121.693C142.212 120.843 145.146 122.871 145.146 122.871C145.146 122.871 150.444 126.078 149.554 126.695C148.665 127.312 135.735 138.454 132.497 140.514C129.258 142.574 122.501 141.692 116.617 142.871C111.551 143.881 91.0305 145.131 86.3252 145.516C82.7915 146.354 79.0827 146.045 75.7363 144.634" fill="white"/>
</mask>
<g mask="url(#mask0_1_133)">
<path d="M145.202 122.839C145.202 122.839 142.26 120.779 139.03 121.661C135.799 122.543 127.559 132.25 125.795 133.685C124.032 135.12 122.589 136.33 122.589 136.33C116.574 136.189 110.577 135.6 104.65 134.567C94.0606 132.803 70.534 128.955 65.5321 131.625C65.5321 131.625 62.3257 132.507 62.3257 133.981C62.4371 134.806 62.6498 135.614 62.959 136.386L63.3999 136.547C63.3999 136.547 69.2755 135.929 81.9566 136.234C94.6377 136.538 123.968 138.278 125.852 138.959C126.653 139.264 132.336 137.981 138.637 135.753C143.446 131.833 149.098 126.935 149.667 126.591C150.5 126.07 145.202 122.839 145.202 122.839Z" fill="#0C2172"/>
<path opacity="0.5" d="M145.202 122.839C145.202 122.839 142.26 120.779 139.03 121.661C135.799 122.543 127.559 132.25 125.795 133.685C124.032 135.12 122.589 136.33 122.589 136.33C116.574 136.189 110.577 135.6 104.65 134.567C94.0606 132.803 70.534 128.955 65.5321 131.625C65.5321 131.625 62.3257 132.507 62.3257 133.981C62.4371 134.806 62.6498 135.614 62.959 136.386L63.3999 136.547C63.3999 136.547 69.2755 135.929 81.9566 136.234C94.6377 136.538 123.968 138.278 125.852 138.959C126.653 139.264 132.336 137.981 138.637 135.753C143.446 131.833 149.098 126.935 149.667 126.591C150.5 126.07 145.202 122.839 145.202 122.839Z" fill="white"/>
</g>
<path d="M65.5802 142.478C63.2475 137.981 62.2696 134.759 62.2696 134.013C62.2696 132.538 65.4759 131.657 65.4759 131.657C70.4778 129.011 94.0044 132.835 104.593 134.598C110.521 135.632 116.518 136.221 122.533 136.362C122.533 136.362 124 135.192 125.739 133.717C127.479 132.242 135.735 122.543 138.973 121.693C142.212 120.843 145.146 122.871 145.146 122.871C145.146 122.871 150.444 126.078 149.554 126.695C148.665 127.312 135.735 138.454 132.497 140.514C129.258 142.574 122.501 141.692 116.617 142.871C111.551 143.881 91.0305 145.131 86.3252 145.516C82.7915 146.354 79.0827 146.045 75.7363 144.634" stroke="#263238" stroke-linecap="round" stroke-linejoin="round"/>
<path d="M181.738 168.628C182.27 167.618 183.068 166.772 184.046 166.183C185.023 165.594 186.144 165.283 187.285 165.285H240.751C240.751 165.285 244.615 165.285 243.46 172.628C242.306 179.97 226.451 224.805 222.619 238.36C218.787 251.915 217.978 280.485 217.978 280.485H153.851C153.851 280.485 158.933 212.163 181.738 168.628Z" fill="white"/>
<mask id="mask1_1_133" style="mask-type:luminance" maskUnits="userSpaceOnUse" x="153" y="165" width="91" height="116">
<path d="M181.738 168.628C182.27 167.618 183.068 166.772 184.046 166.183C185.023 165.594 186.144 165.283 187.285 165.285H240.751C240.751 165.285 244.615 165.285 243.46 172.628C242.306 179.97 226.451 224.805 222.619 238.36C218.787 251.915 217.978 280.485 217.978 280.485H153.851C153.851 280.485 158.933 212.163 181.738 168.628Z" fill="white"/>
</mask>
<g mask="url(#mask1_1_133)">
<path opacity="0.16" d="M205.818 165.285H187.285C186.144 165.283 185.023 165.594 184.046 166.183C183.068 166.772 182.27 167.618 181.738 168.628C158.933 212.163 153.795 280.461 153.795 280.461H182.556L189.65 253.519L219.228 259.619C219.437 257.358 219.677 255.058 219.958 252.789L219.308 245.575C219.308 245.575 213.248 239.202 211.341 237.607C209.433 236.011 210.699 233.134 210.379 220.7C210.058 208.267 198.9 199.329 194.748 191.674C190.596 184.019 196.984 179.233 202.724 171.578C204.768 168.812 205.601 166.776 205.818 165.285Z" fill="black"/>
</g>
<path d="M181.738 168.628C182.27 167.618 183.068 166.772 184.046 166.183C185.023 165.594 186.144 165.283 187.285 165.285H240.751C240.751 165.285 244.615 165.285 243.46 172.628C242.306 179.97 226.451 224.805 222.619 238.36C218.787 251.915 217.978 280.485 217.978 280.485H153.851C153.851 280.485 158.933 212.163 181.738 168.628Z" stroke="#263238" stroke-linecap="round" stroke-linejoin="round"/>
<path d="M231.477 178.039C226.074 190.648 214.643 240.564 212.784 280.461H217.946C217.946 280.461 218.747 251.859 222.587 238.336C226.427 224.813 242.298 179.97 243.428 172.604C244.559 165.237 240.719 165.261 240.719 165.261C240.719 165.261 235.813 167.93 231.477 178.039Z" fill="#263238" stroke="#263238" stroke-linecap="round" stroke-linejoin="round"/>
<path d="M137.555 152.836C137.555 152.836 129.026 147.834 125.795 139.016C122.565 130.198 151.085 116.074 163.47 115.192C175.854 114.31 179.349 117.541 186.716 130.19C194.083 142.84 199.068 160.187 195.245 168.716C191.421 177.245 184.952 179.305 189.634 186.351C194.315 193.397 207.573 213.406 206.692 222.817C205.81 232.228 196.696 240.452 183.446 241.35C170.195 242.248 152.56 234.288 137.859 221.31C123.158 208.332 126.974 189.245 132.248 183.073C137.523 176.9 145.482 174.544 146.067 168.371C146.653 162.199 137.555 152.836 137.555 152.836Z" fill="#263238" stroke="#263238" stroke-linecap="round" stroke-linejoin="round"/>
<path d="M173.907 138.88C178.436 147.313 184.103 158.607 185.874 165.429C188.969 177.373 173.049 184.892 177.466 190.64" stroke="white" stroke-linecap="round" stroke-linejoin="round"/>
<path d="M167.734 127.833C167.734 127.833 169.498 130.839 171.935 135.264" stroke="white" stroke-linecap="round" stroke-linejoin="round"/>
<path d="M191.493 149.052C192.016 150.633 192.355 152.268 192.503 153.926" stroke="white" stroke-linecap="round" stroke-linejoin="round"/>
<path d="M170.796 123.449C170.796 123.449 184.728 133.741 190.291 146.061" stroke="white" stroke-linecap="round" stroke-linejoin="round"/>
<path d="M151.462 131.168C141.515 133.958 127.206 138.487 128.369 141.1" stroke="white" stroke-linecap="round" stroke-linejoin="round"/>
<path d="M160.656 128.715C160.656 128.715 158.532 129.244 155.366 130.094" stroke="white" stroke-linecap="round" stroke-linejoin="round"/>
<path d="M148.352 123.52C154.05 121.725 160.018 120.938 165.987 121.196" stroke="white" stroke-linecap="round" stroke-linejoin="round"/>
<path d="M144.296 125.18C145.197 124.711 146.129 124.304 147.086 123.962" stroke="white" stroke-linecap="round" stroke-linejoin="round"/>
<path d="M65.5801 142.479C64.2301 140.007 63.1549 137.394 62.3738 134.687C63.1511 137.395 64.2265 140.008 65.5801 142.479ZM62.2856 134.23C62.2856 134.278 62.2856 134.335 62.2856 134.407C62.3016 134.335 62.2936 134.278 62.2856 134.23ZM65.5801 142.471C68.578 148.149 72.3078 153.41 76.6741 158.118C87.2631 169.59 117.852 199.594 120.761 201.654C123.671 203.714 122.821 209.59 120.761 215.474C118.701 221.358 111.054 229.903 111.351 239.298C111.647 248.693 114.557 263.122 114.293 266.064C114.028 269.006 106.669 279.01 106.669 279.01H182.548C182.548 279.01 173.089 266.986 173.089 262.873C173.089 258.761 186.075 206.071 186.66 202.247C187.245 198.424 184.896 195.778 180.191 195.482C175.486 195.185 157.546 191.361 156.664 188.419C155.783 185.478 161.37 174.303 161.37 174.303L143.735 175.185C143.735 175.185 142.853 182.832 141.675 184.307C140.496 185.782 138.733 182.832 134.613 180.78C130.493 178.728 122.589 176.956 119.615 174.6C116.641 172.243 88.4414 145.742 88.4414 145.742" fill="white"/>
<mask id="mask2_1_133" style="mask-type:luminance" maskUnits="userSpaceOnUse" x="62" y="134" width="125" height="146">
<path d="M65.5801 142.479C64.2301 140.007 63.1549 137.394 62.3738 134.687C63.1511 137.395 64.2265 140.008 65.5801 142.479ZM62.2856 134.23C62.2856 134.278 62.2856 134.335 62.2856 134.407C62.3016 134.335 62.2936 134.278 62.2856 134.23ZM65.5801 142.471C68.578 148.149 72.3078 153.41 76.6741 158.118C87.2631 169.59 117.852 199.594 120.761 201.654C123.671 203.714 122.821 209.59 120.761 215.474C118.701 221.358 111.054 229.903 111.351 239.298C111.647 248.693 114.557 263.122 114.293 266.064C114.028 269.006 106.669 279.01 106.669 279.01H182.548C182.548 279.01 173.089 266.986 173.089 262.873C173.089 258.761 186.075 206.071 186.66 202.247C187.245 198.424 184.896 195.778 180.191 195.482C175.486 195.185 157.546 191.361 156.664 188.419C155.783 185.478 161.37 174.303 161.37 174.303L143.735 175.185C143.735 175.185 142.853 182.832 141.675 184.307C140.496 185.782 138.733 182.832 134.613 180.78C130.493 178.728 122.589 176.956 119.615 174.6C116.641 172.243 88.4414 145.742 88.4414 145.742" fill="white"/>
</mask>
<g mask="url(#mask2_1_133)">
<path d="M124.12 176.868C125.587 179.433 127.054 181.75 127.054 181.75C127.054 181.75 132 184.531 133.234 184.531C134.469 184.531 141.891 188.539 141.891 188.539C141.891 188.539 148.08 186.992 145.899 181.734C145.211 180.388 144.343 179.142 143.318 178.03C142.949 180.363 142.356 183.417 141.659 184.291C140.481 185.758 138.717 182.816 134.597 180.764C131.928 179.433 127.607 178.215 124.12 176.868Z" fill="#0C2172"/>
<path d="M109.018 164.964C99.9362 156.555 88.4414 145.774 88.4414 145.774L81.7562 144.812L80.9546 145.261C80.9546 145.261 99.824 161.958 103.84 163.817C105.465 164.564 107.23 164.955 109.018 164.964Z" fill="#0C2172"/>
<path d="M118.533 173.67L117.812 173.029C118.18 173.638 118.389 174.022 118.389 174.022L118.533 173.67Z" fill="#0C2172"/>
<g opacity="0.5">
<path d="M124.12 176.868C125.587 179.433 127.054 181.75 127.054 181.75C127.054 181.75 132 184.531 133.234 184.531C134.469 184.531 141.891 188.539 141.891 188.539C141.891 188.539 148.08 186.992 145.899 181.734C145.211 180.388 144.343 179.142 143.318 178.03C142.949 180.363 142.356 183.417 141.659 184.291C140.481 185.758 138.717 182.816 134.597 180.764C131.928 179.433 127.607 178.215 124.12 176.868Z" fill="white"/>
<path d="M109.018 164.964C99.9362 156.555 88.4414 145.774 88.4414 145.774L81.7562 144.812L80.9546 145.261C80.9546 145.261 99.824 161.958 103.84 163.817C105.465 164.564 107.23 164.955 109.018 164.964Z" fill="white"/>
<path d="M118.533 173.67L117.812 173.029C118.18 173.638 118.389 174.022 118.389 174.022L118.533 173.67Z" fill="white"/>
</g>
</g>
<path d="M62.2696 134.014C62.2659 134.07 62.2659 134.126 62.2696 134.182M62.3738 134.687C63.1549 137.394 64.2301 140.007 65.5801 142.479C64.2265 140.008 63.1511 137.395 62.3738 134.687ZM62.3738 134.687C62.3517 134.611 62.3356 134.533 62.3257 134.455M65.5801 142.471C68.578 148.149 72.3078 153.41 76.6741 158.118C87.2631 169.59 117.852 199.594 120.761 201.654C123.671 203.714 122.821 209.59 120.761 215.474C118.701 221.358 111.054 229.903 111.351 239.298C111.647 248.693 114.557 263.122 114.293 266.064C114.028 269.006 106.669 279.01 106.669 279.01H182.548C182.548 279.01 173.089 266.986 173.089 262.873C173.089 258.761 186.075 206.071 186.66 202.247C187.245 198.424 184.896 195.778 180.191 195.482C175.486 195.185 157.546 191.361 156.664 188.419C155.783 185.478 161.37 174.303 161.37 174.303L143.735 175.185C143.735 175.185 142.853 182.832 141.675 184.307C140.496 185.782 138.733 182.832 134.613 180.78C130.493 178.728 122.589 176.956 119.615 174.6C116.641 172.243 88.4414 145.742 88.4414 145.742M62.2856 134.23C62.2856 134.278 62.2856 134.335 62.2856 134.407C62.3016 134.335 62.2936 134.278 62.2856 134.23Z" stroke="#263238" stroke-linecap="round" stroke-linejoin="round"/>
<path d="M88.4414 145.773C88.4414 145.773 79.0468 145.95 73.8044 141.629" stroke="#263238" stroke-linecap="round" stroke-linejoin="round"/>
<path d="M156.672 188.42C155.791 185.486 161.378 174.303 161.378 174.303L143.743 175.185C143.743 175.185 142.861 182.832 141.683 184.307C140.504 185.782 138.741 182.832 134.621 180.78C134.308 180.62 133.963 180.468 133.611 180.315L132.545 197.077C132.545 197.077 134.092 213.31 152.64 210.223C160.151 208.973 168.167 202.271 175.085 194.736C167.967 193.43 157.346 190.672 156.672 188.42Z" fill="white"/>
<mask id="mask3_1_133" style="mask-type:luminance" maskUnits="userSpaceOnUse" x="132" y="174" width="44" height="37">
<path d="M156.672 188.42C155.791 185.486 161.378 174.303 161.378 174.303L143.743 175.185C143.743 175.185 142.861 182.832 141.683 184.307C140.504 185.782 138.741 182.832 134.621 180.78C134.308 180.62 133.963 180.468 133.611 180.315L132.545 197.077C132.545 197.077 134.092 213.31 152.64 210.223C160.151 208.973 168.167 202.271 175.085 194.736C167.967 193.43 157.346 190.672 156.672 188.42Z" fill="white"/>
</mask>
<g mask="url(#mask3_1_133)">
<path d="M156.175 176.523C156.175 176.523 155.109 182.503 154.252 189.116C153.394 195.73 152.761 200.651 152.761 200.651L156.672 188.419L161.081 175.457C161.081 175.457 156.817 175.457 156.175 176.523Z" fill="#0C2172"/>
<path opacity="0.5" d="M156.175 176.523C156.175 176.523 155.109 182.503 154.252 189.116C153.394 195.73 152.761 200.651 152.761 200.651L156.672 188.419L161.081 175.457C161.081 175.457 156.817 175.457 156.175 176.523Z" fill="white"/>
</g>
<path d="M156.672 188.42C155.791 185.486 161.378 174.303 161.378 174.303L143.743 175.185C143.743 175.185 142.861 182.832 141.683 184.307C140.504 185.782 138.741 182.832 134.621 180.78C134.308 180.62 133.963 180.468 133.611 180.315L132.545 197.077C132.545 197.077 134.092 213.31 152.64 210.223C160.151 208.973 168.167 202.271 175.085 194.736C167.967 193.43 157.346 190.672 156.672 188.42Z" stroke="#263238" stroke-linecap="round" stroke-linejoin="round"/>
<path d="M141.675 184.307C140.496 185.774 138.733 182.832 134.613 180.78C132.016 179.473 127.879 178.287 124.457 177.004C123.487 174.704 122.204 171.706 121.379 169.894C119.912 166.688 117.555 168.716 117.555 168.716C116.325 167.317 115.332 165.728 114.613 164.01C113.146 160.804 110.79 161.068 107.559 160.483C104.329 159.898 97.5554 153.718 97.5554 153.718C97.5554 153.718 94.3891 151.313 93.0825 150.118C91.5595 153.116 87.9123 158.391 80.0247 161.686C92.6016 174.824 118.116 199.786 120.793 201.662C123.735 203.714 122.853 209.598 120.793 215.482C118.733 221.366 111.086 229.911 111.383 239.306C111.679 248.701 114.589 263.13 114.325 266.072C114.06 268.693 108.192 276.91 106.918 278.673L109.908 279.01H125.475C125.386 271.122 125.395 238.929 130.789 226.103C136.969 211.362 141.675 184.307 141.675 184.307Z" fill="#0C2172"/>
<mask id="mask4_1_133" style="mask-type:luminance" maskUnits="userSpaceOnUse" x="80" y="150" width="62" height="130">
<path d="M141.675 184.307C140.496 185.774 138.733 182.832 134.613 180.78C132.016 179.473 127.879 178.287 124.457 177.004C123.487 174.704 122.204 171.706 121.379 169.894C119.912 166.688 117.555 168.716 117.555 168.716C116.325 167.317 115.332 165.728 114.613 164.01C113.146 160.804 110.79 161.068 107.559 160.483C104.329 159.898 97.5554 153.718 97.5554 153.718C97.5554 153.718 94.3891 151.313 93.0825 150.118C91.5595 153.116 87.9123 158.391 80.0247 161.686C92.6016 174.824 118.116 199.786 120.793 201.662C123.735 203.714 122.853 209.598 120.793 215.482C118.733 221.366 111.086 229.911 111.383 239.306C111.679 248.701 114.589 263.13 114.325 266.072C114.06 268.693 108.192 276.91 106.918 278.673L109.908 279.01H125.475C125.386 271.122 125.395 238.929 130.789 226.103C136.969 211.362 141.675 184.307 141.675 184.307Z" fill="white"/>
</mask>
<g mask="url(#mask4_1_133)">
<path opacity="0.16" d="M134.613 180.78C132.016 179.473 127.879 178.287 124.457 177.004C123.487 174.704 122.204 171.706 121.378 169.894C119.912 166.688 117.555 168.716 117.555 168.716C116.325 167.317 115.332 165.728 114.613 164.01C113.146 160.804 110.79 161.068 107.559 160.483C104.329 159.898 97.5553 153.718 97.5553 153.718C97.5553 153.718 94.389 151.313 93.0825 150.118C92.4305 151.391 91.6545 152.597 90.7659 153.718C96.0243 158.167 101.828 162.88 103.856 163.818C107.864 165.67 108.802 164.123 111.872 165.982C114.942 167.842 118.365 173.998 118.365 173.998C118.365 173.998 120.224 169.044 121.771 172.451C123.318 175.858 127.03 181.726 127.03 181.726C127.03 181.726 131.975 184.508 133.21 184.508C134.18 184.508 138.933 186.977 140.953 188.043C141.402 185.694 141.651 184.283 141.651 184.283C140.496 185.774 138.733 182.832 134.613 180.78Z" fill="black"/>
</g>
<path d="M141.675 184.307C140.496 185.774 138.733 182.832 134.613 180.78C132.016 179.473 127.879 178.287 124.457 177.004C123.487 174.704 122.204 171.706 121.379 169.894C119.912 166.688 117.555 168.716 117.555 168.716C116.325 167.317 115.332 165.728 114.613 164.01C113.146 160.804 110.79 161.068 107.559 160.483C104.329 159.898 97.5554 153.718 97.5554 153.718C97.5554 153.718 94.3891 151.313 93.0825 150.118C91.5595 153.116 87.9123 158.391 80.0247 161.686C92.6016 174.824 118.116 199.786 120.793 201.662C123.735 203.714 122.853 209.598 120.793 215.482C118.733 221.366 111.086 229.911 111.383 239.306C111.679 248.701 114.589 263.13 114.325 266.072C114.06 268.693 108.192 276.91 106.918 278.673L109.908 279.01H125.475C125.386 271.122 125.394 238.929 130.789 226.103C136.969 211.362 141.675 184.307 141.675 184.307Z" stroke="#263238" stroke-linecap="round" stroke-linejoin="round"/>
<path d="M141.883 183.281C141.883 183.281 138.228 182.159 135.976 184.131C133.723 186.103 130.364 196.219 128.385 207.193C127.164 213.582 128.006 220.193 130.789 226.071C130.789 226.071 135.414 213.943 136.817 208.035C138.22 202.127 141.883 183.281 141.883 183.281Z" fill="#0C2172"/>
<mask id="mask5_1_133" style="mask-type:luminance" maskUnits="userSpaceOnUse" x="127" y="182" width="15" height="45">
<path d="M141.883 183.281C141.883 183.281 138.228 182.159 135.976 184.131C133.723 186.103 130.364 196.219 128.385 207.193C127.164 213.582 128.006 220.193 130.789 226.071C130.789 226.071 135.414 213.943 136.817 208.035C138.22 202.127 141.883 183.281 141.883 183.281Z" fill="white"/>
</mask>
<g mask="url(#mask5_1_133)">
<path opacity="0.16" d="M134.869 185.069C134.869 185.069 137.515 184.427 138.605 184.796C139.523 185.19 140.381 185.711 141.154 186.343L141.883 183.281C140.789 182.722 139.548 182.517 138.332 182.696C136.513 183.065 134.869 185.069 134.869 185.069Z" fill="black"/>
</g>
<path d="M141.883 183.281C141.883 183.281 138.228 182.159 135.976 184.131C133.723 186.103 130.364 196.219 128.385 207.193C127.164 213.582 128.006 220.193 130.789 226.071C130.789 226.071 135.414 213.943 136.817 208.035C138.22 202.127 141.883 183.281 141.883 183.281Z" stroke="#263238" stroke-linecap="round" stroke-linejoin="round"/>
<path d="M117.266 184.243L121.972 203.361L111.383 179.241" stroke="#263238" stroke-linecap="round" stroke-linejoin="round"/>
<path d="M148.264 279.01H182.556C182.556 279.01 173.097 266.986 173.097 262.873C173.097 258.761 186.083 206.071 186.668 202.247C187.253 198.424 184.904 195.778 180.199 195.482C175.494 195.185 157.554 191.361 156.673 188.419C156.673 188.419 149.907 212.243 147.559 228.42C145.539 242.296 147.631 271.09 148.264 279.01Z" fill="#0C2172"/>
<mask id="mask6_1_133" style="mask-type:luminance" maskUnits="userSpaceOnUse" x="146" y="188" width="41" height="92">
<path d="M148.264 279.01H182.556C182.556 279.01 173.097 266.986 173.097 262.873C173.097 258.761 186.083 206.071 186.668 202.247C187.253 198.424 184.904 195.778 180.199 195.482C175.494 195.185 157.554 191.361 156.673 188.419C156.673 188.419 149.907 212.243 147.559 228.42C145.539 242.296 147.631 271.09 148.264 279.01Z" fill="white"/>
</mask>
<g mask="url(#mask6_1_133)">
<path opacity="0.16" d="M180.199 195.481C176.343 195.241 163.606 192.628 158.644 190.079L160.448 194.247C163.716 195.981 167.23 197.203 170.869 197.87C176.84 198.936 182.395 198.728 186.027 204.067L186.203 204.331C186.427 203.305 186.58 202.584 186.628 202.247C187.261 198.423 184.904 195.778 180.199 195.481Z" fill="black"/>
</g>
<path d="M148.264 279.01H182.556C182.556 279.01 173.097 266.986 173.097 262.873C173.097 258.761 186.083 206.071 186.668 202.247C187.253 198.424 184.904 195.778 180.199 195.482C175.494 195.185 157.554 191.361 156.673 188.419C156.673 188.419 149.907 212.243 147.559 228.42C145.539 242.296 147.631 271.09 148.264 279.01Z" stroke="#263238" stroke-linecap="round" stroke-linejoin="round"/>
<path d="M156.672 188.419C156.672 188.419 147.598 217.278 147.558 228.42C147.558 228.42 160.448 212.813 162.131 201.846C163.815 190.88 156.672 188.419 156.672 188.419Z" fill="#0C2172"/>
<mask id="mask7_1_133" style="mask-type:luminance" maskUnits="userSpaceOnUse" x="147" y="188" width="16" height="41">
<path d="M156.672 188.419C156.672 188.419 147.598 217.278 147.558 228.42C147.558 228.42 160.448 212.813 162.131 201.846C163.815 190.88 156.672 188.419 156.672 188.419Z" fill="white"/>
</mask>
<g mask="url(#mask7_1_133)">
<path opacity="0.16" d="M155.109 192.107C156.473 192.061 157.827 192.348 159.054 192.943C160.282 193.538 161.346 194.423 162.155 195.522C162.155 195.522 160.376 190.287 156.672 188.419L155.109 192.107Z" fill="black"/>
</g>
<path d="M156.672 188.419C156.672 188.419 147.598 217.278 147.558 228.42C147.558 228.42 160.448 212.813 162.131 201.846C163.815 190.88 156.672 188.419 156.672 188.419Z" stroke="#263238" stroke-linecap="round" stroke-linejoin="round"/>
<path d="M253.544 273.583C253.544 273.583 260.189 273.855 264.542 274.481C267.445 274.874 270.367 275.107 273.295 275.178C273.295 275.178 270.891 270.32 268.325 268.95C265.76 267.579 261.111 265.126 257.215 265.671C253.32 266.216 247.749 270.144 248.214 271.394C248.679 272.645 250.755 273.206 253.544 273.583Z" fill="white"/>
<mask id="mask8_1_133" style="mask-type:luminance" maskUnits="userSpaceOnUse" x="248" y="265" width="26" height="11">
<path d="M253.544 273.583C253.544 273.583 260.189 273.855 264.542 274.481C267.445 274.874 270.367 275.107 273.295 275.178C273.295 275.178 270.891 270.32 268.325 268.95C265.76 267.579 261.111 265.126 257.215 265.671C253.32 266.216 247.749 270.144 248.214 271.394C248.679 272.645 250.755 273.206 253.544 273.583Z" fill="white"/>
</mask>
<g mask="url(#mask8_1_133)">
<path d="M253.544 273.583C253.544 273.583 260.189 273.855 264.542 274.481C267.445 274.874 270.367 275.107 273.295 275.178C273.295 275.178 270.891 270.32 268.325 268.95C265.76 267.579 261.111 265.126 257.215 265.671C253.32 266.216 247.749 270.144 248.214 271.394C248.679 272.645 250.755 273.206 253.544 273.583Z" fill="#0C2172"/>
<path opacity="0.5" d="M253.544 273.583C253.544 273.583 260.189 273.855 264.542 274.481C267.445 274.874 270.367 275.107 273.295 275.178C273.295 275.178 270.891 270.32 268.325 268.95C265.76 267.579 261.111 265.126 257.215 265.671C253.32 266.216 247.749 270.144 248.214 271.394C248.679 272.645 250.755 273.206 253.544 273.583Z" fill="white"/>
</g>
<path d="M253.544 273.583C253.544 273.583 260.189 273.855 264.542 274.481C267.445 274.874 270.367 275.107 273.295 275.178C273.295 275.178 270.891 270.32 268.325 268.95C265.76 267.579 261.111 265.126 257.215 265.671C253.32 266.216 247.749 270.144 248.214 271.394C248.679 272.645 250.755 273.206 253.544 273.583Z" stroke="#263238" stroke-linecap="round" stroke-linejoin="round"/>
<path d="M264.582 271.595C264.582 271.595 269.848 268.861 271.163 268.902C272.478 268.942 281.215 274.849 280.782 275.795C280.488 276.234 280.064 276.569 279.569 276.753C279.074 276.937 278.534 276.961 278.025 276.821C277.055 276.364 271.171 273.863 271.171 273.863L267.323 274.769L264.582 271.595Z" fill="white"/>
<mask id="mask9_1_133" style="mask-type:luminance" maskUnits="userSpaceOnUse" x="264" y="268" width="17" height="9">
<path d="M264.582 271.595C264.582 271.595 269.848 268.861 271.163 268.902C272.478 268.942 281.215 274.849 280.782 275.795C280.488 276.234 280.064 276.569 279.569 276.753C279.074 276.937 278.534 276.961 278.025 276.821C277.055 276.364 271.171 273.863 271.171 273.863L267.323 274.769L264.582 271.595Z" fill="white"/>
</mask>
<g mask="url(#mask9_1_133)">
<path d="M264.582 271.595C264.582 271.595 269.848 268.861 271.163 268.902C272.478 268.942 281.215 274.849 280.782 275.795C280.349 276.741 278.281 277.511 278.025 276.821C277.768 276.132 271.171 273.863 271.171 273.863L267.323 274.769L264.582 271.595Z" fill="#0C2172"/>
<path opacity="0.5" d="M264.582 271.595C264.582 271.595 269.848 268.861 271.163 268.902C272.478 268.942 281.215 274.849 280.782 275.795C280.349 276.741 278.281 277.511 278.025 276.821C277.768 276.132 271.171 273.863 271.171 273.863L267.323 274.769L264.582 271.595Z" fill="white"/>
</g>
<path d="M264.582 271.595C264.582 271.595 269.848 268.861 271.163 268.902C272.478 268.942 281.215 274.849 280.782 275.795C280.488 276.234 280.064 276.569 279.569 276.753C279.074 276.937 278.534 276.961 278.025 276.821C277.055 276.364 271.171 273.863 271.171 273.863L267.323 274.769L264.582 271.595Z" stroke="#263238" stroke-linecap="round" stroke-linejoin="round"/>
<path d="M260.823 267.098C260.823 267.098 267.845 266.873 269.239 267.579C270.634 268.284 276.935 279.09 275.989 279.875C275.043 280.661 272.43 280.428 272.51 279.555C272.59 278.681 266.706 272.893 266.706 272.893L262.129 271.891L260.823 267.098Z" fill="white"/>
<mask id="mask10_1_133" style="mask-type:luminance" maskUnits="userSpaceOnUse" x="260" y="267" width="17" height="14">
<path d="M260.823 267.098C260.823 267.098 267.845 266.873 269.239 267.579C270.634 268.284 276.935 279.09 275.989 279.875C275.043 280.661 272.43 280.428 272.51 279.555C272.59 278.681 266.706 272.893 266.706 272.893L262.129 271.891L260.823 267.098Z" fill="white"/>
</mask>
<g mask="url(#mask10_1_133)">
<path d="M260.823 267.098C260.823 267.098 267.845 266.873 269.239 267.579C270.634 268.284 276.935 279.09 275.989 279.875C275.043 280.661 272.43 280.428 272.51 279.555C272.59 278.681 266.706 272.893 266.706 272.893L262.129 271.891L260.823 267.098Z" fill="#0C2172"/>
<path opacity="0.5" d="M260.823 267.098C260.823 267.098 267.845 266.873 269.239 267.579C270.634 268.284 276.935 279.09 275.989 279.875C275.043 280.661 272.43 280.428 272.51 279.555C272.59 278.681 266.706 272.893 266.706 272.893L262.129 271.891L260.823 267.098Z" fill="white"/>
</g>
<path d="M260.823 267.098C260.823 267.098 267.845 266.873 269.239 267.579C270.634 268.284 276.935 279.09 275.989 279.875C275.043 280.661 272.43 280.428 272.51 279.555C272.59 278.681 266.706 272.893 266.706 272.893L262.129 271.891L260.823 267.098Z" stroke="#263238" stroke-linecap="round" stroke-linejoin="round"/>
<path d="M256.663 265.647C256.663 265.647 263.773 265.414 265.183 266.136C266.594 266.857 272.975 277.783 272.013 278.585C271.051 279.386 268.422 279.138 268.502 278.256C268.582 277.374 262.626 271.515 262.626 271.515L257.993 270.497L256.663 265.647Z" fill="white"/>
<mask id="mask11_1_133" style="mask-type:luminance" maskUnits="userSpaceOnUse" x="256" y="265" width="17" height="15">
<path d="M256.663 265.647C256.663 265.647 263.773 265.414 265.183 266.136C266.594 266.857 272.975 277.783 272.013 278.585C271.051 279.386 268.422 279.138 268.502 278.256C268.582 277.374 262.626 271.515 262.626 271.515L257.993 270.497L256.663 265.647Z" fill="white"/>
</mask>
<g mask="url(#mask11_1_133)">
<path d="M256.663 265.647C256.663 265.647 263.773 265.414 265.183 266.136C266.594 266.857 272.975 277.783 272.013 278.585C271.051 279.386 268.422 279.138 268.502 278.256C268.582 277.374 262.626 271.515 262.626 271.515L257.993 270.497L256.663 265.647Z" fill="#0C2172"/>
<path opacity="0.5" d="M256.663 265.647C256.663 265.647 263.773 265.414 265.183 266.136C266.594 266.857 272.975 277.783 272.013 278.585C271.051 279.386 268.422 279.138 268.502 278.256C268.582 277.374 262.626 271.515 262.626 271.515L257.993 270.497L256.663 265.647Z" fill="white"/>
</g>
<path d="M256.663 265.647C256.663 265.647 263.773 265.414 265.183 266.136C266.594 266.857 272.975 277.783 272.013 278.585C271.051 279.386 268.422 279.138 268.502 278.256C268.582 277.374 262.626 271.515 262.626 271.515L257.993 270.497L256.663 265.647Z" stroke="#263238" stroke-linecap="round" stroke-linejoin="round"/>
<path d="M175.823 224.909C180.969 232.837 191.301 252.925 194.315 255.186C199.02 258.713 230.475 267.274 233.505 269.615C236.535 271.956 236.326 274.304 239.196 275.162C242.066 276.02 252.823 278.481 256.927 278.866C261.031 279.25 259.196 276.709 259.196 276.709L252.198 271.9L258.298 270.393C258.298 270.393 264.414 277.751 265.56 278.152C266.706 278.553 268.726 278.152 268.598 277.246C268.374 275.795 261.849 263.923 259.532 263.418C257.216 262.913 243.156 264.861 243.156 264.861C243.156 264.861 213.665 244.973 213.136 244.268C213.136 244.268 211.373 239.266 209.93 237.206C208.487 235.146 207.573 235.739 207.573 235.739C207.573 235.739 208.167 233.085 207.285 232.204L202.58 227.498L202.411 227.723C201.61 226.119 200.808 224.292 199.926 222.208C197.465 216.412 188.752 200.147 187.285 197.798C186.187 196.043 176.985 194.784 172.32 194.255" fill="#0C2172"/>
<mask id="mask12_1_133" style="mask-type:luminance" maskUnits="userSpaceOnUse" x="172" y="194" width="97" height="85">
<path d="M175.823 224.909C180.969 232.837 191.301 252.925 194.315 255.186C199.02 258.713 230.475 267.274 233.505 269.615C236.535 271.956 236.326 274.304 239.196 275.162C242.066 276.02 252.823 278.481 256.927 278.866C261.031 279.25 259.196 276.709 259.196 276.709L252.198 271.9L258.298 270.393C258.298 270.393 264.414 277.751 265.56 278.152C266.706 278.553 268.726 278.152 268.598 277.246C268.374 275.795 261.849 263.923 259.532 263.418C257.216 262.913 243.156 264.861 243.156 264.861C243.156 264.861 213.665 244.973 213.136 244.268C213.136 244.268 211.373 239.266 209.93 237.206C208.487 235.146 207.573 235.739 207.573 235.739C207.573 235.739 208.167 233.085 207.285 232.204L202.58 227.498L202.411 227.723C201.61 226.119 200.808 224.292 199.926 222.208C197.465 216.412 188.752 200.147 187.285 197.798C186.187 196.043 176.985 194.784 172.32 194.255" fill="white"/>
</mask>
<g mask="url(#mask12_1_133)">
<path opacity="0.16" d="M196.311 225.414C200.159 228.829 198.876 228.829 198.018 231.827C197.161 234.825 198.66 230.761 202.291 230.977C205.922 231.194 204.856 235.883 204.423 236.741C203.99 237.598 208.912 238.665 208.054 240.58C207.197 242.496 202.291 245.278 199.517 248.06C196.744 250.841 206.772 243.57 210.187 243.362C211.229 243.29 212.086 243.426 212.808 243.41C212.051 241.265 211.079 239.203 209.906 237.254C208.431 235.194 207.549 235.787 207.549 235.787C207.549 235.787 208.142 233.133 207.261 232.252L202.555 227.546L202.387 227.771C201.585 226.167 200.784 224.34 199.902 222.256C197.441 216.46 188.728 200.195 187.261 197.846C186.163 196.091 176.961 194.832 172.295 194.303L172.72 198.015L172.825 198.095C172.825 198.095 178.588 199.161 180.512 199.377C182.436 199.594 184.784 201.293 184.568 202.584C184.351 203.875 178.804 209.63 180.512 210.063C182.219 210.496 184.143 205.79 186.067 206.432C187.991 207.073 192.439 221.999 196.311 225.414Z" fill="black"/>
</g>
<path d="M175.823 224.909C180.969 232.837 191.301 252.925 194.315 255.186C199.02 258.713 230.475 267.274 233.505 269.615C236.535 271.956 236.326 274.304 239.196 275.162C242.066 276.02 252.823 278.481 256.927 278.866C261.031 279.25 259.196 276.709 259.196 276.709L252.198 271.9L258.298 270.393C258.298 270.393 264.414 277.751 265.56 278.152C266.706 278.553 268.726 278.152 268.598 277.246C268.374 275.795 261.849 263.923 259.532 263.418C257.216 262.913 243.156 264.861 243.156 264.861C243.156 264.861 213.665 244.973 213.136 244.268C213.136 244.268 211.373 239.266 209.93 237.206C208.487 235.146 207.573 235.739 207.573 235.739C207.573 235.739 208.167 233.085 207.285 232.204L202.58 227.498L202.411 227.723C201.61 226.119 200.808 224.292 199.926 222.208C197.465 216.412 188.752 200.147 187.285 197.798C186.187 196.043 176.985 194.784 172.32 194.255" stroke="#263238" stroke-linecap="round" stroke-linejoin="round"/>
<path d="M175.903 214.031C175.686 214.752 175.502 215.474 175.358 216.211" stroke="#263238" stroke-linecap="round" stroke-linejoin="round"/>
<path d="M183.694 200.764C181.175 203.635 179.051 206.83 177.377 210.263" stroke="#263238" stroke-linecap="round" stroke-linejoin="round"/>
<path d="M195.469 246.28C197.634 243.073 201.08 239.009 204.88 237.847" stroke="#263238" stroke-linecap="round" stroke-linejoin="round"/>
<path d="M193.073 250.224C193.073 250.224 193.457 249.47 194.147 248.332" stroke="#263238" stroke-linecap="round" stroke-linejoin="round"/>
<path d="M193.073 245.157C193.073 245.157 197.008 235.314 200.944 232.781C204.88 230.248 202.627 235.314 202.627 235.314" stroke="#263238" stroke-linecap="round" stroke-linejoin="round"/>
<path d="M233.505 269.623C236.543 271.972 236.326 274.312 239.196 275.17C242.066 276.028 252.823 278.489 256.927 278.874C261.031 279.258 259.196 276.717 259.196 276.717L252.198 271.908L258.298 270.401C258.298 270.401 264.414 277.759 265.56 278.16C266.706 278.561 268.887 278.705 268.598 277.254C268.037 274.449 261.849 263.932 259.532 263.427C257.216 262.922 243.156 264.869 243.156 264.869C243.156 264.869 216.295 246.432 213.353 244.436C201.946 245.535 196.519 251.507 194.235 255.09L194.315 255.154C199.02 258.713 230.475 267.274 233.505 269.623Z" fill="white"/>
<mask id="mask13_1_133" style="mask-type:luminance" maskUnits="userSpaceOnUse" x="194" y="244" width="75" height="35">
<path d="M233.505 269.623C236.543 271.972 236.326 274.312 239.196 275.17C242.066 276.028 252.823 278.489 256.927 278.874C261.031 279.258 259.196 276.717 259.196 276.717L252.198 271.908L258.298 270.401C258.298 270.401 264.414 277.759 265.56 278.16C266.706 278.561 268.887 278.705 268.598 277.254C268.037 274.449 261.849 263.932 259.532 263.427C257.216 262.922 243.156 264.869 243.156 264.869C243.156 264.869 216.295 246.432 213.353 244.436C201.946 245.535 196.519 251.507 194.235 255.09L194.315 255.154C199.02 258.713 230.475 267.274 233.505 269.623Z" fill="white"/>
</mask>
<g mask="url(#mask13_1_133)">
<path d="M268.59 277.286C267.131 273.719 261.841 263.964 259.524 263.459C257.207 262.954 243.148 264.901 243.148 264.901C243.148 264.901 216.286 246.464 213.345 244.468C210.351 244.729 207.413 245.439 204.631 246.577C208.872 248.981 237.136 265.014 240.703 265.727C244.486 266.529 257.111 264.453 259.332 265.944C260.743 266.89 264.943 273.551 267.78 278.28C268.59 278.16 268.887 278.008 268.59 277.286Z" fill="#0C2172"/>
<path opacity="0.5" d="M268.59 277.286C266.314 272.18 261.841 263.964 259.524 263.459C257.208 262.954 243.148 264.901 243.148 264.901C243.148 264.901 216.286 246.464 213.345 244.468C210.351 244.729 207.413 245.439 204.631 246.577C208.872 248.981 237.136 265.014 240.703 265.727C244.486 266.529 257.111 264.453 259.332 265.944C260.743 266.89 264.943 273.551 267.78 278.28C268.59 278.16 268.911 278 268.59 277.286Z" fill="white"/>
</g>
<path d="M233.505 269.623C236.543 271.972 236.326 274.312 239.196 275.17C242.066 276.028 252.823 278.489 256.927 278.874C261.031 279.258 259.196 276.717 259.196 276.717L252.198 271.908L258.298 270.401C258.298 270.401 264.414 277.759 265.56 278.16C266.706 278.561 268.887 278.705 268.598 277.254C268.037 274.449 261.849 263.932 259.532 263.427C257.216 262.922 243.156 264.869 243.156 264.869C243.156 264.869 216.295 246.432 213.353 244.436C201.946 245.535 196.519 251.507 194.235 255.09L194.315 255.154C199.02 258.713 230.475 267.274 233.505 269.623Z" stroke="#263238" stroke-linecap="round" stroke-linejoin="round"/>
<path d="M162.66 129.645L138.517 139.721C138.224 143.965 137.173 148.121 135.414 151.994C132.561 158.03 134.228 169.453 136.97 175.618C139.711 181.782 151.791 179.369 156.208 178.6C159.203 178.03 162.137 177.173 164.969 176.043C166.258 176.539 167.653 176.7 169.022 176.509C170.39 176.319 171.688 175.783 172.792 174.952C172.792 174.952 159.871 138.679 162.66 129.645Z" fill="white"/>
<mask id="mask14_1_133" style="mask-type:luminance" maskUnits="userSpaceOnUse" x="133" y="129" width="40" height="51">
<path d="M162.66 129.645L138.517 139.721C138.224 143.965 137.173 148.121 135.414 151.994C132.561 158.03 134.228 169.453 136.97 175.618C139.711 181.782 151.791 179.369 156.208 178.6C159.203 178.03 162.137 177.173 164.969 176.043C166.258 176.539 167.653 176.7 169.022 176.509C170.39 176.319 171.688 175.783 172.792 174.952C172.792 174.952 159.871 138.679 162.66 129.645Z" fill="white"/>
</mask>
<g mask="url(#mask14_1_133)">
<path d="M162.66 129.645L138.517 139.721C138.224 143.965 137.173 148.121 135.414 151.994C132.561 158.03 134.228 169.453 136.97 175.618C137.428 176.609 138.167 177.445 139.094 178.022V177.558C139.094 177.558 134.613 166.455 135.463 160.05C136.312 153.645 139.951 150.431 140.376 146.383C140.801 142.335 140.585 140.411 148.705 137.421C156.825 134.431 160.232 131.657 161.081 134.639C161.931 137.621 165.354 157.277 167.702 161.974C170.051 166.672 169.835 171.594 166.211 173.718C162.55 175.916 158.626 177.645 154.532 178.864L156.24 178.568C159.235 177.998 162.169 177.141 165.001 176.01C166.29 176.507 167.685 176.668 169.054 176.477C170.422 176.287 171.72 175.751 172.825 174.92C172.825 174.92 159.871 138.679 162.66 129.645Z" fill="#0C2172"/>
<path opacity="0.5" d="M162.66 129.645L138.517 139.721C138.224 143.965 137.173 148.121 135.414 151.994C132.561 158.03 134.228 169.453 136.97 175.618C137.428 176.609 138.167 177.445 139.094 178.022V177.558C139.094 177.558 134.613 166.455 135.463 160.05C136.312 153.645 139.951 150.431 140.376 146.383C140.801 142.335 140.585 140.411 148.705 137.421C156.825 134.431 160.232 131.657 161.081 134.639C161.931 137.621 165.354 157.277 167.702 161.974C170.051 166.672 169.835 171.594 166.211 173.718C162.55 175.916 158.626 177.645 154.532 178.864L156.24 178.568C159.235 177.998 162.169 177.141 165.001 176.01C166.29 176.507 167.685 176.668 169.054 176.477C170.422 176.287 171.72 175.751 172.825 174.92C172.825 174.92 159.871 138.679 162.66 129.645Z" fill="white"/>
</g>
<path d="M162.66 129.645L138.517 139.721C138.224 143.965 137.173 148.121 135.414 151.994C132.561 158.03 134.228 169.453 136.97 175.618C139.711 181.782 151.791 179.369 156.208 178.6C159.203 178.03 162.137 177.173 164.969 176.043C166.258 176.539 167.653 176.7 169.022 176.509C170.39 176.319 171.688 175.783 172.792 174.952C172.792 174.952 159.871 138.679 162.66 129.645Z" stroke="#263238" stroke-linecap="round" stroke-linejoin="round"/>
<path d="M150.46 145.445C150.526 146.864 150.35 148.285 149.939 149.645C149.298 151.248 143.246 157.549 143.43 158.23C143.615 158.912 144.16 161.1 145.234 161.308" stroke="#263238" stroke-linecap="round" stroke-linejoin="round"/>
<path d="M157.169 151.08C158.011 149.397 160.777 151.04 160.736 154.832" stroke="#263238" stroke-linecap="round" stroke-linejoin="round"/>
<path d="M143.462 146.126C143.462 146.126 145.819 145.092 147.927 148.908" stroke="#263238" stroke-linecap="round" stroke-linejoin="round"/>
<path d="M153.819 156.635C156.542 156.772 159.131 157.859 161.137 159.705" stroke="#263238" stroke-width="0.5" stroke-linecap="round" stroke-linejoin="round"/>
<path d="M140.617 151.625C142.025 151.813 143.4 152.194 144.705 152.756" stroke="#263238" stroke-width="0.5" stroke-linecap="round" stroke-linejoin="round"/>
<path d="M150.196 141.886C149.573 141.557 148.883 141.377 148.179 141.36C147.475 141.343 146.777 141.49 146.14 141.789C143.983 142.823 142.661 143.962 142.805 142.639C142.949 141.317 145.482 139.858 146.244 139.665C147.005 139.473 150.412 138.944 150.196 141.886Z" fill="#263238"/>
<path d="M156.24 138.896C158.487 140.714 160.272 143.037 161.45 145.677C163.053 149.685 164.32 145.308 163.053 142.687C161.787 140.066 158.123 137.276 156.24 138.896Z" fill="#263238"/>
<path d="M173.145 181.806C173.145 183.674 172.087 185.189 170.788 185.189C169.49 185.189 168.44 183.674 168.44 181.806C168.44 179.938 169.49 175.185 170.788 175.185C172.087 175.185 173.145 179.938 173.145 181.806Z" fill="#0C2172" stroke="#263238" stroke-linecap="round" stroke-linejoin="round"/>
<path d="M157.378 150.351C157.286 150.596 157.213 150.848 157.161 151.104C156.929 152.291 156.697 154.767 157.161 154.872C157.626 154.976 158.765 152.659 158.965 151.473C159.01 151.24 159.037 151.004 159.045 150.768C158.498 150.596 157.941 150.457 157.378 150.351Z" fill="#263238"/>
<path d="M143.703 145.894C143.632 146.103 143.575 146.318 143.535 146.535C143.294 147.721 143.302 150.327 143.807 150.423C144.312 150.519 145.138 148.082 145.37 146.896C145.428 146.608 145.46 146.316 145.466 146.022C144.893 145.864 144.293 145.821 143.703 145.894Z" fill="#263238"/>
<path d="M157.169 151.12L157.971 149.629C159.242 149.877 160.393 150.543 161.241 151.521" stroke="#263238" stroke-width="0.75" stroke-linecap="round" stroke-linejoin="round"/>
<path d="M143.703 145.894L144.504 144.956C144.504 144.956 144.849 144.788 146.741 145.645" stroke="#263238" stroke-width="0.75" stroke-linecap="round" stroke-linejoin="round"/>
<path d="M140.665 167.633C140.665 167.633 142.011 165.157 143.815 165.157C145.619 165.157 146.965 169.205 146.965 169.205" stroke="#263238" stroke-linecap="round" stroke-linejoin="round"/>
<path d="M82.6216 274.456C80.8786 274.369 79.1666 273.962 77.5716 273.254C77.3492 273.171 77.1459 273.045 76.974 272.881C76.8021 272.718 76.6652 272.521 76.5717 272.304C76.4783 272.086 76.4301 271.851 76.4302 271.614C76.4303 271.377 76.4787 271.142 76.5723 270.924C76.666 270.706 76.803 270.51 76.975 270.347C77.1471 270.184 77.3505 270.057 77.573 269.975C77.7954 269.893 78.0323 269.857 78.2691 269.87C78.5059 269.882 78.7377 269.942 78.9503 270.047C80.5535 270.729 82.6296 271.153 83.1827 270.913C84.2007 269.775 85.7638 262.897 83.7438 259.579C83.2869 258.841 82.8621 258.705 82.5815 258.673C81.4353 258.512 79.7359 259.691 79.1347 260.276C78.9673 260.434 78.7705 260.557 78.5554 260.639C78.3404 260.721 78.1113 260.76 77.8813 260.753C77.6513 260.746 77.4249 260.694 77.2149 260.6C77.005 260.506 76.8157 260.371 76.6578 260.204C76.4999 260.036 76.3765 259.84 76.2947 259.624C76.2129 259.409 76.1742 259.18 76.1809 258.95C76.1876 258.72 76.2395 258.494 76.3337 258.284C76.4279 258.074 76.5626 257.885 76.7299 257.727C77.0426 257.422 79.9363 254.817 83.0224 255.234C83.7878 255.346 84.5172 255.632 85.1539 256.072C85.7906 256.511 86.3175 257.091 86.6937 257.767C89.6676 262.617 87.6315 271.843 85.347 273.67C84.5531 274.232 83.5927 274.509 82.6216 274.456Z" fill="white"/>
<mask id="mask15_1_133" style="mask-type:luminance" maskUnits="userSpaceOnUse" x="76" y="255" width="13" height="20">
<path d="M82.6216 274.456C80.8786 274.369 79.1666 273.962 77.5716 273.254C77.3492 273.171 77.1459 273.045 76.974 272.881C76.8021 272.718 76.6652 272.521 76.5717 272.304C76.4783 272.086 76.4301 271.851 76.4302 271.614C76.4303 271.377 76.4787 271.142 76.5723 270.924C76.666 270.706 76.803 270.51 76.975 270.347C77.1471 270.184 77.3505 270.057 77.573 269.975C77.7954 269.893 78.0323 269.857 78.2691 269.87C78.5059 269.882 78.7377 269.942 78.9503 270.047C80.5535 270.729 82.6296 271.153 83.1827 270.913C84.2007 269.775 85.7638 262.897 83.7438 259.579C83.2869 258.841 82.8621 258.705 82.5815 258.673C81.4353 258.512 79.7359 259.691 79.1347 260.276C78.9673 260.434 78.7705 260.557 78.5554 260.639C78.3404 260.721 78.1113 260.76 77.8813 260.753C77.6513 260.746 77.4249 260.694 77.2149 260.6C77.005 260.506 76.8157 260.371 76.6578 260.204C76.4999 260.036 76.3765 259.84 76.2947 259.624C76.2129 259.409 76.1742 259.18 76.1809 258.95C76.1876 258.72 76.2395 258.494 76.3337 258.284C76.4279 258.074 76.5626 257.885 76.7299 257.727C77.0426 257.422 79.9363 254.817 83.0224 255.234C83.7878 255.346 84.5172 255.632 85.1539 256.072C85.7906 256.511 86.3175 257.091 86.6937 257.767C89.6676 262.617 87.6315 271.843 85.347 273.67C84.5531 274.232 83.5927 274.509 82.6216 274.456Z" fill="white"/>
</mask>
<g mask="url(#mask15_1_133)">
<path d="M84.9702 259.05C84.76 258.552 84.4309 258.113 84.0116 257.772C83.5923 257.431 83.0957 257.198 82.5655 257.094C80.5615 256.773 78.6778 258.785 78.4694 259.009C78.2778 259.24 78.1594 259.523 78.1294 259.821C78.0994 260.12 78.1592 260.42 78.301 260.685C78.6163 260.621 78.9078 260.472 79.1427 260.252C79.7439 259.691 81.4433 258.512 82.5895 258.649C82.8701 258.649 83.2949 258.817 83.7518 259.555C85.7718 262.841 84.2087 269.751 83.1907 270.889C82.6376 271.129 80.5695 270.705 78.9583 270.023C78.76 269.94 78.5481 269.894 78.3331 269.887C78.3477 270.107 78.417 270.319 78.5345 270.505C78.6521 270.692 78.8143 270.845 79.0064 270.953C80.02 271.494 81.1381 271.812 82.2849 271.883C82.9393 271.914 83.5803 271.69 84.0725 271.258C85.5794 269.871 86.9101 262.777 84.9702 259.05Z" fill="#0C2172"/>
<path opacity="0.5" d="M84.9702 259.05C84.76 258.552 84.4309 258.113 84.0116 257.772C83.5923 257.431 83.0957 257.198 82.5655 257.094C80.5615 256.773 78.6778 258.785 78.4694 259.009C78.2778 259.24 78.1594 259.523 78.1294 259.821C78.0994 260.12 78.1592 260.42 78.301 260.685C78.6163 260.621 78.9078 260.472 79.1427 260.252C79.7439 259.691 81.4433 258.512 82.5895 258.649C82.8701 258.649 83.2949 258.817 83.7518 259.555C85.7718 262.841 84.2087 269.751 83.1907 270.889C82.6376 271.129 80.5695 270.705 78.9583 270.023C78.76 269.94 78.5481 269.894 78.3331 269.887C78.3477 270.107 78.417 270.319 78.5345 270.505C78.6521 270.692 78.8143 270.845 79.0064 270.953C80.02 271.494 81.1381 271.812 82.2849 271.883C82.9393 271.914 83.5803 271.69 84.0725 271.258C85.5794 269.871 86.9101 262.777 84.9702 259.05Z" fill="white"/>
</g>
<path d="M82.6216 274.456C80.8786 274.369 79.1666 273.962 77.5716 273.254C77.3492 273.171 77.1459 273.045 76.974 272.881C76.8021 272.718 76.6652 272.521 76.5717 272.304C76.4783 272.086 76.4301 271.851 76.4302 271.614C76.4303 271.377 76.4787 271.142 76.5723 270.924C76.666 270.706 76.803 270.51 76.975 270.347C77.1471 270.184 77.3505 270.057 77.573 269.975C77.7954 269.893 78.0323 269.857 78.2691 269.87C78.5059 269.882 78.7377 269.942 78.9503 270.047C80.5535 270.729 82.6296 271.153 83.1827 270.913C84.2007 269.775 85.7638 262.897 83.7438 259.579C83.2869 258.841 82.8621 258.705 82.5815 258.673C81.4353 258.512 79.7359 259.691 79.1347 260.276C78.9673 260.434 78.7705 260.557 78.5554 260.639C78.3404 260.721 78.1113 260.76 77.8813 260.753C77.6513 260.746 77.4249 260.694 77.2149 260.6C77.005 260.506 76.8157 260.371 76.6578 260.204C76.4999 260.036 76.3765 259.84 76.2947 259.624C76.2129 259.409 76.1742 259.18 76.1809 258.95C76.1876 258.72 76.2395 258.494 76.3337 258.284C76.4279 258.074 76.5626 257.885 76.7299 257.727C77.0426 257.422 79.9363 254.817 83.0224 255.234C83.7878 255.346 84.5172 255.632 85.1539 256.072C85.7906 256.511 86.3175 257.091 86.6937 257.767C89.6676 262.617 87.6315 271.843 85.347 273.67C84.5531 274.232 83.5927 274.509 82.6216 274.456Z" stroke="#263238" stroke-linecap="round" stroke-linejoin="round"/>
<path d="M79.5597 253.775H60.2815V279.362H79.5597V253.775Z" fill="white"/>
<mask id="mask16_1_133" style="mask-type:luminance" maskUnits="userSpaceOnUse" x="60" y="253" width="20" height="27">
<path d="M79.5597 253.775H60.2815V279.362H79.5597V253.775Z" fill="white"/>
</mask>
<g mask="url(#mask16_1_133)">
<path d="M68.1771 253.775H60.2815V279.362H68.1771V253.775Z" fill="#0C2172"/>
<path opacity="0.5" d="M68.1771 253.775H60.2815V279.362H68.1771V253.775Z" fill="white"/>
</g>
<path d="M79.5597 253.775H60.2815V279.362H79.5597V253.775Z" stroke="#263238" stroke-linecap="round" stroke-linejoin="round"/>
<path d="M185.498 279.01H103.142L100.457 233.735C100.383 233.296 100.405 232.846 100.521 232.416C100.638 231.986 100.846 231.587 101.132 231.246C101.418 230.904 101.774 230.629 102.176 230.439C102.579 230.248 103.018 230.148 103.463 230.143H185.145C185.593 230.143 186.035 230.24 186.442 230.429C186.848 230.617 187.209 230.892 187.498 231.234C187.787 231.576 187.998 231.976 188.117 232.408C188.235 232.84 188.258 233.293 188.183 233.735L185.498 279.01Z" fill="#263238" stroke="#263238" stroke-linecap="round" stroke-linejoin="round"/>
<path d="M107.199 231.226H184.552C184.989 231.221 185.421 231.312 185.82 231.493C186.218 231.673 186.571 231.938 186.856 232.269C187.141 232.601 187.35 232.99 187.468 233.411C187.587 233.832 187.612 234.273 187.542 234.705" stroke="white" stroke-linecap="round" stroke-linejoin="round"/>
<path d="M101.058 233.991C101.123 233.233 101.471 232.528 102.032 232.015C102.594 231.503 103.328 231.221 104.088 231.226" stroke="white" stroke-linecap="round" stroke-linejoin="round"/>
<path d="M185.842 274.601H102.798V279.01H185.842V274.601Z" fill="white" stroke="#263238" stroke-linecap="round" stroke-linejoin="round"/>
<path d="M144.023 258.28C147.273 258.28 149.907 256.701 149.907 254.753C149.907 252.805 147.273 251.226 144.023 251.226C140.774 251.226 138.14 252.805 138.14 254.753C138.14 256.701 140.774 258.28 144.023 258.28Z" fill="white" stroke="#263238" stroke-linecap="round" stroke-linejoin="round"/>
<path d="M311.098 278.489H1.79773V286H311.098V278.489Z" fill="#263238"/>
<path d="M230.899 0H82.1008C77.0849 0 73.0188 4.06628 73.0188 9.08229V94.4622C73.0188 99.4782 77.0849 103.545 82.1008 103.545H230.899C235.915 103.545 239.981 99.4782 239.981 94.4622V9.08229C239.981 4.06628 235.915 0 230.899 0Z" fill="#0C2172"/>
<path d="M160.426 59.5039C173.924 57.3347 183.107 44.6338 180.938 31.1359C178.769 17.6379 166.069 8.45418 152.571 10.6235C139.073 12.7927 129.89 25.4935 132.059 38.9915C134.228 52.4895 146.929 61.6732 160.426 59.5039Z" fill="#263238"/>
<path d="M156.312 39.6398L148.063 50.2292C147.783 50.67 147.397 51.0341 146.941 51.2888C146.485 51.5435 145.973 51.6807 145.45 51.6881C144.734 51.6979 144.042 51.4242 143.526 50.9266C143.264 50.6861 143.057 50.3919 142.918 50.064C142.78 49.7362 142.714 49.3824 142.725 49.0267C142.751 48.2302 143.032 47.4631 143.526 46.8383L152.929 35.2069L144.112 23.5675C143.702 23.0212 143.477 22.3585 143.47 21.6757C143.468 21.2684 143.55 20.8652 143.712 20.4913C143.873 20.1174 144.11 19.781 144.408 19.5033C144.688 19.2113 145.024 18.979 145.396 18.8206C145.768 18.6621 146.168 18.5808 146.572 18.5814C147.09 18.5898 147.598 18.7277 148.048 18.9826C148.499 19.2374 148.879 19.6011 149.153 20.0404L157.121 30.5335L165.137 20.2167C165.424 19.7354 165.824 19.3322 166.304 19.0428C166.784 18.7533 167.327 18.5866 167.887 18.5574C168.234 18.5565 168.577 18.6273 168.896 18.7652C169.215 18.9031 169.501 19.1053 169.738 19.359C169.991 19.5968 170.192 19.8838 170.33 20.2022C170.468 20.5206 170.539 20.8638 170.54 21.2107C170.531 21.8316 170.317 22.4321 169.931 22.9182L160.496 34.9905L169.61 47.0147C170.041 47.5522 170.281 48.2177 170.291 48.9065C170.294 49.3048 170.21 49.6989 170.045 50.0615C169.881 50.4241 169.639 50.7466 169.337 51.0067C168.749 51.5723 167.965 51.8883 167.149 51.8885C166.629 51.882 166.118 51.7451 165.665 51.4902C165.211 51.2353 164.828 50.8706 164.552 50.4296L156.312 39.6398Z" fill="white"/>
<path d="M203.661 85.612H109.307C107.393 85.612 105.558 84.8519 104.205 83.499C102.852 82.1461 102.092 80.3111 102.092 78.3977C102.092 76.4844 102.852 74.6494 104.205 73.2965C105.558 71.9435 107.393 71.1834 109.307 71.1834H203.661C205.575 71.1834 207.41 71.9435 208.763 73.2965C210.116 74.6494 210.876 76.4844 210.876 78.3977C210.876 80.3111 210.116 82.1461 208.763 83.499C207.41 84.8519 205.575 85.612 203.661 85.612Z" fill="white"/>
<path d="M122.236 80.7224C122.173 80.7224 122.111 80.7096 122.053 80.6848C121.995 80.66 121.943 80.6237 121.9 80.5781C121.852 80.5311 121.815 80.4748 121.79 80.4127C121.765 80.3507 121.753 80.2842 121.755 80.2174C121.755 80.1045 121.786 79.9937 121.843 79.8968L122.565 78.7746H121.09C121.022 78.7781 120.954 78.767 120.89 78.7421C120.826 78.7173 120.769 78.6791 120.721 78.6303C120.639 78.5343 120.594 78.4121 120.594 78.2856C120.594 78.1591 120.639 78.0368 120.721 77.9409C120.769 77.8921 120.826 77.8539 120.89 77.8291C120.954 77.8042 121.022 77.7931 121.09 77.7966L122.541 77.8367L121.9 76.7946C121.835 76.6879 121.799 76.5665 121.795 76.4419C121.793 76.3752 121.805 76.3087 121.83 76.2466C121.855 76.1846 121.892 76.1283 121.94 76.0812C121.985 76.0354 122.038 75.999 122.097 75.9742C122.157 75.9495 122.22 75.9368 122.284 75.9369C122.374 75.9356 122.462 75.9608 122.538 76.0092C122.613 76.0577 122.673 76.1274 122.709 76.2095L123.415 77.468L124.088 76.2656C124.13 76.172 124.198 76.0919 124.282 76.034C124.367 75.976 124.466 75.9425 124.569 75.9369C124.632 75.9369 124.694 75.9497 124.752 75.9745C124.81 75.9993 124.862 76.0356 124.905 76.0812C124.952 76.1253 124.99 76.1787 125.014 76.2381C125.039 76.2975 125.051 76.3615 125.05 76.4259C125.049 76.5397 125.015 76.6509 124.954 76.7466L124.248 77.8768L125.715 77.8367C125.783 77.8327 125.852 77.8435 125.915 77.8684C125.979 77.8933 126.036 77.9317 126.084 77.981C126.166 78.0769 126.212 78.1992 126.212 78.3257C126.212 78.4521 126.166 78.5744 126.084 78.6704C126.036 78.7196 125.979 78.758 125.915 78.7829C125.852 78.8079 125.783 78.8187 125.715 78.8146H124.232L124.889 79.8407C124.964 79.9645 125.005 80.1052 125.01 80.2495C125.012 80.3144 125.001 80.3792 124.978 80.4398C124.954 80.5004 124.919 80.5557 124.873 80.6022C124.831 80.6472 124.78 80.6831 124.724 80.7079C124.667 80.7327 124.606 80.7458 124.545 80.7465C124.446 80.744 124.349 80.7133 124.267 80.658C124.184 80.6026 124.12 80.5248 124.08 80.4338L123.415 79.2555L122.749 80.4338C122.701 80.5267 122.627 80.6034 122.536 80.6547C122.445 80.7059 122.341 80.7295 122.236 80.7224Z" fill="black"/>
<path d="M129.595 80.7225C129.532 80.7225 129.47 80.7097 129.412 80.6849C129.354 80.6601 129.302 80.6238 129.258 80.5782C129.211 80.5311 129.173 80.4748 129.149 80.4128C129.124 80.3507 129.112 80.2843 129.114 80.2175C129.114 80.1046 129.144 79.9938 129.202 79.8968L129.923 78.7746H128.449C128.38 78.7781 128.312 78.767 128.249 78.7422C128.185 78.7173 128.128 78.6792 128.08 78.6303C127.997 78.5344 127.952 78.4121 127.952 78.2856C127.952 78.1592 127.997 78.0369 128.08 77.941C128.128 77.8921 128.185 77.854 128.249 77.8291C128.312 77.8042 128.38 77.7932 128.449 77.7967L129.899 77.8368L129.218 76.7546C129.154 76.6479 129.118 76.5264 129.114 76.4019C129.112 76.3351 129.124 76.2686 129.149 76.2066C129.173 76.1446 129.211 76.0883 129.258 76.0412C129.303 75.9954 129.357 75.959 129.416 75.9342C129.475 75.9094 129.539 75.8967 129.603 75.8969C129.693 75.8956 129.781 75.9207 129.856 75.9692C129.932 76.0177 129.991 76.0873 130.028 76.1694L130.733 77.4279L131.406 76.2256C131.449 76.132 131.516 76.0519 131.601 75.9939C131.686 75.936 131.785 75.9024 131.887 75.8969C131.95 75.8969 132.013 75.9097 132.071 75.9345C132.128 75.9593 132.181 75.9956 132.224 76.0412C132.271 76.0852 132.308 76.1387 132.333 76.1981C132.358 76.2575 132.37 76.3215 132.368 76.3859C132.367 76.4997 132.334 76.6109 132.272 76.7065L131.567 77.8368L133.034 77.7967C133.102 77.7926 133.17 77.8035 133.234 77.8284C133.297 77.8533 133.355 77.8917 133.402 77.941C133.485 78.0369 133.53 78.1592 133.53 78.2856C133.53 78.4121 133.485 78.5344 133.402 78.6303C133.355 78.6796 133.297 78.718 133.234 78.7429C133.17 78.7678 133.102 78.7786 133.034 78.7746H131.551L132.208 79.8006C132.282 79.9245 132.324 80.0652 132.328 80.2094C132.331 80.2744 132.32 80.3391 132.296 80.3998C132.273 80.4604 132.237 80.5156 132.192 80.5621C132.15 80.6071 132.099 80.6431 132.042 80.6679C131.986 80.6927 131.925 80.7058 131.863 80.7064C131.764 80.705 131.667 80.6747 131.584 80.6192C131.502 80.5637 131.437 80.4854 131.398 80.3938L130.733 79.2155L130.068 80.3938C130.028 80.4878 129.963 80.5687 129.879 80.6269C129.795 80.6851 129.697 80.7182 129.595 80.7225Z" fill="black"/>
<path d="M136.953 80.7225C136.891 80.7225 136.828 80.7097 136.77 80.6849C136.712 80.6601 136.66 80.6238 136.617 80.5782C136.569 80.5311 136.532 80.4748 136.507 80.4128C136.482 80.3507 136.471 80.2843 136.473 80.2175C136.472 80.1046 136.503 79.9938 136.561 79.8968L137.282 78.7746H135.807C135.739 78.7781 135.671 78.767 135.607 78.7422C135.544 78.7173 135.486 78.6792 135.438 78.6303C135.356 78.5344 135.311 78.4121 135.311 78.2856C135.311 78.1592 135.356 78.0369 135.438 77.941C135.486 77.8921 135.544 77.854 135.607 77.8291C135.671 77.8042 135.739 77.7932 135.807 77.7967L137.258 77.8368L136.577 76.7546C136.512 76.6479 136.477 76.5264 136.473 76.4019C136.471 76.3351 136.482 76.2686 136.507 76.2066C136.532 76.1446 136.569 76.0883 136.617 76.0412C136.662 75.9954 136.715 75.959 136.775 75.9342C136.834 75.9094 136.897 75.8967 136.961 75.8969C137.051 75.8956 137.139 75.9207 137.215 75.9692C137.291 76.0177 137.35 76.0873 137.386 76.1694L138.092 77.4279L138.765 76.2256C138.807 76.132 138.875 76.0519 138.96 75.9939C139.044 75.936 139.143 75.9024 139.246 75.8969C139.309 75.8969 139.371 75.9097 139.429 75.9345C139.487 75.9593 139.539 75.9956 139.583 76.0412C139.63 76.0852 139.667 76.1387 139.692 76.1981C139.717 76.2575 139.729 76.3215 139.727 76.3859C139.726 76.4997 139.693 76.6109 139.631 76.7065L138.925 77.8368L140.392 77.7967C140.461 77.7926 140.529 77.8035 140.592 77.8284C140.656 77.8533 140.714 77.8917 140.761 77.941C140.843 78.0369 140.889 78.1592 140.889 78.2856C140.889 78.4121 140.843 78.5344 140.761 78.6303C140.714 78.6796 140.656 78.718 140.592 78.7429C140.529 78.7678 140.461 78.7786 140.392 78.7746H138.909L139.567 79.8006C139.641 79.9245 139.682 80.0652 139.687 80.2094C139.689 80.2744 139.678 80.3391 139.655 80.3998C139.631 80.4604 139.596 80.5156 139.551 80.5621C139.508 80.6071 139.458 80.6431 139.401 80.6679C139.345 80.6927 139.284 80.7058 139.222 80.7064C139.123 80.705 139.026 80.6747 138.943 80.6192C138.861 80.5637 138.796 80.4854 138.757 80.3938L138.092 79.2155L137.426 80.3938C137.387 80.4878 137.321 80.5687 137.238 80.6269C137.154 80.6851 137.055 80.7182 136.953 80.7225Z" fill="black"/>
<path d="M144.344 80.7225C144.281 80.7225 144.219 80.7097 144.161 80.6849C144.103 80.6601 144.051 80.6238 144.007 80.5782C143.96 80.5311 143.923 80.4748 143.898 80.4128C143.873 80.3507 143.861 80.2843 143.863 80.2175C143.863 80.1046 143.894 79.9938 143.951 79.8968L144.673 78.7746H143.198C143.13 78.7781 143.062 78.767 142.998 78.7422C142.934 78.7173 142.877 78.6792 142.829 78.6303C142.747 78.5344 142.701 78.4121 142.701 78.2856C142.701 78.1592 142.747 78.0369 142.829 77.941C142.877 77.8921 142.934 77.854 142.998 77.8291C143.062 77.8042 143.13 77.7932 143.198 77.7967L144.649 77.8368L143.967 76.7546C143.903 76.6479 143.867 76.5264 143.863 76.4019C143.861 76.3351 143.873 76.2686 143.898 76.2066C143.923 76.1446 143.96 76.0883 144.007 76.0412C144.052 75.9954 144.106 75.959 144.165 75.9342C144.224 75.9094 144.288 75.8967 144.352 75.8969C144.442 75.8956 144.53 75.9207 144.606 75.9692C144.681 76.0177 144.741 76.0873 144.777 76.1694L145.482 77.4279L146.156 76.2256C146.198 76.132 146.265 76.0519 146.35 75.9939C146.435 75.936 146.534 75.9024 146.637 75.8969C146.7 75.8969 146.762 75.9097 146.82 75.9345C146.878 75.9593 146.93 75.9956 146.973 76.0412C147.02 76.0852 147.057 76.1387 147.082 76.1981C147.107 76.2575 147.119 76.3215 147.118 76.3859C147.117 76.4997 147.083 76.6109 147.021 76.7065L146.316 77.8368L147.783 77.7967C147.851 77.7926 147.919 77.8035 147.983 77.8284C148.047 77.8533 148.104 77.8917 148.152 77.941C148.234 78.0369 148.279 78.1592 148.279 78.2856C148.279 78.4121 148.234 78.5344 148.152 78.6303C148.104 78.6796 148.047 78.718 147.983 78.7429C147.919 78.7678 147.851 78.7786 147.783 78.7746H146.3L146.957 79.8006C147.031 79.9245 147.073 80.0652 147.078 80.2094C147.08 80.2744 147.069 80.3391 147.046 80.3998C147.022 80.4604 146.987 80.5156 146.941 80.5621C146.899 80.6071 146.848 80.6431 146.792 80.6679C146.735 80.6927 146.674 80.7058 146.613 80.7064C146.513 80.704 146.417 80.6733 146.335 80.6179C146.252 80.5625 146.187 80.4848 146.148 80.3938L145.482 79.2155L144.817 80.3938C144.778 80.4878 144.712 80.5687 144.628 80.6269C144.545 80.6851 144.446 80.7182 144.344 80.7225Z" fill="black"/>
<path d="M151.671 80.7225C151.608 80.7225 151.545 80.7097 151.487 80.6849C151.43 80.6601 151.377 80.6238 151.334 80.5782C151.286 80.5311 151.249 80.4748 151.224 80.4128C151.2 80.3507 151.188 80.2843 151.19 80.2175C151.193 80.1051 151.224 79.9953 151.278 79.8968L151.999 78.7746H150.524C150.456 78.7781 150.388 78.7671 150.324 78.7422C150.261 78.7173 150.203 78.6792 150.156 78.6303C150.073 78.5344 150.028 78.4121 150.028 78.2856C150.028 78.1592 150.073 78.0369 150.156 77.941C150.203 77.8921 150.261 77.854 150.324 77.8291C150.388 77.8042 150.456 77.7932 150.524 77.7967L151.975 77.8368L151.294 76.7546C151.229 76.6479 151.194 76.5264 151.19 76.4019C151.188 76.3351 151.2 76.2687 151.224 76.2066C151.249 76.1446 151.286 76.0883 151.334 76.0412C151.379 75.9954 151.432 75.959 151.492 75.9342C151.551 75.9094 151.614 75.8967 151.679 75.8969C151.768 75.8956 151.856 75.9207 151.932 75.9692C152.008 76.0177 152.067 76.0873 152.103 76.1695L152.809 77.4279L153.482 76.2256C153.525 76.132 153.592 76.0519 153.677 75.9939C153.761 75.936 153.86 75.9024 153.963 75.8969C154.026 75.8959 154.089 75.9083 154.147 75.9332C154.205 75.958 154.257 75.9948 154.3 76.0412C154.347 76.0852 154.384 76.1387 154.409 76.1981C154.434 76.2575 154.446 76.3215 154.444 76.3859C154.443 76.4997 154.41 76.6109 154.348 76.7065L153.642 77.8368L155.109 77.7967C155.178 77.7926 155.246 77.8035 155.31 77.8284C155.373 77.8533 155.431 77.8917 155.478 77.941C155.56 78.0369 155.606 78.1592 155.606 78.2856C155.606 78.4121 155.56 78.5344 155.478 78.6303C155.431 78.6796 155.373 78.718 155.31 78.7429C155.246 78.7678 155.178 78.7786 155.109 78.7746H153.626L154.284 79.8006C154.358 79.9245 154.399 80.0652 154.404 80.2094C154.406 80.2744 154.395 80.3391 154.372 80.3998C154.348 80.4604 154.313 80.5156 154.268 80.5621C154.225 80.6071 154.175 80.6431 154.118 80.6679C154.062 80.6927 154.001 80.7058 153.939 80.7064C153.84 80.704 153.743 80.6733 153.661 80.6179C153.579 80.5626 153.514 80.4848 153.474 80.3938L152.809 79.2155L152.143 80.3938C152.104 80.4878 152.039 80.5687 151.955 80.6269C151.871 80.6851 151.772 80.7182 151.671 80.7225Z" fill="black"/>
<path d="M159.029 80.7225C158.966 80.7225 158.904 80.7097 158.846 80.6849C158.788 80.6601 158.736 80.6238 158.692 80.5782C158.645 80.5311 158.608 80.4748 158.583 80.4128C158.558 80.3507 158.546 80.2843 158.548 80.2175C158.552 80.1051 158.582 79.9953 158.636 79.8968L159.358 78.7746H157.891C157.821 78.7787 157.752 78.768 157.687 78.7431C157.622 78.7182 157.563 78.6798 157.514 78.6303C157.432 78.5344 157.386 78.4121 157.386 78.2856C157.386 78.1592 157.432 78.0369 157.514 77.941C157.563 77.8915 157.622 77.853 157.687 77.8281C157.752 77.8033 157.821 77.7925 157.891 77.7967L159.334 77.8368L158.652 76.7546C158.588 76.6479 158.552 76.5264 158.548 76.4019C158.546 76.3351 158.558 76.2687 158.583 76.2066C158.608 76.1446 158.645 76.0883 158.692 76.0412C158.737 75.9954 158.791 75.959 158.85 75.9342C158.909 75.9094 158.973 75.8967 159.037 75.8969C159.127 75.8956 159.215 75.9207 159.291 75.9692C159.366 76.0177 159.426 76.0873 159.462 76.1695L160.167 77.4279L160.841 76.2256C160.883 76.132 160.95 76.0519 161.035 75.9939C161.12 75.936 161.219 75.9024 161.322 75.8969C161.385 75.8959 161.447 75.9083 161.505 75.9332C161.563 75.958 161.616 75.9948 161.658 76.0412C161.705 76.0852 161.742 76.1387 161.767 76.1981C161.792 76.2575 161.804 76.3215 161.803 76.3859C161.802 76.4997 161.768 76.6109 161.706 76.7065L161.001 77.8368L162.468 77.7967C162.536 77.7926 162.605 77.8035 162.668 77.8284C162.732 77.8533 162.789 77.8917 162.837 77.941C162.919 78.0369 162.964 78.1592 162.964 78.2856C162.964 78.4121 162.919 78.5344 162.837 78.6303C162.789 78.6796 162.732 78.718 162.668 78.7429C162.605 78.7678 162.536 78.7786 162.468 78.7746H160.985L161.642 79.8006C161.716 79.9245 161.758 80.0652 161.763 80.2094C161.765 80.2744 161.754 80.3391 161.731 80.3998C161.707 80.4604 161.672 80.5156 161.626 80.5621C161.584 80.6071 161.533 80.6431 161.477 80.6679C161.42 80.6927 161.359 80.7058 161.298 80.7064C161.198 80.704 161.102 80.6733 161.02 80.6179C160.937 80.5626 160.872 80.4848 160.833 80.3938L160.167 79.2155L159.502 80.3938C159.463 80.4878 159.397 80.5687 159.313 80.6269C159.23 80.6851 159.131 80.7182 159.029 80.7225Z" fill="black"/>
<path d="M166.388 80.7224C166.325 80.7224 166.262 80.7096 166.204 80.6848C166.147 80.66 166.094 80.6237 166.051 80.5781C166.003 80.5311 165.966 80.4748 165.941 80.4127C165.917 80.3507 165.905 80.2842 165.907 80.2174C165.907 80.1045 165.937 79.9937 165.995 79.8968L166.716 78.7746H165.241C165.173 78.7781 165.105 78.767 165.041 78.7421C164.978 78.7173 164.92 78.6791 164.873 78.6303C164.79 78.5343 164.745 78.4121 164.745 78.2856C164.745 78.1591 164.79 78.0369 164.873 77.9409C164.92 77.8921 164.978 77.8539 165.041 77.8291C165.105 77.8042 165.173 77.7931 165.241 77.7966L166.692 77.8367L165.987 76.7946C165.922 76.6879 165.887 76.5665 165.883 76.4419C165.881 76.3752 165.893 76.3087 165.917 76.2466C165.942 76.1846 165.979 76.1283 166.027 76.0812C166.072 76.0354 166.125 75.999 166.185 75.9742C166.244 75.9495 166.307 75.9368 166.372 75.9369C166.461 75.9356 166.549 75.9608 166.625 76.0092C166.701 76.0577 166.76 76.1274 166.796 76.2095L167.502 77.468L168.175 76.2656C168.218 76.172 168.285 76.0919 168.37 76.034C168.454 75.976 168.553 75.9425 168.656 75.9369C168.719 75.936 168.782 75.9483 168.84 75.9732C168.898 75.998 168.95 76.0349 168.993 76.0812C169.04 76.1253 169.077 76.1787 169.102 76.2381C169.127 76.2976 169.139 76.3615 169.137 76.4259C169.136 76.5397 169.103 76.6509 169.041 76.7466L168.335 77.8768L169.802 77.8367C169.871 77.8327 169.939 77.8435 170.003 77.8684C170.066 77.8933 170.124 77.9317 170.171 77.981C170.253 78.0769 170.299 78.1992 170.299 78.3257C170.299 78.4521 170.253 78.5744 170.171 78.6704C170.124 78.7196 170.066 78.758 170.003 78.7829C169.939 78.8079 169.871 78.8187 169.802 78.8147H168.319L168.977 79.8407C169.051 79.9645 169.092 80.1052 169.097 80.2495C169.099 80.3144 169.088 80.3792 169.065 80.4398C169.041 80.5004 169.006 80.5557 168.961 80.6022C168.918 80.6472 168.868 80.6832 168.811 80.708C168.755 80.7327 168.694 80.7458 168.632 80.7465C168.533 80.7441 168.436 80.7133 168.354 80.658C168.272 80.6026 168.207 80.5248 168.167 80.4338L167.502 79.2555L166.836 80.4338C166.793 80.5169 166.729 80.5872 166.65 80.6378C166.572 80.6885 166.481 80.7176 166.388 80.7224Z" fill="black"/>
<path d="M173.746 80.7224C173.683 80.7224 173.621 80.7096 173.563 80.6848C173.505 80.66 173.453 80.6237 173.41 80.5781C173.362 80.531 173.325 80.4747 173.3 80.4127C173.275 80.3507 173.263 80.2842 173.265 80.2174C173.269 80.1051 173.299 79.9952 173.353 79.8968L174.075 78.7745H172.608C172.54 78.7797 172.471 78.7694 172.407 78.7444C172.343 78.7194 172.286 78.6804 172.239 78.6302C172.152 78.5367 172.103 78.4135 172.103 78.2856C172.103 78.1576 172.152 78.0344 172.239 77.9409C172.286 77.8907 172.343 77.8517 172.407 77.8267C172.471 77.8017 172.54 77.7915 172.608 77.7966L174.051 77.8367L173.369 76.7545C173.305 76.6478 173.269 76.5264 173.265 76.4018C173.263 76.3363 173.274 76.271 173.298 76.2098C173.321 76.1486 173.357 76.0928 173.403 76.0457C173.448 75.9986 173.503 75.9611 173.563 75.9355C173.624 75.91 173.689 75.8968 173.754 75.8968C173.844 75.8955 173.932 75.9206 174.008 75.9691C174.083 76.0176 174.143 76.0872 174.179 76.1694L174.884 77.4279L175.558 76.2255C175.6 76.1319 175.667 76.0518 175.752 75.9939C175.837 75.9359 175.936 75.9023 176.039 75.8968C176.102 75.8948 176.165 75.9067 176.223 75.9316C176.281 75.9565 176.333 75.9939 176.375 76.0411C176.422 76.0852 176.46 76.1386 176.484 76.198C176.509 76.2574 176.521 76.3214 176.52 76.3858C176.519 76.4996 176.485 76.6108 176.423 76.7064L175.718 77.8367L177.185 77.7966C177.253 77.7926 177.322 77.8034 177.385 77.8283C177.449 77.8532 177.506 77.8916 177.554 77.9409C177.636 78.0368 177.681 78.1591 177.681 78.2856C177.681 78.412 177.636 78.5343 177.554 78.6302C177.506 78.6795 177.449 78.7179 177.385 78.7428C177.322 78.7677 177.253 78.7786 177.185 78.7745H175.702L176.359 79.8006C176.434 79.9244 176.475 80.0651 176.48 80.2094C176.482 80.2725 176.471 80.3355 176.449 80.3947C176.427 80.4539 176.393 80.5081 176.35 80.5542C176.307 80.6004 176.255 80.6376 176.198 80.6637C176.14 80.6898 176.078 80.7043 176.015 80.7064C175.915 80.7039 175.819 80.6732 175.737 80.6179C175.654 80.5625 175.589 80.4847 175.55 80.3937L174.884 79.2154L174.219 80.3937C174.18 80.4878 174.114 80.5686 174.03 80.6268C173.947 80.685 173.848 80.7182 173.746 80.7224Z" fill="black"/>
<path d="M181.105 80.7224C181.042 80.7224 180.98 80.7096 180.922 80.6848C180.864 80.66 180.812 80.6237 180.768 80.5781C180.721 80.531 180.683 80.4747 180.659 80.4127C180.634 80.3507 180.622 80.2842 180.624 80.2174C180.628 80.1051 180.658 79.9952 180.712 79.8968L181.433 78.7745H179.959C179.892 78.7785 179.824 78.7676 179.762 78.7426C179.7 78.7177 179.644 78.6793 179.598 78.6302C179.511 78.5367 179.462 78.4135 179.462 78.2856C179.462 78.1576 179.511 78.0344 179.598 77.9409C179.644 77.8918 179.7 77.8534 179.762 77.8285C179.824 77.8035 179.892 77.7927 179.959 77.7966L181.409 77.8367L180.728 76.7545C180.664 76.6478 180.628 76.5264 180.624 76.4018C180.622 76.3363 180.633 76.271 180.656 76.2098C180.68 76.1486 180.716 76.0928 180.761 76.0457C180.807 75.9986 180.862 75.9611 180.922 75.9355C180.982 75.91 181.047 75.8968 181.113 75.8968C181.203 75.8955 181.291 75.9206 181.366 75.9691C181.442 76.0176 181.501 76.0872 181.538 76.1694L182.243 77.4279L182.916 76.2255C182.959 76.1319 183.026 76.0518 183.111 75.9939C183.196 75.9359 183.295 75.9023 183.397 75.8968C183.461 75.8948 183.524 75.9067 183.582 75.9316C183.64 75.9565 183.692 75.9939 183.734 76.0411C183.781 76.0852 183.818 76.1386 183.843 76.198C183.868 76.2574 183.88 76.3214 183.878 76.3858C183.877 76.4996 183.844 76.6108 183.782 76.7064L183.077 77.8367L184.544 77.7966C184.612 77.7926 184.68 77.8034 184.744 77.8283C184.807 77.8532 184.865 77.8916 184.912 77.9409C184.995 78.0368 185.04 78.1591 185.04 78.2856C185.04 78.412 184.995 78.5343 184.912 78.6302C184.865 78.6795 184.807 78.7179 184.744 78.7428C184.68 78.7677 184.612 78.7786 184.544 78.7745H183.061L183.718 79.8006C183.792 79.9244 183.834 80.0651 183.838 80.2094C183.84 80.2725 183.83 80.3355 183.808 80.3947C183.786 80.4539 183.752 80.5081 183.709 80.5542C183.666 80.6004 183.614 80.6376 183.556 80.6637C183.499 80.6898 183.436 80.7043 183.373 80.7064C183.274 80.7039 183.178 80.6732 183.095 80.6179C183.013 80.5625 182.948 80.4847 182.908 80.3937L182.243 79.2154L181.578 80.3937C181.538 80.4878 181.473 80.5686 181.389 80.6268C181.305 80.685 181.207 80.7182 181.105 80.7224Z" fill="black"/>
<path d="M188.431 80.7224C188.368 80.7224 188.306 80.7096 188.248 80.6848C188.19 80.66 188.138 80.6237 188.095 80.5781C188.047 80.531 188.01 80.4747 187.985 80.4127C187.96 80.3507 187.948 80.2842 187.95 80.2174C187.954 80.1051 187.984 79.9952 188.038 79.8968L188.76 78.7745H187.285C187.218 78.7785 187.151 78.7676 187.089 78.7426C187.026 78.7177 186.97 78.6793 186.924 78.6302C186.837 78.5367 186.788 78.4135 186.788 78.2856C186.788 78.1576 186.837 78.0344 186.924 77.9409C186.97 77.8918 187.026 77.8534 187.089 77.8285C187.151 77.8035 187.218 77.7927 187.285 77.7966L188.736 77.8367L188.054 76.7545C187.99 76.6478 187.954 76.5264 187.95 76.4018C187.948 76.335 187.96 76.2686 187.985 76.2065C188.01 76.1445 188.047 76.0882 188.095 76.0411C188.139 75.9953 188.193 75.9589 188.252 75.9341C188.312 75.9094 188.375 75.8967 188.439 75.8968C188.529 75.8955 188.617 75.9206 188.693 75.9691C188.768 76.0176 188.828 76.0872 188.864 76.1694L189.569 77.4279L190.243 76.2255C190.285 76.1319 190.352 76.0518 190.437 75.9939C190.522 75.9359 190.621 75.9023 190.724 75.8968C190.787 75.8948 190.85 75.9067 190.908 75.9316C190.966 75.9565 191.018 75.9939 191.06 76.0411C191.107 76.0852 191.145 76.1386 191.169 76.198C191.194 76.2574 191.206 76.3214 191.205 76.3858C191.204 76.4996 191.17 76.6108 191.109 76.7064L190.403 77.8367L191.87 77.7966C191.938 77.7926 192.007 77.8034 192.07 77.8283C192.134 77.8532 192.191 77.8916 192.239 77.9409C192.321 78.0368 192.366 78.1591 192.366 78.2856C192.366 78.412 192.321 78.5343 192.239 78.6302C192.191 78.6795 192.134 78.7179 192.07 78.7428C192.007 78.7677 191.938 78.7786 191.87 78.7745H190.387L191.044 79.8006C191.119 79.9244 191.16 80.0651 191.165 80.2094C191.167 80.2743 191.156 80.3391 191.133 80.3997C191.109 80.4603 191.074 80.5155 191.028 80.5621C190.986 80.6071 190.935 80.643 190.879 80.6678C190.822 80.6926 190.761 80.7057 190.7 80.7064C190.6 80.7039 190.504 80.6732 190.422 80.6179C190.339 80.5625 190.274 80.4847 190.235 80.3937L189.569 79.2154L188.904 80.3937C188.865 80.4878 188.799 80.5686 188.715 80.6268C188.632 80.685 188.533 80.7182 188.431 80.7224Z" fill="black"/>
<path d="M213.649 98.4544H223.453" stroke="white" stroke-width="3" stroke-linecap="round" stroke-linejoin="round"/>
<path d="M77.676 26.2689V91.384C77.676 93.2698 78.4251 95.0783 79.7585 96.4118C81.0919 97.7452 82.9004 98.4943 84.7861 98.4943H204.343" stroke="white" stroke-width="3" stroke-linecap="round" stroke-linejoin="round"/>
<path d="M77.676 9.00214V18.7655" stroke="white" stroke-width="3" stroke-linecap="round" stroke-linejoin="round"/>
</svg>
