<svg width="20" height="21" viewBox="0 0 20 21" fill="none" xmlns="http://www.w3.org/2000/svg">
<path d="M7.13478 19.4137V16.356C7.13478 15.5754 7.77217 14.9427 8.55844 14.9427H11.4326C11.8102 14.9427 12.1723 15.0916 12.4393 15.3566C12.7063 15.6217 12.8563 15.9812 12.8563 16.356V19.4137C12.8539 19.7382 12.9821 20.0503 13.2124 20.2806C13.4427 20.5109 13.7561 20.6404 14.0829 20.6404H16.0438C16.9596 20.6427 17.8388 20.2832 18.4872 19.6412C19.1356 18.9992 19.5 18.1274 19.5 17.2182V8.50724C19.5 7.77284 19.1721 7.07622 18.6046 6.60505L11.934 1.31625C10.7737 0.388943 9.11111 0.418883 7.98539 1.38736L1.46701 6.60505C0.872741 7.06233 0.517552 7.76102 0.5 8.50724V17.2093C0.5 19.1042 2.04738 20.6404 3.95617 20.6404H5.87229C6.55123 20.6404 7.103 20.0966 7.10792 19.4226L7.13478 19.4137Z" fill="#505050"/>
</svg>
