<svg width="360" height="150" viewBox="0 0 360 150" fill="none" xmlns="http://www.w3.org/2000/svg">
<rect width="360" height="150" rx="10" fill="#0C2172"/>
<path d="M135.744 124.364V136H133.619L128.557 128.676H128.472V136H126.011V124.364H128.17L133.193 131.682H133.295V124.364H135.744ZM141.675 136.17C140.792 136.17 140.029 135.983 139.385 135.608C138.745 135.229 138.25 134.703 137.902 134.028C137.554 133.35 137.379 132.564 137.379 131.67C137.379 130.769 137.554 129.981 137.902 129.307C138.25 128.629 138.745 128.102 139.385 127.727C140.029 127.348 140.792 127.159 141.675 127.159C142.557 127.159 143.319 127.348 143.959 127.727C144.603 128.102 145.099 128.629 145.447 129.307C145.796 129.981 145.97 130.769 145.97 131.67C145.97 132.564 145.796 133.35 145.447 134.028C145.099 134.703 144.603 135.229 143.959 135.608C143.319 135.983 142.557 136.17 141.675 136.17ZM141.686 134.295C142.088 134.295 142.423 134.182 142.692 133.955C142.961 133.723 143.163 133.409 143.3 133.011C143.44 132.614 143.51 132.161 143.51 131.653C143.51 131.146 143.44 130.693 143.3 130.295C143.163 129.898 142.961 129.583 142.692 129.352C142.423 129.121 142.088 129.006 141.686 129.006C141.281 129.006 140.94 129.121 140.663 129.352C140.391 129.583 140.184 129.898 140.044 130.295C139.908 130.693 139.839 131.146 139.839 131.653C139.839 132.161 139.908 132.614 140.044 133.011C140.184 133.409 140.391 133.723 140.663 133.955C140.94 134.182 141.281 134.295 141.686 134.295ZM155.399 127.273L152.348 136H149.621L146.57 127.273H149.126L150.939 133.517H151.03L152.837 127.273H155.399ZM160.3 136.17C159.417 136.17 158.654 135.983 158.01 135.608C157.37 135.229 156.875 134.703 156.527 134.028C156.179 133.35 156.004 132.564 156.004 131.67C156.004 130.769 156.179 129.981 156.527 129.307C156.875 128.629 157.37 128.102 158.01 127.727C158.654 127.348 159.417 127.159 160.3 127.159C161.182 127.159 161.944 127.348 162.584 127.727C163.228 128.102 163.724 128.629 164.072 129.307C164.421 129.981 164.595 130.769 164.595 131.67C164.595 132.564 164.421 133.35 164.072 134.028C163.724 134.703 163.228 135.229 162.584 135.608C161.944 135.983 161.182 136.17 160.3 136.17ZM160.311 134.295C160.713 134.295 161.048 134.182 161.317 133.955C161.586 133.723 161.788 133.409 161.925 133.011C162.065 132.614 162.135 132.161 162.135 131.653C162.135 131.146 162.065 130.693 161.925 130.295C161.788 129.898 161.586 129.583 161.317 129.352C161.048 129.121 160.713 129.006 160.311 129.006C159.906 129.006 159.565 129.121 159.288 129.352C159.016 129.583 158.809 129.898 158.669 130.295C158.533 130.693 158.464 131.146 158.464 131.653C158.464 132.161 158.533 132.614 158.669 133.011C158.809 133.409 159.016 133.723 159.288 133.955C159.565 134.182 159.906 134.295 160.311 134.295ZM169.918 136V124.364H174.509C175.387 124.364 176.137 124.521 176.759 124.835C177.384 125.146 177.859 125.587 178.185 126.159C178.514 126.727 178.679 127.396 178.679 128.165C178.679 128.937 178.512 129.602 178.179 130.159C177.846 130.712 177.363 131.136 176.73 131.432C176.101 131.727 175.34 131.875 174.446 131.875H171.372V129.898H174.048C174.518 129.898 174.908 129.833 175.219 129.705C175.529 129.576 175.76 129.383 175.912 129.125C176.067 128.867 176.145 128.547 176.145 128.165C176.145 127.778 176.067 127.453 175.912 127.188C175.76 126.922 175.527 126.722 175.213 126.585C174.902 126.445 174.51 126.375 174.037 126.375H172.378V136H169.918ZM176.202 130.705L179.094 136H176.378L173.548 130.705H176.202ZM184.209 136.17C183.311 136.17 182.538 135.989 181.891 135.625C181.247 135.258 180.75 134.739 180.402 134.068C180.054 133.394 179.879 132.597 179.879 131.676C179.879 130.778 180.054 129.991 180.402 129.312C180.75 128.634 181.241 128.106 181.874 127.727C182.51 127.348 183.256 127.159 184.112 127.159C184.688 127.159 185.224 127.252 185.72 127.438C186.22 127.619 186.656 127.894 187.027 128.261C187.402 128.629 187.694 129.091 187.902 129.648C188.11 130.201 188.214 130.848 188.214 131.591V132.256H180.845V130.756H185.936C185.936 130.407 185.86 130.098 185.709 129.83C185.557 129.561 185.347 129.35 185.078 129.199C184.813 129.044 184.504 128.966 184.152 128.966C183.785 128.966 183.459 129.051 183.175 129.222C182.894 129.388 182.675 129.614 182.516 129.898C182.357 130.178 182.275 130.491 182.271 130.835V132.261C182.271 132.693 182.351 133.066 182.51 133.381C182.673 133.695 182.902 133.938 183.197 134.108C183.493 134.278 183.843 134.364 184.249 134.364C184.518 134.364 184.764 134.326 184.987 134.25C185.211 134.174 185.402 134.061 185.561 133.909C185.72 133.758 185.841 133.572 185.925 133.352L188.163 133.5C188.05 134.038 187.817 134.508 187.464 134.909C187.116 135.307 186.665 135.617 186.112 135.841C185.563 136.061 184.929 136.17 184.209 136.17ZM193.726 139.455C192.942 139.455 192.269 139.347 191.709 139.131C191.152 138.919 190.709 138.629 190.379 138.261C190.05 137.894 189.836 137.481 189.737 137.023L191.976 136.722C192.044 136.896 192.152 137.059 192.3 137.21C192.447 137.362 192.643 137.483 192.885 137.574C193.131 137.669 193.43 137.716 193.783 137.716C194.309 137.716 194.743 137.587 195.084 137.33C195.429 137.076 195.601 136.65 195.601 136.051V134.455H195.499C195.393 134.697 195.233 134.926 195.021 135.142C194.809 135.358 194.536 135.534 194.203 135.67C193.87 135.807 193.472 135.875 193.01 135.875C192.355 135.875 191.758 135.723 191.22 135.42C190.686 135.114 190.26 134.646 189.942 134.017C189.627 133.384 189.47 132.585 189.47 131.619C189.47 130.631 189.631 129.805 189.953 129.142C190.275 128.479 190.703 127.983 191.237 127.653C191.775 127.324 192.364 127.159 193.004 127.159C193.493 127.159 193.902 127.242 194.232 127.409C194.561 127.572 194.826 127.777 195.027 128.023C195.232 128.265 195.389 128.504 195.499 128.739H195.589V127.273H197.993V136.085C197.993 136.828 197.811 137.449 197.447 137.949C197.084 138.449 196.58 138.824 195.936 139.074C195.296 139.328 194.559 139.455 193.726 139.455ZM193.777 134.057C194.167 134.057 194.497 133.96 194.766 133.767C195.038 133.57 195.247 133.29 195.391 132.926C195.538 132.559 195.612 132.119 195.612 131.608C195.612 131.097 195.54 130.653 195.396 130.278C195.252 129.9 195.044 129.606 194.771 129.398C194.499 129.189 194.167 129.085 193.777 129.085C193.379 129.085 193.044 129.193 192.771 129.409C192.499 129.621 192.292 129.917 192.152 130.295C192.012 130.674 191.942 131.112 191.942 131.608C191.942 132.112 192.012 132.547 192.152 132.915C192.296 133.278 192.502 133.561 192.771 133.761C193.044 133.958 193.379 134.057 193.777 134.057ZM199.919 136V127.273H202.339V136H199.919ZM201.135 126.148C200.775 126.148 200.466 126.028 200.209 125.79C199.955 125.547 199.828 125.258 199.828 124.92C199.828 124.587 199.955 124.301 200.209 124.062C200.466 123.82 200.775 123.699 201.135 123.699C201.495 123.699 201.802 123.82 202.055 124.062C202.313 124.301 202.442 124.587 202.442 124.92C202.442 125.258 202.313 125.547 202.055 125.79C201.802 126.028 201.495 126.148 201.135 126.148ZM211.54 129.761L209.324 129.898C209.286 129.708 209.205 129.538 209.08 129.386C208.955 129.231 208.79 129.108 208.585 129.017C208.384 128.922 208.144 128.875 207.864 128.875C207.489 128.875 207.172 128.955 206.915 129.114C206.657 129.269 206.528 129.477 206.528 129.739C206.528 129.947 206.612 130.123 206.778 130.267C206.945 130.411 207.231 130.527 207.636 130.614L209.216 130.932C210.064 131.106 210.697 131.386 211.114 131.773C211.53 132.159 211.739 132.667 211.739 133.295C211.739 133.867 211.57 134.369 211.233 134.801C210.9 135.233 210.441 135.57 209.858 135.812C209.278 136.051 208.61 136.17 207.852 136.17C206.697 136.17 205.777 135.93 205.091 135.449C204.409 134.964 204.009 134.305 203.892 133.472L206.273 133.347C206.345 133.699 206.519 133.968 206.795 134.153C207.072 134.335 207.426 134.426 207.858 134.426C208.282 134.426 208.623 134.345 208.881 134.182C209.142 134.015 209.275 133.801 209.278 133.54C209.275 133.32 209.182 133.14 209 133C208.818 132.856 208.538 132.746 208.159 132.67L206.648 132.369C205.795 132.199 205.161 131.903 204.744 131.483C204.331 131.062 204.125 130.527 204.125 129.875C204.125 129.314 204.277 128.831 204.58 128.426C204.886 128.021 205.316 127.708 205.869 127.489C206.426 127.269 207.078 127.159 207.824 127.159C208.926 127.159 209.794 127.392 210.426 127.858C211.063 128.324 211.434 128.958 211.54 129.761ZM217.905 127.273V129.091H212.649V127.273H217.905ZM213.842 125.182H216.263V133.318C216.263 133.542 216.297 133.716 216.365 133.841C216.433 133.962 216.528 134.047 216.649 134.097C216.774 134.146 216.918 134.17 217.081 134.17C217.195 134.17 217.308 134.161 217.422 134.142C217.536 134.119 217.623 134.102 217.683 134.091L218.064 135.892C217.943 135.93 217.772 135.973 217.553 136.023C217.333 136.076 217.066 136.108 216.751 136.119C216.168 136.142 215.657 136.064 215.217 135.886C214.782 135.708 214.443 135.432 214.2 135.057C213.958 134.682 213.839 134.208 213.842 133.636V125.182ZM219.482 136V127.273H221.828V128.795H221.919C222.078 128.254 222.345 127.845 222.72 127.568C223.095 127.288 223.527 127.148 224.016 127.148C224.137 127.148 224.268 127.155 224.408 127.17C224.548 127.186 224.671 127.206 224.777 127.233V129.381C224.663 129.347 224.506 129.316 224.305 129.29C224.105 129.263 223.921 129.25 223.754 129.25C223.398 129.25 223.08 129.328 222.8 129.483C222.523 129.634 222.304 129.847 222.141 130.119C221.982 130.392 221.902 130.706 221.902 131.062V136H219.482ZM229.565 136.17C228.683 136.17 227.92 135.983 227.276 135.608C226.635 135.229 226.141 134.703 225.793 134.028C225.444 133.35 225.27 132.564 225.27 131.67C225.27 130.769 225.444 129.981 225.793 129.307C226.141 128.629 226.635 128.102 227.276 127.727C227.92 127.348 228.683 127.159 229.565 127.159C230.448 127.159 231.209 127.348 231.849 127.727C232.493 128.102 232.99 128.629 233.338 129.307C233.687 129.981 233.861 130.769 233.861 131.67C233.861 132.564 233.687 133.35 233.338 134.028C232.99 134.703 232.493 135.229 231.849 135.608C231.209 135.983 230.448 136.17 229.565 136.17ZM229.577 134.295C229.978 134.295 230.313 134.182 230.582 133.955C230.851 133.723 231.054 133.409 231.19 133.011C231.33 132.614 231.401 132.161 231.401 131.653C231.401 131.146 231.33 130.693 231.19 130.295C231.054 129.898 230.851 129.583 230.582 129.352C230.313 129.121 229.978 129.006 229.577 129.006C229.171 129.006 228.83 129.121 228.554 129.352C228.281 129.583 228.075 129.898 227.935 130.295C227.798 130.693 227.73 131.146 227.73 131.653C227.73 132.161 227.798 132.614 227.935 133.011C228.075 133.409 228.281 133.723 228.554 133.955C228.83 134.182 229.171 134.295 229.577 134.295Z" fill="#FDD105"/>
<path d="M227.501 18.1479H221.852V12.4994C221.852 11.1247 220.727 10 219.353 10C217.978 10 216.853 11.1247 216.853 12.4994V18.1479H211.205C209.83 18.1479 208.705 19.2726 208.705 20.6473C208.705 22.0219 209.83 23.1466 211.205 23.1466H216.853V28.7952C216.853 30.1698 217.978 31.2946 219.353 31.2946C220.727 31.2946 221.852 30.1698 221.852 28.7952V23.1466H227.501C228.875 23.1466 230 22.0219 230 20.6473C230 19.2726 228.875 18.1479 227.501 18.1479Z" fill="#FDD105"/>
<path d="M205.031 58.6625C209.105 55.2383 211.679 50.0897 211.679 44.3411C211.679 34.0938 203.456 25.7459 193.359 25.7459C188.785 25.7459 184.411 27.5204 181.087 30.5697C177.163 23.5465 169.715 19.0476 161.492 19.0476C149.095 19.0476 138.998 29.145 138.998 41.5419C138.998 49.3149 142.972 56.1881 148.97 60.2121C137.973 63.4362 130 72.6589 130 83.5311V105.875C130 107.25 131.125 108.375 132.499 108.375H190.485C191.859 108.375 192.984 107.25 192.984 105.875V101.252H219.202C220.577 101.252 221.702 100.127 221.702 98.7522V79.4572C221.702 69.4597 214.603 61.0619 205.031 58.6375V58.6625ZM193.359 30.7196C200.707 30.7196 206.68 36.8181 206.68 44.3161C206.68 51.8142 200.707 57.9127 193.359 57.9127C188.585 57.9127 184.186 55.2633 181.812 51.0894C181.862 50.9894 181.912 50.8645 181.962 50.7395C182.187 50.2396 182.387 49.7647 182.587 49.2649C182.786 48.74 182.961 48.2151 183.111 47.6653C183.186 47.4153 183.261 47.1904 183.311 46.9405C183.761 45.1659 184.011 43.3664 184.011 41.5169C184.011 41.1919 183.961 40.867 183.936 40.5421C183.936 40.1172 183.886 39.6923 183.836 39.2674C183.786 38.8425 183.736 38.4426 183.686 38.0178C183.561 37.2929 183.411 36.5931 183.236 35.8683C183.211 35.7683 183.211 35.6684 183.161 35.5684C185.686 32.5192 189.41 30.7196 193.359 30.7196ZM178.363 61.8367C176.938 61.1618 175.463 60.637 173.939 60.2121C175.813 58.9624 177.488 57.4378 178.937 55.6632C180.312 57.4628 181.987 58.9874 183.861 60.1621C182.587 60.8869 181.387 61.7867 180.212 62.8114C179.612 62.4865 179.012 62.1366 178.363 61.8117V61.8367ZM143.996 41.5169C143.996 31.8693 151.844 24.0213 161.492 24.0213C168.94 24.0213 175.563 28.7701 178.013 35.8183C178.663 37.6928 178.987 39.6173 178.987 41.5169C178.987 43.4164 178.663 45.1659 178.088 46.9155C177.738 47.9152 177.338 48.915 176.813 49.8397C176.788 49.8897 176.813 49.9647 176.763 50.0147C173.814 55.3133 168.34 58.6625 162.342 58.9624H160.317C151.22 58.3625 143.971 50.7895 143.971 41.5169H143.996ZM187.985 103.376H135.024V83.5311C135.024 72.7339 145.171 63.9611 157.618 63.9611H160.342C160.717 63.9611 161.117 64.0111 161.492 64.0111C161.792 64.0111 162.067 63.9611 162.367 63.9611H165.391C169.19 63.9611 172.914 64.7859 176.213 66.3605C182.762 69.4597 187.01 73.4337 187.985 83.6561V103.376ZM216.703 96.2529H192.984V83.5311C192.984 83.5311 192.984 83.3812 192.984 83.3062C192.234 75.3082 189.685 69.8096 184.611 65.7107C187.31 63.6612 189.61 62.9364 193.234 62.9364H199.382C208.955 62.9364 216.728 70.3595 216.728 79.4821V96.2778L216.703 96.2529Z" fill="#FDD105"/>
</svg>
