<svg width="170" height="150" viewBox="0 0 170 150" fill="none" xmlns="http://www.w3.org/2000/svg">
<rect width="170" height="150" rx="10" fill="#0C2172"/>
<path d="M85.3572 63.7679C85.3572 60.3642 82.1826 57.1975 82.1826 53.7938V43.9985C82.1826 43.1571 81.4731 42.4769 80.5953 42.4769C79.7175 42.4769 79.008 43.1571 79.008 43.9985V53.7939C79.008 57.1975 75.8334 60.3642 75.8334 63.7679C75.8334 64.5863 76.061 65.3524 76.4583 66.0141C77.4837 67.722 79.008 69.3896 79.008 71.3817C79.008 72.2231 79.7175 72.9032 80.5953 72.9032C81.4731 72.9032 82.1826 72.2231 82.1826 71.3817C82.1826 69.3896 83.707 67.722 84.7323 66.0141C85.1296 65.3524 85.3572 64.5863 85.3572 63.7679ZM80.5953 65.2894C79.7191 65.2894 79.008 64.6078 79.008 63.7679C79.008 62.928 79.7191 62.2463 80.5953 62.2463C81.4715 62.2463 82.1826 62.928 82.1826 63.7679C82.1826 64.6078 81.4715 65.2894 80.5953 65.2894Z" fill="#FDD105"/>
<path d="M42.5 69.8617C42.5 89.9962 59.5905 106.379 80.5952 106.379C85.4512 106.379 90.1913 105.496 94.6195 103.805C98.5333 102.311 102.991 102.669 106.847 104.309C109.984 105.643 113.455 106.385 117.103 106.385C128.952 106.385 138.904 98.5577 141.695 88.021C141.735 87.8708 141.77 87.7183 141.814 87.5694C142.246 85.7907 142.5 83.9451 142.5 82.0416C142.5 71.6376 135.65 62.7565 126.047 59.2876C121.609 57.6846 117.696 54.349 115.851 50.0065C112.212 41.4423 105.296 34.5522 96.6779 30.6808C93.3165 29.1709 91.6905 23.3327 91.6905 19.6477C91.6905 13.7776 86.7064 9 80.5825 9C74.4587 9 69.4746 13.7776 69.4746 19.6477C69.4746 23.3337 67.8474 29.179 64.485 30.689C51.5097 36.516 42.5 49.1499 42.5 63.7679V69.8617ZM78.5392 103.278C75.037 103.082 77.0875 100.285 80.5952 100.285C85.9312 100.285 91.2345 99.1882 96.0778 97.1245C96.5737 96.9132 97.1494 97.0526 97.5003 97.4617C97.9983 98.0424 97.8734 98.9471 97.1947 99.3C92.1173 101.94 86.4468 103.336 80.5952 103.336C79.9051 103.336 79.2196 103.316 78.5392 103.278ZM84.5457 92.4298C83.2438 92.5921 81.9072 91.1633 80.5952 91.1633C79.2957 91.1633 77.9776 92.5581 76.6879 92.398C74.0175 92.0665 71.4562 91.403 69.05 90.4454C67.866 89.9742 67.4291 88.1014 66.3143 87.4842C65.1469 86.8376 63.2768 87.4354 62.2042 86.6413C60.1476 85.1187 58.3027 83.3485 56.7163 81.3755C55.9191 80.384 56.5134 78.5516 55.8571 77.4618C55.1712 76.3184 53.2419 75.9489 52.7169 74.7233C51.7568 72.4819 51.0867 70.1004 50.7428 67.6197C50.5646 66.3345 52.0276 65.0684 52.0302 63.7709C52.0327 62.4697 50.5635 61.2006 50.7428 59.9118C51.1646 56.8799 52.0727 53.9957 53.4025 51.3339C53.591 50.9566 54.0592 50.8394 54.481 50.8394C55.0302 50.8394 55.5635 50.567 55.8556 50.0801C56.5159 48.9894 55.9191 47.1507 56.7183 46.1572C58.4724 43.9763 60.543 42.0429 62.8652 40.4181C63.5851 39.9144 64.642 40.2601 65.5206 40.2601C65.7905 40.2601 66.0635 40.1947 66.3127 40.0562C67.4292 39.4361 67.8685 37.5601 69.0552 37.088C71.4537 36.1338 74.0066 35.472 76.6677 35.14C77.9628 34.9785 79.2901 36.3878 80.5952 36.3878C81.9026 36.3878 83.234 34.9729 84.5311 35.1361C87.1873 35.4701 89.7441 36.1356 92.1507 37.0965C93.3331 37.5687 93.7699 39.4339 94.8857 40.0471C95.1349 40.1855 95.4079 40.251 95.6762 40.251C96.5417 40.251 97.5779 39.9183 98.2884 40.4126C100.621 42.0356 102.711 43.9672 104.479 46.1557C105.279 47.1464 104.685 48.982 105.343 50.0725C105.638 50.5609 106.17 50.8333 106.719 50.8333C107.139 50.8333 107.605 50.95 107.793 51.3261C108.326 52.3931 108.792 53.4972 109.186 54.6341C109.951 56.8389 108.484 59.0578 106.356 60.0142C97.7116 63.8979 91.7063 72.3025 91.7063 82.0416C91.7063 83.9588 91.9635 85.815 92.4016 87.6059C92.4363 87.7237 92.4646 87.8455 92.4956 87.9644C92.8061 89.151 92.2779 90.4451 91.1236 90.86C88.9995 91.6236 86.8019 92.1485 84.5457 92.4298ZM117.103 103.342C107.811 103.342 99.8556 97.8374 96.5431 90.0604C96.2883 89.4621 96.4524 88.7744 96.9219 88.3244C97.5556 87.7169 98.5555 87.7169 99.1892 88.3244L100.108 89.205C100.417 89.5017 100.824 89.6509 101.23 89.6509C101.637 89.6509 102.043 89.5017 102.352 89.205C103.5 88.1053 105.31 88.1053 106.457 89.205C106.767 89.5017 107.173 89.6509 107.579 89.6509C107.986 89.6509 108.394 89.5017 108.703 89.205C109.85 88.1053 111.661 88.1053 112.808 89.205C113.117 89.5017 113.524 89.6509 113.93 89.6509C114.337 89.6509 114.743 89.5017 115.052 89.205C116.2 88.1053 118.01 88.1053 119.157 89.205C119.467 89.5017 119.873 89.6509 120.279 89.6509C120.686 89.6509 121.092 89.5017 121.402 89.205C122.546 88.1071 124.357 88.1106 125.502 89.2081C125.811 89.5048 126.217 89.6539 126.624 89.6539C127.03 89.6539 127.437 89.5048 127.746 89.2081C127.748 89.2066 127.749 89.2066 127.751 89.205C128.898 88.1053 130.708 88.1053 131.856 89.205C132.165 89.5017 132.571 89.6509 132.978 89.6509C133.384 89.6509 133.79 89.5017 134.1 89.205L135.019 88.3244C135.652 87.717 136.652 87.7172 137.286 88.3248C137.754 88.7746 137.918 89.4617 137.664 90.0595C134.353 97.8369 126.396 103.342 117.103 103.342ZM120.722 84.627C120.986 84.8791 120.986 85.2996 120.723 85.552C120.475 85.79 120.084 85.7901 119.835 85.5523L118.227 84.0105C117.606 83.4156 116.603 83.4156 115.983 84.0105L114.376 85.5508C114.127 85.7895 113.734 85.7895 113.485 85.5508C113.22 85.2975 113.22 84.8749 113.485 84.6215L115.136 83.0377C116.234 81.9851 117.966 81.9849 119.064 83.0373L120.722 84.627ZM139.325 82.0416C139.325 82.466 139.31 82.8863 139.28 83.3031C139.209 84.3121 138.005 84.7108 137.275 84.0105C136.654 83.4156 135.651 83.4156 135.03 84.0105C133.883 85.1102 132.073 85.1102 130.925 84.0105C130.305 83.4156 129.302 83.4156 128.681 84.0105L128.656 84.0341C127.52 85.1225 125.728 85.1221 124.592 84.0333C124.584 84.0257 124.583 84.0166 124.576 84.0105C124.57 84.0044 124.559 84.0014 124.552 83.9953L113.462 73.3643C112.841 72.7693 111.838 72.7693 111.217 73.3643L104.871 79.4474C104.251 80.0423 104.251 81.0039 104.871 81.5989C105.181 81.8956 105.587 82.0447 105.994 82.0447C106.4 82.0447 106.806 81.8956 107.116 81.5989L111.135 77.7464C111.808 77.1008 112.871 77.1008 113.545 77.7464C114.259 78.4317 114.26 79.5746 113.545 80.26L109.633 84.0105C108.486 85.1099 106.674 85.1104 105.527 84.0105C104.906 83.4156 103.903 83.4156 103.283 84.0105C102.135 85.1102 100.325 85.1102 99.1778 84.0105C98.5571 83.4156 97.554 83.4156 96.9333 84.0105C96.2024 84.7111 94.9971 84.3119 94.926 83.302C94.8967 82.8853 94.881 82.4652 94.881 82.0416C94.881 70.2968 104.849 60.7431 117.103 60.7431C129.357 60.7431 139.325 70.2968 139.325 82.0416ZM72.6492 19.6477C72.6492 15.4544 76.2079 12.0431 80.5825 12.0431C84.9571 12.0431 88.5159 15.4544 88.5159 19.6477C88.5159 22.7829 86.5265 25.4801 83.695 26.6416C82.9373 26.9525 82.1825 26.3333 82.1825 25.5143C82.1825 24.7961 82.7648 24.2139 83.483 24.2139H83.7698C84.6476 24.2139 85.3571 23.5338 85.3571 22.6924C85.3571 21.8509 84.6476 21.1708 83.7698 21.1708H77.4206C76.5429 21.1708 75.8333 21.8509 75.8333 22.6924C75.8333 23.5338 76.5429 24.2139 77.4206 24.2139H77.7039C78.4241 24.2139 79.0079 24.7977 79.0079 25.5179C79.0079 26.3376 78.2539 26.9583 77.4945 26.6497C74.65 25.4938 72.6492 22.7911 72.6492 19.6477ZM80.5952 30.294C97.2113 30.294 111.445 41.602 114.758 56.9651C114.854 57.4119 114.528 57.8378 114.075 57.8957C113.667 57.9477 113.29 57.6775 113.203 57.2759C112.482 53.9299 111.225 50.7858 109.51 47.9241C109.489 47.8815 109.489 47.8328 109.463 47.7917C109.432 47.74 109.381 47.7095 109.346 47.6639C106.441 42.9258 102.319 38.9805 97.4016 36.2143C97.3524 36.1793 97.3175 36.1276 97.2619 36.0971C97.1236 36.0235 96.9692 35.9877 96.8312 35.9134C91.9956 33.3122 86.4544 31.8155 80.5968 31.8155C74.5921 31.8155 68.9667 33.369 64.0952 36.0424C64.0413 36.0667 63.9841 36.0682 63.9302 36.0956C63.8651 36.1306 63.8254 36.1915 63.7667 36.2341C58.8571 39.0002 54.7587 42.9289 51.873 47.635C51.8286 47.6898 51.7683 47.7278 51.7302 47.7902C51.7 47.8389 51.6984 47.8952 51.6746 47.9469C48.8825 52.6165 47.2619 58.0089 47.2619 63.7664C47.2619 69.5239 48.8825 74.9178 51.673 79.5874C51.6968 79.6376 51.6984 79.6924 51.727 79.7426C51.8402 79.9325 51.9931 80.0963 52.1114 80.2831C54.9842 84.8188 58.9922 88.6109 63.7667 91.3032C63.8238 91.3458 63.8635 91.4021 63.927 91.4387C64.0712 91.5168 64.2276 91.5696 64.3721 91.6473C69.179 94.2288 74.7045 95.7218 80.5952 95.7218C85.1867 95.7218 89.5973 94.8468 93.7452 93.1309C94.107 92.9811 94.5247 93.1295 94.7144 93.4722C94.9313 93.8642 94.7738 94.3638 94.3597 94.5349C90.0208 96.3278 85.4056 97.2433 80.5968 97.2433C61.3413 97.2433 45.6762 82.2272 45.6762 63.7694C45.6762 45.3116 61.3397 30.294 80.5952 30.294Z" fill="#FDD105"/>
<path d="M125.04 81.2519C128.103 81.2519 130.595 78.8646 130.595 75.9281C130.595 72.9915 128.103 70.6027 125.04 70.6027C121.976 70.6027 119.484 72.9915 119.484 75.9281C119.484 78.8646 121.976 81.2519 125.04 81.2519ZM125.04 73.6457C126.352 73.6457 127.421 74.6697 127.421 75.9281C127.421 77.1849 126.352 78.2088 125.04 78.2088C123.727 78.2088 122.659 77.1864 122.659 75.9281C122.659 74.6697 123.727 73.6457 125.04 73.6457Z" fill="#FDD105"/>
<path d="M48.7443 124.1V135.736H46.6193L41.5568 128.413H41.4716V135.736H39.0114V124.1H41.1705L46.1932 131.418H46.2955V124.1H48.7443ZM54.6747 135.907C53.7921 135.907 53.0289 135.719 52.3849 135.344C51.7448 134.966 51.2505 134.439 50.902 133.765C50.5535 133.087 50.3793 132.301 50.3793 131.407C50.3793 130.505 50.5535 129.718 50.902 129.043C51.2505 128.365 51.7448 127.839 52.3849 127.464C53.0289 127.085 53.7921 126.896 54.6747 126.896C55.5573 126.896 56.3187 127.085 56.9588 127.464C57.6027 127.839 58.099 128.365 58.4474 129.043C58.7959 129.718 58.9702 130.505 58.9702 131.407C58.9702 132.301 58.7959 133.087 58.4474 133.765C58.099 134.439 57.6027 134.966 56.9588 135.344C56.3187 135.719 55.5573 135.907 54.6747 135.907ZM54.6861 134.032C55.0876 134.032 55.4228 133.918 55.6918 133.691C55.9607 133.46 56.1634 133.146 56.2997 132.748C56.4399 132.35 56.5099 131.897 56.5099 131.39C56.5099 130.882 56.4399 130.43 56.2997 130.032C56.1634 129.634 55.9607 129.32 55.6918 129.089C55.4228 128.858 55.0876 128.742 54.6861 128.742C54.2808 128.742 53.9399 128.858 53.6634 129.089C53.3906 129.32 53.1842 129.634 53.044 130.032C52.9077 130.43 52.8395 130.882 52.8395 131.39C52.8395 131.897 52.9077 132.35 53.044 132.748C53.1842 133.146 53.3906 133.46 53.6634 133.691C53.9399 133.918 54.2808 134.032 54.6861 134.032ZM68.3991 127.009L65.348 135.736H62.6207L59.5696 127.009H62.1264L63.9389 133.253H64.0298L65.8366 127.009H68.3991ZM73.2997 135.907C72.4171 135.907 71.6539 135.719 71.0099 135.344C70.3698 134.966 69.8755 134.439 69.527 133.765C69.1785 133.087 69.0043 132.301 69.0043 131.407C69.0043 130.505 69.1785 129.718 69.527 129.043C69.8755 128.365 70.3698 127.839 71.0099 127.464C71.6539 127.085 72.4171 126.896 73.2997 126.896C74.1823 126.896 74.9437 127.085 75.5838 127.464C76.2277 127.839 76.724 128.365 77.0724 129.043C77.4209 129.718 77.5952 130.505 77.5952 131.407C77.5952 132.301 77.4209 133.087 77.0724 133.765C76.724 134.439 76.2277 134.966 75.5838 135.344C74.9437 135.719 74.1823 135.907 73.2997 135.907ZM73.3111 134.032C73.7126 134.032 74.0478 133.918 74.3168 133.691C74.5857 133.46 74.7884 133.146 74.9247 132.748C75.0649 132.35 75.1349 131.897 75.1349 131.39C75.1349 130.882 75.0649 130.43 74.9247 130.032C74.7884 129.634 74.5857 129.32 74.3168 129.089C74.0478 128.858 73.7126 128.742 73.3111 128.742C72.9058 128.742 72.5649 128.858 72.2884 129.089C72.0156 129.32 71.8092 129.634 71.669 130.032C71.5327 130.43 71.4645 130.882 71.4645 131.39C71.4645 131.897 71.5327 132.35 71.669 132.748C71.8092 133.146 72.0156 133.46 72.2884 133.691C72.5649 133.918 72.9058 134.032 73.3111 134.032ZM82.4744 126.128V124.1H92.0312V126.128H88.4688V135.736H86.0369V126.128H82.4744ZM92.6534 135.736V127.009H95V128.532H95.0909C95.25 127.99 95.517 127.581 95.892 127.305C96.267 127.024 96.6989 126.884 97.1875 126.884C97.3087 126.884 97.4394 126.892 97.5795 126.907C97.7197 126.922 97.8428 126.943 97.9489 126.969V129.117C97.8352 129.083 97.678 129.053 97.4773 129.026C97.2765 129 97.0928 128.986 96.9261 128.986C96.5701 128.986 96.2519 129.064 95.9716 129.219C95.6951 129.371 95.4754 129.583 95.3125 129.856C95.1534 130.128 95.0739 130.443 95.0739 130.799V135.736H92.6534ZM102.771 135.907C101.874 135.907 101.101 135.725 100.453 135.361C99.8092 134.994 99.313 134.475 98.9645 133.805C98.616 133.13 98.4418 132.333 98.4418 131.413C98.4418 130.515 98.616 129.727 98.9645 129.049C99.313 128.371 99.8035 127.843 100.436 127.464C101.072 127.085 101.819 126.896 102.675 126.896C103.25 126.896 103.786 126.988 104.283 127.174C104.783 127.356 105.218 127.63 105.589 127.998C105.964 128.365 106.256 128.827 106.464 129.384C106.673 129.937 106.777 130.585 106.777 131.327V131.992H99.4077V130.492H104.499C104.499 130.144 104.423 129.835 104.271 129.566C104.12 129.297 103.91 129.087 103.641 128.935C103.375 128.78 103.067 128.702 102.714 128.702C102.347 128.702 102.021 128.788 101.737 128.958C101.457 129.125 101.237 129.35 101.078 129.634C100.919 129.914 100.838 130.227 100.834 130.572V131.998C100.834 132.43 100.913 132.803 101.072 133.117C101.235 133.432 101.464 133.674 101.76 133.844C102.055 134.015 102.406 134.1 102.811 134.1C103.08 134.1 103.326 134.062 103.55 133.986C103.773 133.911 103.964 133.797 104.124 133.646C104.283 133.494 104.404 133.308 104.487 133.089L106.726 133.236C106.612 133.774 106.379 134.244 106.027 134.646C105.679 135.043 105.228 135.354 104.675 135.577C104.125 135.797 103.491 135.907 102.771 135.907ZM108.357 135.736V127.009H110.777V135.736H108.357ZM109.572 125.884C109.213 125.884 108.904 125.765 108.646 125.526C108.393 125.284 108.266 124.994 108.266 124.657C108.266 124.324 108.393 124.038 108.646 123.799C108.904 123.557 109.213 123.435 109.572 123.435C109.932 123.435 110.239 123.557 110.493 123.799C110.75 124.038 110.879 124.324 110.879 124.657C110.879 124.994 110.75 125.284 110.493 125.526C110.239 125.765 109.932 125.884 109.572 125.884ZM115.136 130.691V135.736H112.716V127.009H115.023V128.549H115.125C115.318 128.041 115.642 127.64 116.097 127.344C116.551 127.045 117.102 126.896 117.75 126.896C118.356 126.896 118.884 127.028 119.335 127.293C119.786 127.558 120.136 127.937 120.386 128.43C120.636 128.918 120.761 129.502 120.761 130.18V135.736H118.341V130.611C118.345 130.077 118.208 129.661 117.932 129.361C117.655 129.058 117.275 128.907 116.79 128.907C116.464 128.907 116.176 128.977 115.926 129.117C115.68 129.257 115.487 129.462 115.347 129.731C115.21 129.996 115.14 130.316 115.136 130.691ZM126.612 135.907C125.73 135.907 124.966 135.719 124.322 135.344C123.682 134.966 123.188 134.439 122.839 133.765C122.491 133.087 122.317 132.301 122.317 131.407C122.317 130.505 122.491 129.718 122.839 129.043C123.188 128.365 123.682 127.839 124.322 127.464C124.966 127.085 125.73 126.896 126.612 126.896C127.495 126.896 128.256 127.085 128.896 127.464C129.54 127.839 130.036 128.365 130.385 129.043C130.733 129.718 130.908 130.505 130.908 131.407C130.908 132.301 130.733 133.087 130.385 133.765C130.036 134.439 129.54 134.966 128.896 135.344C128.256 135.719 127.495 135.907 126.612 135.907ZM126.624 134.032C127.025 134.032 127.36 133.918 127.629 133.691C127.898 133.46 128.101 133.146 128.237 132.748C128.377 132.35 128.447 131.897 128.447 131.39C128.447 130.882 128.377 130.43 128.237 130.032C128.101 129.634 127.898 129.32 127.629 129.089C127.36 128.858 127.025 128.742 126.624 128.742C126.218 128.742 125.877 128.858 125.601 129.089C125.328 129.32 125.122 129.634 124.982 130.032C124.845 130.43 124.777 130.882 124.777 131.39C124.777 131.897 124.845 132.35 124.982 132.748C125.122 133.146 125.328 133.46 125.601 133.691C125.877 133.918 126.218 134.032 126.624 134.032Z" fill="#FDD105"/>
</svg>
