<svg width="170" height="150" viewBox="0 0 170 150" fill="none" xmlns="http://www.w3.org/2000/svg">
<rect width="170" height="150" rx="10" fill="#0C2172"/>
<path d="M48.7443 124.1V135.736H46.6193L41.5568 128.413H41.4716V135.736H39.0114V124.1H41.1705L46.1932 131.418H46.2955V124.1H48.7443ZM54.6747 135.907C53.7921 135.907 53.0289 135.719 52.3849 135.344C51.7448 134.966 51.2505 134.439 50.902 133.765C50.5535 133.087 50.3793 132.301 50.3793 131.407C50.3793 130.505 50.5535 129.718 50.902 129.043C51.2505 128.365 51.7448 127.839 52.3849 127.464C53.0289 127.085 53.7921 126.896 54.6747 126.896C55.5573 126.896 56.3187 127.085 56.9588 127.464C57.6027 127.839 58.099 128.365 58.4474 129.043C58.7959 129.718 58.9702 130.505 58.9702 131.407C58.9702 132.301 58.7959 133.087 58.4474 133.765C58.099 134.439 57.6027 134.966 56.9588 135.344C56.3187 135.719 55.5573 135.907 54.6747 135.907ZM54.6861 134.032C55.0876 134.032 55.4228 133.918 55.6918 133.691C55.9607 133.46 56.1634 133.146 56.2997 132.748C56.4399 132.35 56.5099 131.897 56.5099 131.39C56.5099 130.882 56.4399 130.43 56.2997 130.032C56.1634 129.634 55.9607 129.32 55.6918 129.089C55.4228 128.858 55.0876 128.742 54.6861 128.742C54.2808 128.742 53.9399 128.858 53.6634 129.089C53.3906 129.32 53.1842 129.634 53.044 130.032C52.9077 130.43 52.8395 130.882 52.8395 131.39C52.8395 131.897 52.9077 132.35 53.044 132.748C53.1842 133.146 53.3906 133.46 53.6634 133.691C53.9399 133.918 54.2808 134.032 54.6861 134.032ZM68.3991 127.009L65.348 135.736H62.6207L59.5696 127.009H62.1264L63.9389 133.253H64.0298L65.8366 127.009H68.3991ZM73.2997 135.907C72.4171 135.907 71.6539 135.719 71.0099 135.344C70.3698 134.966 69.8755 134.439 69.527 133.765C69.1785 133.087 69.0043 132.301 69.0043 131.407C69.0043 130.505 69.1785 129.718 69.527 129.043C69.8755 128.365 70.3698 127.839 71.0099 127.464C71.6539 127.085 72.4171 126.896 73.2997 126.896C74.1823 126.896 74.9437 127.085 75.5838 127.464C76.2277 127.839 76.724 128.365 77.0724 129.043C77.4209 129.718 77.5952 130.505 77.5952 131.407C77.5952 132.301 77.4209 133.087 77.0724 133.765C76.724 134.439 76.2277 134.966 75.5838 135.344C74.9437 135.719 74.1823 135.907 73.2997 135.907ZM73.3111 134.032C73.7126 134.032 74.0478 133.918 74.3168 133.691C74.5857 133.46 74.7884 133.146 74.9247 132.748C75.0649 132.35 75.1349 131.897 75.1349 131.39C75.1349 130.882 75.0649 130.43 74.9247 130.032C74.7884 129.634 74.5857 129.32 74.3168 129.089C74.0478 128.858 73.7126 128.742 73.3111 128.742C72.9058 128.742 72.5649 128.858 72.2884 129.089C72.0156 129.32 71.8092 129.634 71.669 130.032C71.5327 130.43 71.4645 130.882 71.4645 131.39C71.4645 131.897 71.5327 132.35 71.669 132.748C71.8092 133.146 72.0156 133.46 72.2884 133.691C72.5649 133.918 72.9058 134.032 73.3111 134.032ZM84.9233 135.736H82.2869L86.304 124.1H89.4744L93.4858 135.736H90.8494L87.9347 126.759H87.8438L84.9233 135.736ZM84.7585 131.163H90.9858V133.083H84.7585V131.163ZM98.9361 127.009V128.827H93.6804V127.009H98.9361ZM94.8736 124.918H97.294V133.055C97.294 133.278 97.3281 133.452 97.3963 133.577C97.4645 133.699 97.5592 133.784 97.6804 133.833C97.8054 133.882 97.9493 133.907 98.1122 133.907C98.2259 133.907 98.3395 133.897 98.4531 133.878C98.5668 133.856 98.6539 133.839 98.7145 133.827L99.0952 135.628C98.974 135.666 98.8035 135.71 98.5838 135.759C98.3641 135.812 98.0971 135.844 97.7827 135.856C97.1993 135.878 96.688 135.801 96.2486 135.623C95.813 135.445 95.474 135.168 95.2315 134.793C94.9891 134.418 94.8698 133.945 94.8736 133.373V124.918ZM103.121 124.1V135.736H100.7V124.1H103.121ZM109.037 135.907C108.139 135.907 107.366 135.725 106.719 135.361C106.075 134.994 105.579 134.475 105.23 133.805C104.882 133.13 104.707 132.333 104.707 131.413C104.707 130.515 104.882 129.727 105.23 129.049C105.579 128.371 106.069 127.843 106.702 127.464C107.338 127.085 108.084 126.896 108.94 126.896C109.516 126.896 110.052 126.988 110.548 127.174C111.048 127.356 111.484 127.63 111.855 127.998C112.23 128.365 112.522 128.827 112.73 129.384C112.938 129.937 113.043 130.585 113.043 131.327V131.992H105.673V130.492H110.764C110.764 130.144 110.688 129.835 110.537 129.566C110.385 129.297 110.175 129.087 109.906 128.935C109.641 128.78 109.332 128.702 108.98 128.702C108.613 128.702 108.287 128.788 108.003 128.958C107.723 129.125 107.503 129.35 107.344 129.634C107.185 129.914 107.103 130.227 107.099 130.572V131.998C107.099 132.43 107.179 132.803 107.338 133.117C107.501 133.432 107.73 133.674 108.026 133.844C108.321 134.015 108.671 134.1 109.077 134.1C109.346 134.1 109.592 134.062 109.815 133.986C110.039 133.911 110.23 133.797 110.389 133.646C110.548 133.494 110.67 133.308 110.753 133.089L112.991 133.236C112.878 133.774 112.645 134.244 112.293 134.646C111.944 135.043 111.493 135.354 110.94 135.577C110.391 135.797 109.757 135.907 109.037 135.907ZM119.264 127.009V128.827H114.009V127.009H119.264ZM115.202 124.918H117.622V133.055C117.622 133.278 117.656 133.452 117.724 133.577C117.793 133.699 117.887 133.784 118.009 133.833C118.134 133.882 118.277 133.907 118.44 133.907C118.554 133.907 118.668 133.897 118.781 133.878C118.895 133.856 118.982 133.839 119.043 133.827L119.423 135.628C119.302 135.666 119.132 135.71 118.912 135.759C118.692 135.812 118.425 135.844 118.111 135.856C117.527 135.878 117.016 135.801 116.577 135.623C116.141 135.445 115.802 135.168 115.56 134.793C115.317 134.418 115.198 133.945 115.202 133.373V124.918ZM123.33 135.901C122.773 135.901 122.277 135.805 121.841 135.611C121.405 135.414 121.061 135.125 120.807 134.742C120.557 134.356 120.432 133.875 120.432 133.299C120.432 132.814 120.521 132.407 120.699 132.077C120.877 131.748 121.119 131.483 121.426 131.282C121.733 131.081 122.081 130.93 122.472 130.827C122.866 130.725 123.278 130.653 123.71 130.611C124.218 130.558 124.627 130.509 124.938 130.464C125.248 130.414 125.473 130.343 125.614 130.248C125.754 130.153 125.824 130.013 125.824 129.827V129.793C125.824 129.433 125.71 129.155 125.483 128.958C125.259 128.761 124.941 128.663 124.528 128.663C124.093 128.663 123.746 128.759 123.489 128.952C123.231 129.142 123.061 129.38 122.977 129.668L120.739 129.486C120.852 128.956 121.076 128.498 121.409 128.111C121.742 127.721 122.172 127.422 122.699 127.214C123.229 127.002 123.843 126.896 124.54 126.896C125.025 126.896 125.489 126.952 125.932 127.066C126.379 127.18 126.775 127.356 127.119 127.594C127.468 127.833 127.742 128.14 127.943 128.515C128.144 128.886 128.244 129.331 128.244 129.85V135.736H125.949V134.526H125.881C125.741 134.799 125.553 135.039 125.318 135.248C125.083 135.452 124.801 135.613 124.472 135.731C124.142 135.844 123.761 135.901 123.33 135.901ZM124.023 134.231C124.379 134.231 124.693 134.161 124.966 134.021C125.239 133.877 125.453 133.683 125.608 133.441C125.763 133.199 125.841 132.924 125.841 132.617V131.691C125.765 131.74 125.661 131.786 125.528 131.827C125.4 131.865 125.254 131.901 125.091 131.935C124.928 131.966 124.765 131.994 124.602 132.021C124.439 132.043 124.292 132.064 124.159 132.083C123.875 132.125 123.627 132.191 123.415 132.282C123.203 132.373 123.038 132.496 122.92 132.651C122.803 132.803 122.744 132.992 122.744 133.219C122.744 133.549 122.864 133.801 123.102 133.975C123.345 134.146 123.652 134.231 124.023 134.231Z" fill="#FDD105"/>
<path d="M123.017 61.2455C128.364 61.2455 132.723 56.886 132.723 51.5404C132.723 46.1947 128.364 41.8352 123.017 41.8352C117.672 41.8352 113.313 46.1947 113.313 51.5404C113.313 56.886 117.672 61.2455 123.017 61.2455Z" fill="#FDD105"/>
<path d="M55.7077 44.5541H80.6147L89.1176 53.0926L58.4486 65.0377C60.4012 65.6051 62.2605 66.4058 64.0829 67.2003C66.9295 68.4431 69.6201 69.6183 72.2198 69.6183C74.8208 69.6183 77.5114 68.4431 80.358 67.2003C83.6737 65.7549 87.1012 64.2579 91.0186 64.2579C94.936 64.2579 98.3647 65.7549 101.68 67.2003C104.528 68.4455 107.219 69.6183 109.819 69.6183C112.141 69.6183 114.534 68.6801 117.046 67.597L86.0536 36.4491C85.0933 35.4838 83.9181 35 82.5587 35H55.7077C53.1251 35 51.0215 37.1061 51.0215 39.6862V39.8642C51.0215 42.4468 53.1251 44.5541 55.7077 44.5541Z" fill="#FDD105"/>
<path d="M34.3475 81.2674C38.2711 81.0279 41.5905 79.6489 44.8006 78.3152C47.7638 77.0847 50.5637 75.9218 53.4226 75.9218C56.0236 75.9218 58.713 77.0945 61.5596 78.3373C64.8752 79.7839 68.3027 81.2797 72.2189 81.2797C76.1363 81.2797 79.5625 79.7827 82.8782 78.3373C85.7261 77.0945 88.4155 75.9218 91.0164 75.9218C93.6199 75.9218 96.3105 77.097 99.1583 78.3398C102.472 79.7864 105.9 81.2809 109.816 81.2809C113.733 81.2809 117.16 79.7839 120.477 78.3385C123.324 77.0958 126.014 75.923 128.615 75.923C129.627 75.923 130.72 76.1011 131.955 76.4646C133.629 76.9607 135.378 76.0041 135.87 74.3352C136.363 72.6663 135.409 70.9126 133.741 70.419C131.916 69.8811 130.239 69.6207 128.615 69.6207C124.699 69.6207 121.272 71.1177 117.955 72.5631C115.108 73.8059 112.417 74.9786 109.816 74.9786C107.217 74.9786 104.526 73.8059 101.678 72.5631C98.3638 71.1165 94.9351 69.6207 91.0164 69.6207C87.1002 69.6207 83.6716 71.1177 80.3559 72.5631C77.5093 73.8059 74.8186 74.9786 72.2177 74.9786C69.6167 74.9786 66.9273 73.8059 64.0807 72.5631C60.765 71.1165 57.3376 69.6207 53.4214 69.6207C49.3038 69.6207 45.7854 71.0833 42.3801 72.4968C39.5237 73.6818 36.8282 74.8018 33.9595 74.9786C32.2218 75.0843 30.8992 76.5812 31.006 78.3177C31.1141 80.0529 32.6246 81.3767 34.3475 81.2674Z" fill="#FDD105"/>
<path d="M133.745 85.923C131.922 85.3839 130.243 85.1223 128.617 85.1223C124.701 85.1223 121.273 86.6193 117.956 88.0647C115.11 89.3075 112.419 90.4802 109.818 90.4802C107.218 90.4802 104.528 89.3075 101.68 88.0647C98.3656 86.6181 94.9369 85.1223 91.0182 85.1223C87.102 85.1223 83.6733 86.6193 80.3577 88.0647C77.5111 89.3075 74.8204 90.4802 72.2195 90.4802C69.6185 90.4802 66.9291 89.3075 64.0825 88.0647C60.7668 86.6181 57.3394 85.1223 53.4232 85.1223C49.3056 85.1223 45.7872 86.5849 42.3831 87.9984C39.5267 89.1834 36.83 90.3059 33.9613 90.4802C32.2236 90.5859 30.9022 92.0828 31.0078 93.8193C31.1134 95.5582 32.5957 96.882 34.3469 96.7715C38.2717 96.532 41.591 95.1529 44.8011 93.8193C47.7644 92.5888 50.5631 91.4258 53.4232 91.4258C56.0241 91.4258 58.7135 92.6011 61.5601 93.8438C64.8758 95.2905 68.3033 96.7862 72.2195 96.7862C76.1369 96.7862 79.5631 95.2892 82.8788 93.8438C85.7266 92.6011 88.416 91.4258 91.017 91.4258C93.6192 91.4258 96.3111 92.6011 99.1589 93.8438C102.472 95.2905 105.9 96.7862 109.817 96.7862C113.734 96.7862 117.161 95.2892 120.478 93.8438C123.324 92.6011 126.015 91.4258 128.616 91.4258C129.628 91.4258 130.721 91.6039 131.954 91.9674C133.621 92.466 135.376 91.5093 135.87 89.8404C136.363 88.1715 135.413 86.4167 133.745 85.923Z" fill="#FDD105"/>
</svg>
