<svg width="20" height="20" viewBox="0 0 20 20" fill="none" xmlns="http://www.w3.org/2000/svg">
<path d="M17.669 12.7756C17.2873 12.585 14.4753 11.2731 9.49997 11.2731C4.5243 11.2731 1.7124 12.5852 1.3308 12.7756C0.762871 13.0126 0.337632 13.4257 0.130888 13.9423C-0.0805057 14.4705 -0.034663 15.0358 0.259892 15.5334L2.62718 19.5327C3.03202 20.216 3.83523 20.6404 4.72342 20.6404H14.2766C15.1648 20.6404 15.968 20.216 16.373 19.5324L18.74 15.5334C19.0347 15.0358 19.0804 14.4707 18.8692 13.9423C18.6626 13.4257 18.2372 13.0126 17.669 12.7756Z" fill="#0C2172"/>
<path d="M9.49981 0.640381C6.46128 0.640381 3.98926 2.77635 3.98926 5.40193C3.98926 8.02741 6.46128 10.1635 9.49981 10.1635C12.5383 10.1635 15.0105 8.0274 15.0105 5.40193C15.0105 2.77635 12.5383 0.640381 9.49981 0.640381Z" fill="#0C2172"/>
</svg>
