<svg width="20" height="21" viewBox="0 0 20 21" fill="none" xmlns="http://www.w3.org/2000/svg">
<path d="M17.669 12.1352C17.2873 11.9446 14.4753 10.6327 9.49997 10.6327C4.5243 10.6327 1.7124 11.9449 1.3308 12.1352C0.762871 12.3722 0.337632 12.7853 0.130888 13.3019C-0.0805057 13.8301 -0.034663 14.3954 0.259892 14.893L2.62718 18.8923C3.03202 19.5756 3.83523 20 4.72342 20H14.2766C15.1648 20 15.968 19.5756 16.373 18.892L18.74 14.893C19.0347 14.3954 19.0804 13.8303 18.8692 13.3019C18.6626 12.7853 18.2372 12.3722 17.669 12.1352Z" fill="#505050"/>
<path d="M9.49981 0C6.46128 0 3.98926 2.13597 3.98926 4.76155C3.98926 7.38702 6.46128 9.5231 9.49981 9.5231C12.5383 9.5231 15.0105 7.38702 15.0105 4.76155C15.0105 2.13597 12.5383 0 9.49981 0Z" fill="#505050"/>
</svg>
